<svg viewBox="0 0 1600 400" xmlns="http://www.w3.org/2000/svg"><g fill="#f02e65"><path d="m368.384 202.21c0 55.001-44.586 99.589-99.589 99.589-25.547 0-48.846-9.622-66.476-25.434 28.242-12.715 47.903-41.103 47.903-74.083 0-33.023-19.71-61.44-48.011-74.131 17.645-15.87 40.985-25.529 66.584-25.529 55.003 0 99.589 44.587 99.589 99.588z"/><path d="m228.987 122.718c-61.162-46.221-149.426-8.902-158.873 67.177-4.39 35.358 10.442 70.367 38.895 91.809 61.196 46.18 149.434 8.796 158.829-67.29 4.359-35.313-10.451-70.266-38.851-91.697zm-11.077 14.675c49.899 37.653 40.323 115.2-17.236 139.586-26.71 11.318-57.432 7.525-80.589-9.951-49.896-37.654-40.322-115.201 17.236-139.586 26.711-11.316 57.433-7.524 80.589 9.951z"/><path d="m482.978 129.125c13.667 0 25.316 3.537 34.949 10.615 9.632 7.079 16.255 16.461 19.871 28.146v-37.048h17.052v134.858h-17.052v-37.046c-3.616 11.696-10.239 21.082-19.871 28.16-9.633 7.079-21.282 10.618-34.949 10.618-12.184 0-23.093-2.8-32.726-8.397-9.632-5.596-17.123-13.624-22.475-24.084-5.351-10.459-8.029-22.686-8.029-36.68 0-14.156 2.678-26.463 8.029-36.923 5.352-10.449 12.802-18.43 22.353-23.948 9.55-5.516 20.499-8.271 32.848-8.271zm4.444 15.304c-15.148 0-27.292 4.815-36.435 14.449-9.131 9.633-13.697 22.763-13.697 39.389 0 16.629 4.566 29.76 13.697 39.393 9.143 9.631 21.287 14.446 36.435 14.446 9.549 0 18.152-2.22 25.802-6.665 7.659-4.441 13.67-10.74 18.033-18.891 4.361-8.151 6.541-17.577 6.541-28.283 0-10.704-2.18-20.125-6.541-28.268-4.363-8.148-10.374-14.453-18.033-18.903-7.65-4.445-16.253-6.667-25.802-6.667zm177.079-15.304c12.349 0 23.258 2.755 32.725 8.271 9.469 5.518 16.88 13.499 22.232 23.948 5.351 10.46 8.027 22.767 8.027 36.923 0 13.994-2.676 26.221-8.027 36.68-5.352 10.46-12.807 18.488-22.353 24.084-9.55 5.597-20.419 8.397-32.604 8.397-13.832 0-25.521-3.539-35.071-10.618-9.55-7.078-16.134-16.464-19.751-28.16v100.768h-17.297v-198.58h17.297v37.048c3.617-11.685 10.201-21.067 19.751-28.146 9.55-7.078 21.239-10.615 35.071-10.615zm-4.69 15.304c-9.55 0-18.155 2.222-25.816 6.667-7.65 4.45-13.616 10.755-17.895 18.903-4.279 8.143-6.421 17.564-6.421 28.268 0 10.706 2.142 20.132 6.421 28.283s10.245 14.45 17.895 18.891c7.661 4.445 16.266 6.665 25.816 6.665 15.311 0 27.497-4.815 36.557-14.446 9.051-9.633 13.575-22.764 13.575-39.393 0-16.626-4.524-29.756-13.575-39.389-9.06-9.634-21.246-14.449-36.557-14.449zm170.902-15.304c12.351 0 23.26 2.755 32.727 8.271 9.469 5.518 16.881 13.499 22.233 23.948 5.35 10.46 8.027 22.767 8.027 36.923 0 13.994-2.677 26.221-8.027 36.68-5.352 10.46-12.805 18.488-22.355 24.084-9.549 5.597-20.417 8.397-32.605 8.397-13.83 0-25.518-3.539-35.067-10.618-9.552-7.078-16.134-16.464-19.75-28.16v100.768h-17.298v-198.58h17.298v37.048c3.616-11.685 10.198-21.067 19.75-28.146 9.549-7.078 21.237-10.615 35.067-10.615zm-4.686 15.304c-9.549 0-18.157 2.222-25.817 6.667-7.649 4.45-13.614 10.755-17.895 18.903-4.279 8.143-6.419 17.564-6.419 28.268 0 10.706 2.14 20.132 6.419 28.283 4.281 8.151 10.246 14.45 17.895 18.891 7.66 4.445 16.268 6.665 25.817 6.665 15.311 0 27.496-4.815 36.555-14.446 9.051-9.633 13.576-22.764 13.576-39.393 0-16.626-4.525-29.756-13.576-39.389-9.059-9.634-21.244-14.449-36.555-14.449zm259.076-15.55h32.604l-36.802 136.817h-38.532l-29.385-99.526-30.138 99.526h-38.517l-36.557-136.817h34.826l22.231 105.701 30.366-105.701h36.801l30.628 105.701zm84.718 26.168c5.098-8.722 11.845-15.595 20.241-20.622 8.406-5.015 17.791-7.521 28.16-7.521v37.289h-10.126c-25.517 0-38.275 11.854-38.275 35.559v65.944h-34.823v-136.817h34.823zm63.717-65.453c0-5.596 1.977-10.162 5.929-13.697 3.953-3.542 9.14-5.315 15.552-5.315 6.428 0 11.614 1.773 15.566 5.315 3.954 3.535 5.93 8.101 5.93 13.697 0 5.435-1.976 9.924-5.93 13.469-3.952 3.543-9.138 5.316-15.566 5.316-6.412 0-11.599-1.773-15.552-5.316-3.952-3.545-5.929-8.034-5.929-13.469zm3.953 39.285h34.826v136.817h-34.826zm125.961 106.927h13.576v29.89h-18.279c-15.314 0-27.043-3.701-35.194-11.107-8.15-7.416-12.226-19.763-12.226-37.047v-59.278h-19.013v-29.385h19.013v-33.845h34.825v33.845h30.628v29.385h-30.628v59.768c0 6.588 1.319 11.201 3.952 13.835 2.636 2.626 7.085 3.939 13.346 3.939zm167.194-43.712c0 3.461-.407 7.415-1.227 11.857h-100.276c.49 12.185 3.784 21.16 9.883 26.921 6.086 5.761 13.66 8.642 22.721 8.642 8.068 0 14.774-1.976 20.116-5.93 5.352-3.943 8.769-9.289 10.251-16.042h36.8c-1.806 9.55-5.673 18.109-11.596 25.68-5.936 7.579-13.55 13.508-22.846 17.787-9.305 4.279-19.636 6.419-30.992 6.419-13.341 0-25.2-2.839-35.577-8.518-10.368-5.68-18.432-13.79-24.192-24.33-5.771-10.54-8.656-22.973-8.656-37.293 0-14.329 2.885-26.801 8.656-37.413 5.76-10.624 13.824-18.736 24.192-24.33 10.377-5.597 22.236-8.396 35.577-8.396 13.49 0 25.303 2.799 35.436 8.396 10.12 5.594 17.941 13.293 23.457 23.089 5.514 9.794 8.273 20.948 8.273 33.461zm-35.07-3.446c.499-11.206-2.42-19.691-8.763-25.449-6.345-5.763-14.121-8.642-23.333-8.642-9.39 0-17.297 2.879-23.718 8.642-6.427 5.758-9.965 14.243-10.619 25.449z"/><path d="m171.666 167.755c-.118.293-1.643 6.273-3.28 13.368-1.703 7.093-4.4 18.291-5.922 24.914-2.933 12.136-4.692 20.109-4.692 21.163 0 .292 1.819.529 4.044.529h4.048l1.815-8.092c1.057-4.395 3.404-14.48 5.278-22.394 1.877-7.914 4.161-17.529 5.042-21.4.879-3.869 1.759-7.383 1.935-7.795.176-.527-.822-.701-3.871-.701-2.287 0-4.281.174-4.397.408zm-31.483 25.383-5.393 5.864 1.585 1.876c.877 1.054 3.284 3.693 5.334 5.864l3.753 3.983h10.671l-5.044-5.451c-2.757-2.928-5.043-5.745-5.043-6.095 0-.411 2.111-3.047 4.693-5.863 2.578-2.87 4.689-5.336 4.689-5.628 0-.236-2.227-.411-4.923-.411h-4.867zm41.038-5.509c0 .177.998 1.288 2.228 2.52 4.576 4.573 7.799 8.444 7.622 9.203-.115.414-2.345 3.167-5.041 6.039l-4.865 5.334h5.451l5.452-.057 4.981-5.453c2.759-3.046 4.986-5.746 4.986-6.096 0-.292-2.345-3.048-5.278-6.154l-5.272-5.688h-5.104c-2.873 0-5.16.175-5.16.352z"/></g></svg>