<svg fill="none" height="162" viewBox="0 0 1281 162" width="1281" xmlns="http://www.w3.org/2000/svg"><g fill="#1c1c3f"><path d="m1258.76 135.383c-3.57 0-6.88-.893-9.92-2.678-3.05-1.786-5.52-4.201-7.41-7.247-1.78-3.046-2.68-6.406-2.68-10.082v-39.0692h-9.61v-22.0551h11.03l9.45-21.2673h14.65v21.2673h14.66v15.7536l-5.68 6.3015h-8.98v31.1922c0 1.26.32 2.205.95 2.836.63.63 1.52.945 2.68.945h12.13v24.103z"/><path d="m1163.68 135.381v-22.055h29.93c1.16 0 2-.263 2.52-.788.63-.63.95-1.418.95-2.363v-.945c0-.945-.32-1.68-.95-2.205-.52-.526-1.47-.998-2.83-1.418l-14.02-4.254c-3.47-1.155-6.36-2.4678-8.67-3.9381-2.2-1.5754-3.94-3.5183-5.2-5.8289-1.15-2.4155-1.73-5.2512-1.73-8.5069v-8.822c0-3.6759.89-7.0366 2.68-10.0823 1.89-3.0457 4.36-5.4613 7.4-7.2467 3.05-1.7854 6.36-2.6781 9.93-2.6781h36.71v15.7536l-5.68 6.3014h-21.58c-1.15 0-2.05.2626-2.68.7877-.52.4201-.79 1.1028-.79 2.048v.7877c0 .8402.32 1.5753.95 2.2055.63.6301 1.58 1.1027 2.84 1.4178l14.17 4.411c3.47 1.0503 6.31 2.363 8.51 3.9384 2.31 1.4703 4.05 3.3608 5.2 5.6713 1.16 2.3105 1.73 5.0936 1.73 8.3496v9.452c0 3.676-.89 7.037-2.67 10.082-1.79 3.046-4.21 5.462-7.25 7.247-3.05 1.785-6.41 2.678-10.08 2.678z"/><path d="m1107.41 135.386c-3.68 0-7.04-.893-10.09-2.678-3.04-1.785-5.46-4.201-7.24-7.247-1.79-3.045-2.68-6.406-2.68-10.082v-42.6922c0-3.6759.89-7.0366 2.68-10.0823 1.78-3.0457 4.2-5.4613 7.24-7.2467 3.05-1.7854 6.41-2.6781 10.09-2.6781h24.89c3.57 0 6.88.8927 9.92 2.6781 3.05 1.7854 5.46 4.201 7.25 7.2467 1.89 3.0457 2.83 6.4064 2.83 10.0823v31.1922h-39.38v6.774c0 1.26.32 2.205.95 2.836.63.63 1.52.945 2.67.945h31.98v20.952zm4.88-48.521h14.97v-9.7672c0-1.2603-.32-2.153-.95-2.6781-.52-.6302-1.42-.9453-2.68-.9453h-7.56c-1.26 0-2.2.3151-2.83.9453-.64.5251-.95 1.4178-.95 2.6781z"/><path d="m1035.13 44.3274c0-3.6759.89-7.0366 2.68-10.0823 1.78-3.0457 4.2-5.4613 7.24-7.2467 3.05-1.7854 6.41-2.6781 10.09-2.6781h29.14v22.0551h-20.01c-1.15 0-2.05.315-2.68.9452-.63.5251-.94 1.4178-.94 2.6781v12.1303h17.33v15.4385l-2.99 6.6165h-14.34v51.199h-25.52z"/><path d="m976.341 135.386v-81.131h16.069l3.623 8.6645h.788c1.26-2.6256 3.259-4.9886 5.989-7.0891s5.88-3.1507 9.45-3.1507h12.6v25.6784h-18.59c-1.05 0-1.89.21-2.52.6301-.63.3151-1.1.7877-1.42 1.4178-.31.6302-.47 1.4704-.47 2.5206v52.4594z"/><path d="m918.174 135.386c-3.676 0-7.037-.893-10.083-2.678s-5.461-4.201-7.247-7.247c-1.785-3.045-2.678-6.406-2.678-10.082v-42.6922c0-3.6759.893-7.0366 2.678-10.0823 1.786-3.0457 4.201-5.4613 7.247-7.2467s6.407-2.6781 10.083-2.6781h24.891c3.571 0 6.879.8927 9.925 2.6781s5.461 4.201 7.247 7.2467c1.89 3.0457 2.836 6.4064 2.836 10.0823v31.1922h-39.386v6.774c0 1.26.316 2.205.946 2.836.63.63 1.523.945 2.678.945h31.981v20.952zm4.883-48.521h14.967v-9.7672c0-1.2603-.315-2.153-.946-2.6781-.525-.6302-1.417-.9453-2.678-.9453h-7.562c-1.26 0-2.205.3151-2.835.9453-.631.5251-.946 1.4178-.946 2.6781z"/><path d="m819.896 135.378v-109.4874h25.522v36.7059h.788c1.155-2.5206 3.045-4.7786 5.671-6.774 2.731-2.1005 5.882-3.1508 9.453-3.1508h4.726c3.676 0 6.984.8402 9.925 2.5206s5.251 4.0434 6.932 7.0891c1.785 2.9407 2.678 6.1965 2.678 9.7673v43.3223c0 3.676-.945 7.037-2.836 10.082-1.785 3.046-4.201 5.462-7.247 7.247s-6.354 2.678-9.925 2.678zm37.022-23.63c1.261 0 2.153-.315 2.679-.945.63-.631.945-1.523.945-2.679v-28.1985c0-1.2603-.315-2.153-.945-2.6781-.526-.6302-1.418-.9453-2.679-.9453h-5.986c-1.47 0-2.626.2101-3.466.6302s-1.523 1.1027-2.048 2.048c-.42.8402-.63 1.9429-.63 3.3082v29.4595z"/><path d="m760.017 136.961c-3.676 0-7.036-.892-10.082-2.678-3.046-1.785-5.462-4.201-7.247-7.246-1.786-3.046-2.678-6.407-2.678-10.083v-44.2672c0-3.6759.892-7.0366 2.678-10.0823 1.785-3.0457 4.201-5.4613 7.247-7.2467s6.406-2.6781 10.082-2.6781h25.679c3.571 0 6.88.8927 9.925 2.6781 3.046 1.7854 5.462 4.201 7.247 7.2467 1.891 3.0457 2.836 6.4064 2.836 10.0823v44.2672c0 3.676-.945 7.037-2.836 10.083-1.785 3.045-4.201 5.461-7.247 7.246-3.045 1.786-6.354 2.678-9.925 2.678zm17.015-23.63c1.26 0 2.153-.315 2.678-.945.63-.63.945-1.523.945-2.678v-29.7746c0-1.2603-.315-2.153-.945-2.6781-.525-.6301-1.418-.9452-2.678-.9452h-8.35c-1.26 0-2.205.3151-2.836.9452-.63.5251-.945 1.4178-.945 2.6781v29.7746c0 1.155.315 2.048.945 2.678.631.63 1.576.945 2.836.945z"/><path d="m709.216 135.383c-3.571 0-6.879-.893-9.925-2.678-3.046-1.786-5.514-4.201-7.404-7.247-1.786-3.046-2.678-6.406-2.678-10.082v-39.0692h-9.61v-22.0551h11.027l9.453-21.2673h14.651v21.2673h14.651v15.7536l-5.671 6.3015h-8.98v31.1922c0 1.26.315 2.205.945 2.836.63.63 1.523.945 2.679.945h12.13v24.103z"/><path d="m607.893 135.378v-109.4874h25.521v57.1856h5.987l10.712-28.8291h23.159v11.8152l-12.288 27.8839 13.391 29.6168v11.815h-23.947l-11.027-29.144h-5.987v29.144z"/><path d="m560.169 135.381c-3.676 0-7.037-.893-10.083-2.678s-5.461-4.201-7.247-7.247c-1.785-3.045-2.678-6.406-2.678-10.082v-41.1169c0-3.6759.893-7.0366 2.678-10.0823 1.786-3.0457 4.201-5.4613 7.247-7.2467s6.407-2.6781 10.083-2.6781h35.131v18.4317l-5.199 5.6713h-20.795c-1.155 0-2.048.3151-2.678.9452-.63.6302-.945 1.5754-.945 2.8357v25.3631c0 1.26.315 2.206.945 2.836s1.523.945 2.678.945h25.994v24.103z"/><path d="m481.959 136.956c-3.676 0-6.984-.84-9.925-2.52-2.941-1.681-5.304-3.991-7.09-6.932-1.68-3.045-2.52-6.354-2.52-9.925v-12.445c0-3.571.84-6.8264 2.52-9.7671 1.786-3.0457 4.149-5.4087 7.09-7.0891s6.249-2.5206 9.925-2.5206h19.377v-7.0891c0-1.2603-.315-2.153-.945-2.6781-.525-.6302-1.418-.9452-2.678-.9452h-28.2v-20.7948h37.81c3.676 0 6.984.8402 9.925 2.5206s5.251 4.0434 6.932 7.0891c1.785 2.9407 2.678 6.1964 2.678 9.7672v61.7541h-16.069l-3.624-8.664h-.787c-1.261 2.625-3.309 4.988-6.145 7.089-2.73 2.1-5.881 3.15-9.452 3.15zm13.863-20.479c1.261 0 2.311-.21 3.151-.63.945-.526 1.628-1.208 2.048-2.048.525-.946.788-2.048.788-3.309v-7.719h-11.185c-1.261 0-2.206.315-2.836.945s-.945 1.576-.945 2.836v6.301c0 1.156.315 2.048.945 2.679.63.63 1.575.945 2.836.945z"/><path d="m382.381 135.385v-110.2756h26.309v42.5347h13.864v-42.5347h26.309v110.2756h-26.309v-43.3228h-13.864v43.3228z"/><path clip-rule="evenodd" d="m192.438.828125h10.688.001 10.689v10.689075h-10.689-.001-10.688v.0045 10.6836h-10.689v-10.6836-.0055-10.683578h10.689zm-10.69 10.693575h-10.689v10.6836.0055 10.6836h-10.689v-10.6836-.0055-10.6836h10.689v-.0045h-10.689v.0045h-10.69v-10.689078h10.69v-.004497h10.689v.004497h10.689zm10.69 106.8863h10.689v10.689h-10.689zm10.689 10.693h-10.689v10.684h-10.689v10.689h10.689v.005h-10.689v10.689h10.689v-.006h10.688.001 10.689v-10.683-.006-10.684h-10.689zm-.001 21.372v-10.683h-10.688v10.683zm-21.378.006h-10.689-10.689-10.69v10.689h10.69 10.689 10.689zm10.69-128.2692v10.6837.0054 10.6836h10.689v-10.6836-.0054-10.6827h10.689v-10.6891h-10.69v10.6881zm-64.136 138.9522h10.688v.006h10.689v-10.689h-10.688v-.005h10.688v-10.689h-10.688v-10.684h-10.69v10.688h-10.689v10.684.006 10.683h10.689zm0-10.689h10.688v-10.683h-10.688zm10.689-32.065h-10.69v10.689h10.69zm10.688-117.575378v10.683578.0055 10.6836h-10.689v-10.6836-.0045h-10.688-.001-10.689v-10.689075h10.689.001 10.689v.004497zm-10.688 21.377178v10.6837.0054 10.6836h-10.69v-10.6836-.0054-10.6827h-10.689v-10.6891h10.69v10.6881zm74.826-10.6881h10.688.001 10.689v10.6836.0055 10.6836h-10.689v.0045h-10.689v-10.6881-.001zm21.379 21.3772h10.689v10.6836h10.689v10.6891h-10.69v-10.6836h-10.688zm10.688 21.3772h10.69v10.6891h-10.69zm21.379 10.6936h-10.69v10.6836h-10.689-10.688-.001-10.689v10.6891h10.689.001 10.688 10.689v10.6881h10.69v-10.6881h10.689 10.689v10.6881h10.69v-10.6881h10.689v-10.6891h-10.689v-10.6836h-10.69v10.6836h-10.689-10.689zm21.379 10.6891h-.001v10.6827h.001zm-32.069 10.6827h.001v-10.6827h-.001zm-42.756 53.4485v-.001-10.688h10.688v-.005h10.69v10.689h-10.689v.004h10.689v10.684.006 10.683h-10.689-.001-10.688v-10.683-.006zm32.067-10.689h-10.688v-10.689h10.689v10.684h10.688.001 10.689v10.689h-10.689-.001-10.689zm10.69-10.693h-10.69v-10.684-.005-10.684h10.69v10.684.005zm-138.962-106.8863h-10.689-.001-10.6887v10.6836.0055 10.6836h10.6897v.0045h10.689v-10.6891zm-21.3795 21.3772h-10.6893v10.6836h-10.6889v10.6891h10.6894v-10.6836h10.6888zm-10.6888 21.3772h-10.6894v10.6891h10.6894zm-21.3783 10.6936h10.6894v10.6836h10.6884.0005 10.6888v10.6891h-10.6888-.0005-10.6884v10.6881h-10.6894v-10.6881-.0009-10.6827-.0055zm42.7566 96.1923h-10.6887v-10.683-.006-10.684h10.6887.001v-.004h-10.6897v-10.689h10.6897v.005h10.689v10.689 10.683.006 10.683h-10.689zm-21.3783-32.061h10.6888v-10.689h-10.6893v10.684h-10.6884-.0005-10.6889v10.689h10.6889.0005 10.6889zm-10.6894-10.693h10.6894v-10.684-.005-10.684h-10.6894v10.684.005zm138.9627-117.579875h10.688.001 10.689v10.689075h-10.689-.001-10.688zm32.067 10.693575h-10.688v10.6891h10.688v10.6836h10.689.001 10.689v-10.6836-.0055-10.6836h-10.689-.001-10.688zm32.069 21.3772h-10.69v10.6891h10.689v10.6836h10.69v-10.6836h10.689v-10.6891h-10.69v10.6836h-10.688zm21.378 21.3772h-10.69v10.6891h10.69zm-64.135 96.2029h10.688.001 10.688.001 10.689v-10.69h-10.689-.001-10.688-.001-10.688zm32.067-32.067v10.684.005 10.684h10.689.001 10.688.001 10.689v-10.684-.005-10.684h-10.69v10.684h-10.688v-10.684zm21.379-.004h-10.69v-10.689h10.689v-10.684h10.69v10.689h-10.689zm-171.03-117.579875h-10.689-.001-10.6887v10.689075h10.6887.001 10.689zm-32.0683 10.693575h10.6888v10.6891h-10.6888v10.6836h-10.6889-.0005-10.6889v-10.6836-.0055-10.6836h10.6889.0005 10.6884zm-32.0684 21.3772h10.6893v10.6891h-10.6889v10.6836h-10.6893v-10.6836h-10.6889v-10.6891h10.6893v10.6836h10.6885zm-21.3778 21.3772h10.6893v10.6891h-10.6893zm10.6893 10.6936h-10.6893v10.6836.0055 10.6827.0009 10.6881h10.6893v-10.6881h10.6885.0004 10.6889v-10.6891h-10.6889-.0004-10.6885zm53.4457 85.5093h-10.6888-.0005-10.6884-.0005-10.6889v-10.69h10.6889.0005 10.6884.0005 10.6888zm-32.0679-32.067v10.684.005 10.684h-10.6889-.0004-10.6885-.0004-10.6889v-10.684-.005-10.684h10.6893v10.684h10.6885v-10.684zm-21.3782-.004h10.6893v-10.689h-10.6889v-10.684h-10.6893v10.689h10.6889zm235.1666-106.8863h-10.69v10.6836.0055 10.6836h10.689.001 10.688.001 10.689v-10.6891h-10.689-.001-10.688zm21.378 21.3772h10.69v10.6836h10.689v10.6891h-10.689-.001-10.689v-10.6836-.0055zm32.069 21.3772h-10.69v10.6891h10.69zm-10.69 10.6936h10.69v10.6891h-.001v10.6827h.001v10.689h-10.69v-10.6881h-10.689v-10.6891h10.689zm-53.447 85.5093h10.69v-10.69h-10.69zm42.758-21.378h-10.69v-10.689h10.69zm-10.69-10.693h10.689.001 10.689v-10.689h-10.689-.001-10.689zm21.379-10.684h10.69v-10.689h-10.69zm-267.2347-96.2023h10.6893v10.6836.0055 10.6836h-10.6889-.0004-10.6885-.0004-10.6889v-10.6891h10.6889.0004 10.6885zm-21.3786 21.3772h-10.6894v10.6836h-10.6888v10.6891h10.6888.0005 10.6889v-10.6836-.0055zm-32.0683792 21.3772h10.6893792v10.6891h-10.6893792zm10.6893792 10.6936h-10.6893792v10.6836.0055 10.6827l-.0000005.0009.0000005 10.6881h10.6893792v-10.6881-.0009-10.6827-.0055zm53.4469 85.5093h-10.6893v-10.69h10.6893zm-42.7573-21.378h10.6894v-10.689h-10.6894zm10.6894-10.693h-10.6889-.0005-10.6888v-10.689h10.6888.0005 10.6889zm-21.379-10.684h-10.6893792v-10.689h10.6893792zm149.6523 42.75v-10.684-.005-10.684h10.689v10.684.005 10.684zm10.689-32.066h-10.689v10.689h10.689zm-10.689-85.5091h10.689v10.6891h-10.689zm-53.447 53.4435v-10.6891h-10.6897v10.6891zm-74.8263 0v-10.6891h-10.6889-.0005-10.6888v10.6891h10.6888.0005z" fill-rule="evenodd"/><path d="m173.771 101.728v-41.4624h37.317v7.7002l-4.147 4.1462h-20.139v5.3309h17.178v11.8464h-17.178v12.4387z"/><path d="m124.614 101.728v-41.4624h13.032v14.808h17.77v-14.808h13.031v41.4624h-13.031v-14.8079h-17.77v14.8079z"/></g></svg>