<svg fill="none" height="300" viewBox="0 0 621 300" width="621" xmlns="http://www.w3.org/2000/svg"><g fill="#f2f4f7"><path d="m320.972 280h20v20h-20z"/><path d="m340.972 280h20v20h-20z"/><path d="m340.972 260h20v20h-20z"/><path d="m360.972 240h20v20h-20z"/><path d="m360.972 220h20v20h-20z"/><path d="m0 0h20v20h-20z" transform="matrix(1 0 0 -1 320.972 20)"/><path d="m0 0h20v20h-20z" transform="matrix(1 0 0 -1 340.972 20)"/><path d="m0 0h20v20h-20z" transform="matrix(1 0 0 -1 340.972 40)"/><path d="m0 0h20v20h-20z" transform="matrix(1 0 0 -1 360.972 60)"/><path d="m0 0h20v20h-20z" transform="matrix(1 0 0 -1 360.972 80)"/><path d="m0 0h20v20h-20z" transform="matrix(-1 0 0 1 300.972 280)"/><path d="m0 0h20v20h-20z" transform="matrix(-1 0 0 1 280.972 280)"/><path d="m0 0h20v20h-20z" transform="matrix(-1 0 0 1 280.972 260)"/><path d="m0 0h20v20h-20z" transform="matrix(-1 0 0 1 260.972 240)"/><path d="m0 0h20v20h-20z" transform="matrix(-1 0 0 1 260.972 220)"/><path d="m300.972 20h20v20h-20z" transform="matrix(-1 0 -0 -1 601.944 40)"/><path d="m280.972 20h20v20h-20z" transform="matrix(-1 0 -0 -1 561.944 40)"/><path d="m280.972 40h20v20h-20z" transform="matrix(-1 0 -0 -1 561.944 80)"/><path d="m260.972 60h20v20h-20z" transform="matrix(-1 0 -0 -1 521.944 120)"/><path d="m260.972 80h20v20h-20z" transform="matrix(-1 0 -0 -1 521.944 160)"/><path d="m360.972 0h20v20h-20z"/><path d="m380.972 20h20v20h-20z"/><path d="m400.972 20h20v20h-20z"/><path d="m420.972 40h20v20h-20z"/><path d="m440.972 60h20v20h-20z"/><path d="m460.972 80h20v20h-20z"/><path d="m460.972 100h20v20h-20z"/><path d="m480.972 120h20v20h-20z"/><path d="m0 0h20v20h-20z" transform="matrix(1 0 0 -1 360.972 300)"/><path d="m0 0h20v20h-20z" transform="matrix(1 0 0 -1 380.972 280)"/><path d="m0 0h20v20h-20z" transform="matrix(1 0 0 -1 400.972 280)"/><path d="m0 0h20v20h-20z" transform="matrix(1 0 0 -1 420.972 260)"/><path d="m0 0h20v20h-20z" transform="matrix(1 0 0 -1 440.972 240)"/><path d="m0 0h20v20h-20z" transform="matrix(1 0 0 -1 460.972 220)"/><path d="m0 0h20v20h-20z" transform="matrix(1 0 0 -1 460.972 200)"/><path d="m0 0h20v20h-20z" transform="matrix(1 0 0 -1 480.972 180)"/><path d="m0 0h20v20h-20z" transform="matrix(-1 0 0 1 260.972 0)"/><path d="m0 0h20v20h-20z" transform="matrix(-1 0 0 1 240.972 20)"/><path d="m0 0h20v20h-20z" transform="matrix(-1 0 0 1 220.972 20)"/><path d="m0 0h20v20h-20z" transform="matrix(-1 0 0 1 200.972 40)"/><path d="m0 0h20v20h-20z" transform="matrix(-1 0 0 1 180.972 60)"/><path d="m0 0h20v20h-20z" transform="matrix(-1 0 0 1 160.972 80)"/><path d="m0 0h20v20h-20z" transform="matrix(-1 0 0 1 160.972 100)"/><path d="m0 0h20v20h-20z" transform="matrix(-1 0 0 1 140.972 120)"/><path d="m260.972 300h20v20h-20z" transform="matrix(-1 0 -0 -1 521.944 600)"/><path d="m240.972 280h20v20h-20z" transform="matrix(-1 0 -0 -1 481.944 560)"/><path d="m220.972 280h20v20h-20z" transform="matrix(-1 0 -0 -1 441.944 560)"/><path d="m200.972 260h20v20h-20z" transform="matrix(-1 0 -0 -1 401.944 520)"/><path d="m180.972 240h20v20h-20z" transform="matrix(-1 0 -0 -1 361.944 480)"/><path d="m160.972 220h20v20h-20z" transform="matrix(-1 0 -0 -1 321.944 440)"/><path d="m160.972 200h20v20h-20z" transform="matrix(-1 0 -0 -1 321.944 400)"/><path d="m140.972 180h20v20h-20z" transform="matrix(-1 0 -0 -1 281.944 360)"/><path d="m400.972 0h20v20h-20z"/><path d="m420.972 20h20v20h-20z"/><path d="m420.972 0h20v20h-20z"/><path d="m440.972 20h20v20h-20z"/><path d="m460.972 40h20v20h-20z"/><path d="m460.972 20h20v20h-20z"/><path d="m480.972 40h20v20h-20z"/><path d="m500.972 60h20v20h-20z"/><path d="m520.972 80h20v20h-20z"/><path d="m540.972 100h20v20h-20z"/><path d="m540.972 120h20v20h-20z"/><path d="m380.972 0h20v20h-20z"/><path d="m0 0h20v20h-20z" transform="matrix(1 0 0 -1 400.972 300)"/><path d="m0 0h20v20h-20z" transform="matrix(1 0 0 -1 380.972 300)"/><path d="m0 0h20v20h-20z" transform="matrix(1 0 0 -1 420.972 280)"/><path d="m0 0h20v20h-20z" transform="matrix(1 0 0 -1 420.972 300)"/><path d="m0 0h20v20h-20z" transform="matrix(1 0 0 -1 440.972 280)"/><path d="m0 0h20v20h-20z" transform="matrix(1 0 0 -1 460.972 260)"/><path d="m0 0h20v20h-20z" transform="matrix(1 0 0 -1 460.972 280)"/><path d="m0 0h20v20h-20z" transform="matrix(1 0 0 -1 480.972 260)"/><path d="m0 0h20v20h-20z" transform="matrix(1 0 0 -1 500.972 240)"/><path d="m0 0h20v20h-20z" transform="matrix(1 0 0 -1 520.972 220)"/><path d="m0 0h20v20h-20z" transform="matrix(1 0 0 -1 540.972 200)"/><path d="m0 0h20v20h-20z" transform="matrix(1 0 0 -1 540.972 180)"/><path d="m0 0h20v20h-20z" transform="matrix(-1 0 0 1 220.972 0)"/><path d="m0 0h20v20h-20z" transform="matrix(-1 0 0 1 200.972 20)"/><path d="m0 0h20v20h-20z" transform="matrix(-1 0 0 1 200.972 0)"/><path d="m0 0h20v20h-20z" transform="matrix(-1 0 0 1 180.972 20)"/><path d="m0 0h20v20h-20z" transform="matrix(-1 0 0 1 160.972 40)"/><path d="m0 0h20v20h-20z" transform="matrix(-1 0 0 1 160.972 20)"/><path d="m0 0h20v20h-20z" transform="matrix(-1 0 0 1 140.972 40)"/><path d="m0 0h20v20h-20z" transform="matrix(-1 0 0 1 120.972 60)"/><path d="m0 0h20v20h-20z" transform="matrix(-1 0 0 1 100.972 80)"/><path d="m0 0h20v20h-20z" transform="matrix(-1 0 0 1 80.9717 100)"/><path d="m0 0h20v20h-20z" transform="matrix(-1 0 0 1 80.9717 120)"/><path d="m0 0h20v20h-20z" transform="matrix(-1 0 0 1 240.972 0)"/><path d="m220.972 300h20v20h-20z" transform="matrix(-1 0 -0 -1 441.944 600)"/><path d="m240.972 300h20v20h-20z" transform="matrix(-1 0 -0 -1 481.944 600)"/><path d="m200.972 280h20v20h-20z" transform="matrix(-1 0 -0 -1 401.944 560)"/><path d="m200.972 300h20v20h-20z" transform="matrix(-1 0 -0 -1 401.944 600)"/><path d="m180.972 280h20v20h-20z" transform="matrix(-1 0 -0 -1 361.944 560)"/><path d="m160.972 260h20v20h-20z" transform="matrix(-1 0 -0 -1 321.944 520)"/><path d="m160.972 280h20v20h-20z" transform="matrix(-1 0 -0 -1 321.944 560)"/><path d="m140.972 260h20v20h-20z" transform="matrix(-1 0 -0 -1 281.944 520)"/><path d="m120.972 240h20v20h-20z" transform="matrix(-1 0 -0 -1 241.944 480)"/><path d="m100.972 220h20v20h-20z" transform="matrix(-1 0 -0 -1 201.944 440)"/><path d="m80.9717 200h20v20h-20z" transform="matrix(-1 0 -0 -1 161.9434 400)"/><path d="m80.9717 180h20v20h-20z" transform="matrix(-1 0 -0 -1 161.9434 360)"/><path d="m480.972 20h20v20h-20z"/><path d="m500.972 20h20v20h-20z"/><path d="m500.972 40h20v20h-20z"/><path d="m520.972 40h20v20h-20z"/><path d="m540.972 40h20v20h-20z"/><path d="m540.972 60h20v20h-20z"/><path d="m560.972 60h20v20h-20z"/><path d="m560.972 80h20v20h-20z"/><path d="m580.972 80h20v20h-20z"/><path d="m600.972 100h20v20h-20z"/><path d="m600.972 120h20v20h-20z"/><path d="m0 0h20v20h-20z" transform="matrix(1 0 0 -1 480.972 280)"/><path d="m0 0h20v20h-20z" transform="matrix(1 0 0 -1 500.972 280)"/><path d="m0 0h20v20h-20z" transform="matrix(1 0 0 -1 500.972 260)"/><path d="m0 0h20v20h-20z" transform="matrix(1 0 0 -1 520.972 260)"/><path d="m0 0h20v20h-20z" transform="matrix(1 0 0 -1 540.972 260)"/><path d="m0 0h20v20h-20z" transform="matrix(1 0 0 -1 540.972 240)"/><path d="m0 0h20v20h-20z" transform="matrix(1 0 0 -1 560.972 240)"/><path d="m0 0h20v20h-20z" transform="matrix(1 0 0 -1 560.972 220)"/><path d="m0 0h20v20h-20z" transform="matrix(1 0 0 -1 580.972 220)"/><path d="m0 0h20v20h-20z" transform="matrix(1 0 0 -1 600.972 200)"/><path d="m0 0h20v20h-20z" transform="matrix(1 0 0 -1 600.972 180)"/><path d="m0 0h20v20h-20z" transform="matrix(-1 0 0 1 140.972 20)"/><path d="m0 0h20v20h-20z" transform="matrix(-1 0 0 1 120.972 20)"/><path d="m0 0h20v20h-20z" transform="matrix(-1 0 0 1 120.972 40)"/><path d="m0 0h20v20h-20z" transform="matrix(-1 0 0 1 100.972 40)"/><path d="m0 0h20v20h-20z" transform="matrix(-1 0 0 1 80.9717 40)"/><path d="m0 0h20v20h-20z" transform="matrix(-1 0 0 1 80.9717 60)"/><path d="m0 0h20v20h-20z" transform="matrix(-1 0 0 1 60.9717 60)"/><path d="m0 0h20v20h-20z" transform="matrix(-1 0 0 1 60.9717 80)"/><path d="m0 0h20v20h-20z" transform="matrix(-1 0 0 1 40.9717 80)"/><path d="m0 0h20v20h-20z" transform="matrix(-1 0 0 1 20.9717 100)"/><path d="m0 0h20v20h-20z" transform="matrix(-1 0 0 1 20.9717 120)"/><path d="m140.972 280h20v20h-20z" transform="matrix(-1 0 -0 -1 281.944 560)"/><path d="m120.972 280h20v20h-20z" transform="matrix(-1 0 -0 -1 241.944 560)"/><path d="m120.972 260h20v20h-20z" transform="matrix(-1 0 -0 -1 241.944 520)"/><path d="m100.972 260h20v20h-20z" transform="matrix(-1 0 -0 -1 201.944 520)"/><path d="m80.9717 260h20v20h-20z" transform="matrix(-1 0 -0 -1 161.9434 520)"/><path d="m80.9717 240h20v20h-20z" transform="matrix(-1 0 -0 -1 161.9434 480)"/><path d="m60.9717 240h20v20h-20z" transform="matrix(-1 0 -0 -1 121.9434 480)"/><path d="m60.9717 220h20v20h-20z" transform="matrix(-1 0 -0 -1 121.9434 440)"/><path d="m40.9717 220h20v20h-20z" transform="matrix(-1 0 -0 -1 81.9434 440)"/><path d="m20.9717 200h20v20h-20z" transform="matrix(-1 0 -0 -1 41.9434 400)"/><path d="m20.9717 180h20v20h-20z" transform="matrix(-1 0 -0 -1 41.9434 360)"/><path d="m300.972 260h20v20h-20z"/><path d="m300.972 220h20v20h-20z"/><path d="m300.972 40h20v20h-20z"/><path d="m300.972 0h20v20h-20z"/><path d="m300.972 280h20v20h-20z"/><path d="m300.972 240h20v20h-20z"/><path d="m300.972 60h20v20h-20z"/><path d="m300.972 20h20v20h-20z"/><path d="m120.972 140h20v20h-20z" transform="matrix(0 1 -1 0 260.972 19.028)"/><path d="m80.9717 140h20v20h-20z" transform="matrix(0 1 -1 0 220.9717 59.0283)"/><path d="m500.972 140h20v20h-20z" transform="matrix(0 1 -1 0 640.972 -360.972)"/><path d="m160.972 140h20v20h-20z" transform="matrix(0 1 -1 0 300.972 -20.972)"/><path d="m540.972 140h20v20h-20z" transform="matrix(0 1 -1 0 680.972 -400.972)"/><path d="m460.972 140h20v20h-20z" transform="matrix(0 1 -1 0 600.972 -320.972)"/><path d="m580.972 140h20v20h-20z" transform="matrix(0 1 -1 0 720.972 -440.972)"/><path d="m600.972 140h20v20h-20z" transform="matrix(0 1 -1 0 740.972 -460.972)"/><path d="m620.972 140h20v20h-20z" transform="matrix(0 1 -1 0 760.972 -480.972)"/><path d="m200.972 140h20v20h-20z" transform="matrix(0 1 -1 0 340.972 -60.972)"/><path d="m100.972 140h20v20h-20z" transform="matrix(0 1 -1 0 240.972 39.028)"/><path d="m60.9717 140h20v20h-20z" transform="matrix(0 1 -1 0 200.9717 79.0283)"/><path d="m40.9717 140h20v20h-20z" transform="matrix(0 1 -1 0 180.9717 99.0283)"/><path d="m20.9717 140h20v20h-20z" transform="matrix(0 1 -1 0 160.9717 119.0283)"/><path d="m180.972 140h20v20h-20z" transform="matrix(0 1 -1 0 320.972 -40.972)"/><path d="m480.972 140h20v20h-20z" transform="matrix(0 1 -1 0 620.972 -340.972)"/><path d="m140.972 140h20v20h-20z" transform="matrix(0 1 -1 0 280.972 -.972)"/><path d="m520.972 140h20v20h-20z" transform="matrix(0 1 -1 0 660.972 -380.972)"/><path d="m440.972 140h20v20h-20z" transform="matrix(0 1 -1 0 580.972 -300.972)"/><path d="m560.972 140h20v20h-20z" transform="matrix(0 1 -1 0 700.972 -420.972)"/><path d="m200.972 240h20v20h-20z"/><path d="m400.972 240h20v20h-20z"/><path d="m0 0h20v20h-20z" transform="matrix(1 0 0 -1 200.972 60)"/><path d="m0 0h20v20h-20z" transform="matrix(1 0 0 -1 400.972 60)"/><path d="m326.047 188.79v-77.579h69.821v14.407l-7.758 7.758h-37.681v9.975h32.14v22.165h-32.14v23.274z"/><path d="m234.074 188.79v-77.579h24.382v27.707h33.248v-27.707h24.382v77.579h-24.382v-27.707h-33.248v27.707z"/></g></svg>