<svg fill="none" height="301" viewBox="0 0 620 301" width="620" xmlns="http://www.w3.org/2000/svg"><path d="m320 280.531h20v20h-20z" fill="#a0a0ff"/><path d="m340 280.531h20v20h-20z" fill="#a0a0ff"/><path d="m340 260.531h20v20h-20z" fill="#5a5ab5"/><path d="m359.999 240.531h20v20h-20z" fill="#a0a0ff"/><path d="m359.999 220.531h20v20h-20z" fill="#5a5ab5"/><path d="m0 0h20v20h-20z" fill="#a0a0ff" transform="matrix(1 0 0 -1 320 20.5312)"/><path d="m0 0h20v20h-20z" fill="#a0a0ff" transform="matrix(1 0 0 -1 340 20.5312)"/><path d="m0 0h20v20h-20z" fill="#5a5ab5" transform="matrix(1 0 0 -1 340 40.5312)"/><path d="m0 0h20v20h-20z" fill="#a0a0ff" transform="matrix(1 0 0 -1 359.999 60.5312)"/><path d="m0 0h20v20h-20z" fill="#5a5ab5" transform="matrix(1 0 0 -1 359.999 80.5312)"/><path d="m0 0h20v20h-20z" fill="#a0a0ff" transform="matrix(-1 0 0 1 300.001 280.531)"/><path d="m0 0h20v20h-20z" fill="#a0a0ff" transform="matrix(-1 0 0 1 280.002 280.531)"/><path d="m0 0h20v20h-20z" fill="#5a5ab5" transform="matrix(-1 0 0 1 280.002 260.531)"/><path d="m0 0h20v20h-20z" fill="#a0a0ff" transform="matrix(-1 0 0 1 260.003 240.531)"/><path d="m0 0h20v20h-20z" fill="#5a5ab5" transform="matrix(-1 0 0 1 260.003 220.531)"/><path d="m300.001 20.5312h20v20h-20z" fill="#a0a0ff" transform="matrix(-1 0 -0 -1 600.002 41.0624)"/><path d="m280.002 20.5312h20v20h-20z" fill="#a0a0ff" transform="matrix(-1 0 -0 -1 560.004 41.0624)"/><path d="m280.002 40.5312h20v20h-20z" fill="#5a5ab5" transform="matrix(-1 0 -0 -1 560.004 81.0624)"/><path d="m260.003 60.5312h20v20h-20z" fill="#a0a0ff" transform="matrix(-1 0 -0 -1 520.006 121.0624)"/><path d="m260.003 80.5312h20v20h-20z" fill="#5a5ab5" transform="matrix(-1 0 -0 -1 520.006 161.0624)"/><path d="m359.999.53125h20v20h-20z" fill="#5a5ab5"/><path d="m380.002 20.5312h20v20h-20z" fill="#a0a0ff"/><g fill="#5a5ab5"><path d="m400.002 20.5312h20v20h-20z"/><path d="m420.001 40.5312h20v20h-20z"/><path d="m440 60.5312h20v20h-20z"/><path d="m459.999 80.5312h20v20h-20z"/><path d="m459.999 100.531h20v20h-20z"/><path d="m480.003 120.539h20v20h-20z"/><path d="m0 0h20v20h-20z" transform="matrix(1 0 0 -1 359.999 300.531)"/></g><path d="m0 0h20v20h-20z" fill="#a0a0ff" transform="matrix(1 0 0 -1 380.002 280.531)"/><path d="m0 0h20v20h-20z" fill="#5a5ab5" transform="matrix(1 0 0 -1 400.002 280.531)"/><path d="m0 0h20v20h-20z" fill="#5a5ab5" transform="matrix(1 0 0 -1 420.001 260.531)"/><path d="m0 0h20v20h-20z" fill="#5a5ab5" transform="matrix(1 0 0 -1 440 240.531)"/><path d="m0 0h20v20h-20z" fill="#5a5ab5" transform="matrix(1 0 0 -1 459.999 220.531)"/><path d="m0 0h20v20h-20z" fill="#5a5ab5" transform="matrix(1 0 0 -1 459.999 200.531)"/><path d="m0 0h20v20h-20z" fill="#5a5ab5" transform="matrix(1 0 0 -1 480.003 180.531)"/><path d="m0 0h20v20h-20z" fill="#5a5ab5" transform="matrix(-1 0 0 1 260.003 .53125)"/><path d="m0 0h20v20h-20z" fill="#a0a0ff" transform="matrix(-1 0 0 1 239.999 20.5312)"/><path d="m0 0h20v20h-20z" fill="#5a5ab5" transform="matrix(-1 0 0 1 220 20.5312)"/><path d="m0 0h20v20h-20z" fill="#5a5ab5" transform="matrix(-1 0 0 1 200.001 40.5312)"/><path d="m0 0h20v20h-20z" fill="#5a5ab5" transform="matrix(-1 0 0 1 180.002 60.5312)"/><path d="m0 0h20v20h-20z" fill="#5a5ab5" transform="matrix(-1 0 0 1 160.003 80.5312)"/><path d="m0 0h20v20h-20z" fill="#5a5ab5" transform="matrix(-1 0 0 1 160.003 100.531)"/><path d="m0 0h20v20h-20z" fill="#5a5ab5" transform="matrix(-1 0 0 1 139.999 120.539)"/><path d="m260.003 300.531h20v20h-20z" fill="#5a5ab5" transform="matrix(-1 0 -0 -1 520.006 601.062)"/><path d="m239.999 280.531h20v20h-20z" fill="#a0a0ff" transform="matrix(-1 0 -0 -1 479.998 561.062)"/><path d="m220 280.531h20v20h-20z" fill="#5a5ab5" transform="matrix(-1 0 -0 -1 440 561.062)"/><path d="m200.001 260.531h20v20h-20z" fill="#5a5ab5" transform="matrix(-1 0 -0 -1 400.002 521.062)"/><path d="m180.002 240.531h20v20h-20z" fill="#5a5ab5" transform="matrix(-1 0 -0 -1 360.004 481.062)"/><path d="m160.003 220.531h20v20h-20z" fill="#5a5ab5" transform="matrix(-1 0 -0 -1 320.006 441.062)"/><path d="m160.003 200.531h20v20h-20z" fill="#5a5ab5" transform="matrix(-1 0 -0 -1 320.006 401.062)"/><path d="m139.999 180.531h20v20h-20z" fill="#5a5ab5" transform="matrix(-1 0 -0 -1 279.998 361.062)"/><path d="m400.002.53125h20v20h-20z" fill="#a0a0ff"/><path d="m420.001 20.5312h20v20h-20z" fill="#a0a0ff"/><path d="m420.001.53125h20v20h-20z" fill="#5a5ab5"/><path d="m440 20.5312h20v20h-20z" fill="#5a5ab5"/><path d="m459.999 40.5312h20v20h-20z" fill="#5a5ab5"/><path d="m459.999 20.5312h20v20h-20z" fill="#a0a0ff"/><path d="m480.003 40.5312h20v20h-20z" fill="#a0a0ff"/><path d="m500.002 60.5312h20v20h-20z" fill="#5a5ab5"/><path d="m520.001 80.5312h20v20h-20z" fill="#5a5ab5"/><path d="m540 100.531h20v20h-20z" fill="#5a5ab5"/><path d="m540 120.539h20v20h-20z" fill="#a0a0ff"/><path d="m380.002.53125h20v20h-20z" fill="#a0a0ff"/><path d="m0 0h20v20h-20z" fill="#a0a0ff" transform="matrix(1 0 0 -1 400.002 300.531)"/><path d="m0 0h20v20h-20z" fill="#a0a0ff" transform="matrix(1 0 0 -1 380.002 300.531)"/><path d="m0 0h20v20h-20z" fill="#a0a0ff" transform="matrix(1 0 0 -1 420.001 280.531)"/><path d="m0 0h20v20h-20z" fill="#5a5ab5" transform="matrix(1 0 0 -1 420.001 300.531)"/><path d="m0 0h20v20h-20z" fill="#5a5ab5" transform="matrix(1 0 0 -1 440 280.531)"/><path d="m0 0h20v20h-20z" fill="#5a5ab5" transform="matrix(1 0 0 -1 459.999 260.531)"/><path d="m0 0h20v20h-20z" fill="#a0a0ff" transform="matrix(1 0 0 -1 459.999 280.531)"/><path d="m0 0h20v20h-20z" fill="#a0a0ff" transform="matrix(1 0 0 -1 480.003 260.531)"/><path d="m0 0h20v20h-20z" fill="#5a5ab5" transform="matrix(1 0 0 -1 500.002 240.531)"/><path d="m0 0h20v20h-20z" fill="#5a5ab5" transform="matrix(1 0 0 -1 520.001 220.531)"/><path d="m0 0h20v20h-20z" fill="#5a5ab5" transform="matrix(1 0 0 -1 540 200.531)"/><path d="m0 0h20v20h-20z" fill="#a0a0ff" transform="matrix(1 0 0 -1 540 180.531)"/><path d="m0 0h20v20h-20z" fill="#a0a0ff" transform="matrix(-1 0 0 1 220 .53125)"/><path d="m0 0h20v20h-20z" fill="#a0a0ff" transform="matrix(-1 0 0 1 200.001 20.5312)"/><path d="m0 0h20v20h-20z" fill="#5a5ab5" transform="matrix(-1 0 0 1 200.001 .53125)"/><path d="m0 0h20v20h-20z" fill="#5a5ab5" transform="matrix(-1 0 0 1 180.002 20.5312)"/><path d="m0 0h20v20h-20z" fill="#5a5ab5" transform="matrix(-1 0 0 1 160.003 40.5312)"/><path d="m0 0h20v20h-20z" fill="#a0a0ff" transform="matrix(-1 0 0 1 160.003 20.5312)"/><path d="m0 0h20v20h-20z" fill="#a0a0ff" transform="matrix(-1 0 0 1 139.999 40.5312)"/><path d="m0 0h20v20h-20z" fill="#5a5ab5" transform="matrix(-1 0 0 1 120 60.5312)"/><path d="m0 0h20v20h-20z" fill="#5a5ab5" transform="matrix(-1 0 0 1 100.001 80.5312)"/><path d="m0 0h20v20h-20z" fill="#5a5ab5" transform="matrix(-1 0 0 1 80.002 100.531)"/><path d="m0 0h20v20h-20z" fill="#a0a0ff" transform="matrix(-1 0 0 1 80.002 120.539)"/><path d="m0 0h20v20h-20z" fill="#a0a0ff" transform="matrix(-1 0 0 1 239.999 .53125)"/><path d="m220 300.531h20v20h-20z" fill="#a0a0ff" transform="matrix(-1 0 -0 -1 440 601.062)"/><path d="m239.999 300.531h20v20h-20z" fill="#a0a0ff" transform="matrix(-1 0 -0 -1 479.998 601.062)"/><path d="m200.001 280.531h20v20h-20z" fill="#a0a0ff" transform="matrix(-1 0 -0 -1 400.002 561.062)"/><path d="m200.001 300.531h20v20h-20z" fill="#5a5ab5" transform="matrix(-1 0 -0 -1 400.002 601.062)"/><path d="m180.002 280.531h20v20h-20z" fill="#5a5ab5" transform="matrix(-1 0 -0 -1 360.004 561.062)"/><path d="m160.003 260.531h20v20h-20z" fill="#5a5ab5" transform="matrix(-1 0 -0 -1 320.006 521.062)"/><path d="m160.003 280.531h20v20h-20z" fill="#a0a0ff" transform="matrix(-1 0 -0 -1 320.006 561.062)"/><path d="m139.999 260.531h20v20h-20z" fill="#a0a0ff" transform="matrix(-1 0 -0 -1 279.998 521.062)"/><path d="m120 240.531h20v20h-20z" fill="#5a5ab5" transform="matrix(-1 0 -0 -1 240 481.062)"/><path d="m100.001 220.531h20v20h-20z" fill="#5a5ab5" transform="matrix(-1 0 -0 -1 200.002 441.062)"/><path d="m80.002 200.531h20v20h-20z" fill="#5a5ab5" transform="matrix(-1 0 -0 -1 160.004 401.062)"/><path d="m80.002 180.531h20v20h-20z" fill="#a0a0ff" transform="matrix(-1 0 -0 -1 160.004 361.062)"/><path d="m480.003 20.5312h20v20h-20z" fill="#5a5ab5"/><path d="m500.002 20.5312h20v20h-20z" fill="#5a5ab5"/><path d="m500.002 40.5312h20v20h-20z" fill="#a0a0ff"/><path d="m520.001 40.5312h20v20h-20z" fill="#5a5ab5"/><path d="m540 40.5312h20v20h-20z" fill="#5a5ab5"/><path d="m540 60.5312h20v20h-20z" fill="#a0a0ff"/><path d="m559.999 60.5312h20v20h-20z" fill="#5a5ab5"/><path d="m559.999 80.5312h20v20h-20z" fill="#a0a0ff"/><path d="m580.003 80.5312h20v20h-20z" fill="#5a5ab5"/><path d="m600.002 100.531h20v20h-20z" fill="#5a5ab5"/><path d="m600.002 120.539h20v20h-20z" fill="#5a5ab5"/><path d="m0 0h20v20h-20z" fill="#5a5ab5" transform="matrix(1 0 0 -1 480.003 280.531)"/><path d="m0 0h20v20h-20z" fill="#5a5ab5" transform="matrix(1 0 0 -1 500.002 280.531)"/><path d="m0 0h20v20h-20z" fill="#a0a0ff" transform="matrix(1 0 0 -1 500.002 260.531)"/><path d="m0 0h20v20h-20z" fill="#5a5ab5" transform="matrix(1 0 0 -1 520.001 260.531)"/><path d="m0 0h20v20h-20z" fill="#5a5ab5" transform="matrix(1 0 0 -1 540 260.531)"/><path d="m0 0h20v20h-20z" fill="#a0a0ff" transform="matrix(1 0 0 -1 540 240.531)"/><path d="m0 0h20v20h-20z" fill="#5a5ab5" transform="matrix(1 0 0 -1 559.999 240.531)"/><path d="m0 0h20v20h-20z" fill="#a0a0ff" transform="matrix(1 0 0 -1 559.999 220.531)"/><path d="m0 0h20v20h-20z" fill="#5a5ab5" transform="matrix(1 0 0 -1 580.003 220.531)"/><path d="m0 0h20v20h-20z" fill="#5a5ab5" transform="matrix(1 0 0 -1 600.002 200.531)"/><path d="m0 0h20v20h-20z" fill="#5a5ab5" transform="matrix(1 0 0 -1 600.002 180.531)"/><path d="m0 0h20v20h-20z" fill="#5a5ab5" transform="matrix(-1 0 0 1 139.999 20.5312)"/><path d="m0 0h20v20h-20z" fill="#5a5ab5" transform="matrix(-1 0 0 1 120 20.5312)"/><path d="m0 0h20v20h-20z" fill="#a0a0ff" transform="matrix(-1 0 0 1 120 40.5312)"/><path d="m0 0h20v20h-20z" fill="#5a5ab5" transform="matrix(-1 0 0 1 100.001 40.5312)"/><path d="m0 0h20v20h-20z" fill="#5a5ab5" transform="matrix(-1 0 0 1 80.002 40.5312)"/><path d="m0 0h20v20h-20z" fill="#a0a0ff" transform="matrix(-1 0 0 1 80.002 60.5312)"/><path d="m0 0h20v20h-20z" fill="#5a5ab5" transform="matrix(-1 0 0 1 60.0029 60.5312)"/><path d="m0 0h20v20h-20z" fill="#a0a0ff" transform="matrix(-1 0 0 1 60.0029 80.5312)"/><path d="m0 0h20v20h-20z" fill="#5a5ab5" transform="matrix(-1 0 0 1 39.999 80.5312)"/><path d="m0 0h20v20h-20z" fill="#5a5ab5" transform="matrix(-1 0 0 1 20 100.531)"/><path d="m0 0h20v20h-20z" fill="#5a5ab5" transform="matrix(-1 0 0 1 20 120.539)"/><path d="m139.999 280.531h20v20h-20z" fill="#5a5ab5" transform="matrix(-1 0 -0 -1 279.998 561.062)"/><path d="m120 280.531h20v20h-20z" fill="#5a5ab5" transform="matrix(-1 0 -0 -1 240 561.062)"/><path d="m120 260.531h20v20h-20z" fill="#a0a0ff" transform="matrix(-1 0 -0 -1 240 521.062)"/><path d="m100.001 260.531h20v20h-20z" fill="#5a5ab5" transform="matrix(-1 0 -0 -1 200.002 521.062)"/><path d="m80.002 260.531h20v20h-20z" fill="#5a5ab5" transform="matrix(-1 0 -0 -1 160.004 521.062)"/><path d="m80.002 240.531h20v20h-20z" fill="#a0a0ff" transform="matrix(-1 0 -0 -1 160.004 481.062)"/><path d="m60.0029 240.531h20v20h-20z" fill="#5a5ab5" transform="matrix(-1 0 -0 -1 120.0058 481.062)"/><path d="m60.0029 220.531h20v20h-20z" fill="#a0a0ff" transform="matrix(-1 0 -0 -1 120.0058 441.062)"/><path d="m39.999 220.531h20v20h-20z" fill="#5a5ab5" transform="matrix(-1 0 -0 -1 79.998 441.062)"/><path d="m20 200.531h20v20h-20z" fill="#5a5ab5" transform="matrix(-1 0 -0 -1 40 401.062)"/><path d="m20 180.531h20v20h-20z" fill="#5a5ab5" transform="matrix(-1 0 -0 -1 40 361.062)"/><path d="m300.001 260.531h20v20h-20z" fill="#a0a0ff"/><path d="m300.001 220.531h20v20h-20z" fill="#a0a0ff"/><path d="m300.001 40.5312h20v20h-20z" fill="#5a5ab5"/><path d="m300.001.53125h20v20h-20z" fill="#5a5ab5"/><path d="m300.001 280.531h20v20h-20z" fill="#5a5ab5"/><path d="m300.001 240.531h20v20h-20z" fill="#5a5ab5"/><path d="m300.001 60.5312h20v20h-20z" fill="#a0a0ff"/><path d="m300.001 20.5312h20v20h-20z" fill="#a0a0ff"/><path d="m120 140.531h20v20h-20z" fill="#5a5ab5" transform="matrix(0 1 -1 0 260.531 20.531)"/><path d="m80.002 140.531h20v20h-20z" fill="#5a5ab5" transform="matrix(0 1 -1 0 220.533 60.529)"/><path d="m500.002 140.531h20v20h-20z" fill="#a0a0ff" transform="matrix(0 1 -1 0 640.533 -359.471)"/><path d="m160.003 140.531h20v20h-20z" fill="#5a5ab5" transform="matrix(0 1 -1 0 300.534 -19.472)"/><path d="m540 140.531h20v20h-20z" fill="#a0a0ff" transform="matrix(0 1 -1 0 680.531 -399.469)"/><path d="m459.999 140.531h20v20h-20z" fill="#a0a0ff" transform="matrix(0 1 -1 0 600.53 -319.468)"/><path d="m580.003 140.531h20v20h-20z" fill="#a0a0ff" transform="matrix(0 1 -1 0 720.534 -439.472)"/><path d="m600.002 140.531h20v20h-20z" fill="#5a5ab5" transform="matrix(0 1 -1 0 740.533 -459.471)"/><path d="m620.001 140.531h20v20h-20z" fill="#5a5ab5" transform="matrix(0 1 -1 0 760.532 -479.47)"/><path d="m200.001 140.531h20v20h-20z" fill="#5a5ab5" transform="matrix(0 1 -1 0 340.532 -59.47)"/><path d="m100.001 140.531h20v20h-20z" fill="#a0a0ff" transform="matrix(0 1 -1 0 240.532 40.53)"/><path d="m60.0029 140.531h20v20h-20z" fill="#a0a0ff" transform="matrix(0 1 -1 0 200.5339 80.5281)"/><path d="m39.999 140.531h20v20h-20z" fill="#5a5ab5" transform="matrix(0 1 -1 0 180.53 100.532)"/><path d="m20 140.531h20v20h-20z" fill="#5a5ab5" transform="matrix(0 1 -1 0 160.531 120.531)"/><path d="m180.002 140.531h20v20h-20z" fill="#a0a0ff" transform="matrix(0 1 -1 0 320.533 -39.471)"/><path d="m480.003 140.531h20v20h-20z" fill="#5a5ab5" transform="matrix(0 1 -1 0 620.534 -339.472)"/><path d="m139.999 140.531h20v20h-20z" fill="#a0a0ff" transform="matrix(0 1 -1 0 280.53 .532)"/><path d="m520.001 140.531h20v20h-20z" fill="#5a5ab5" transform="matrix(0 1 -1 0 660.532 -379.47)"/><path d="m440 140.531h20v20h-20z" fill="#5a5ab5" transform="matrix(0 1 -1 0 580.531 -299.469)"/><path d="m559.999 140.531h20v20h-20z" fill="#5a5ab5" transform="matrix(0 1 -1 0 700.53 -419.468)"/><path d="m200.001 240.531h20v20h-20z" fill="#a0a0ff"/><path d="m400.002 240.531h20v20h-20z" fill="#a0a0ff"/><path d="m0 0h20v20h-20z" fill="#a0a0ff" transform="matrix(1 0 0 -1 200.001 60.5312)"/><path d="m0 0h20v20h-20z" fill="#a0a0ff" transform="matrix(1 0 0 -1 400.002 60.5312)"/><path d="m325.071 189.321v-77.579h69.821v14.408l-7.757 7.758h-37.682v9.974h32.14v22.166h-32.14v23.273z" fill="#5a5ab5"/><path d="m233.101 189.321v-77.579h24.382v27.707h33.248v-27.707h24.382v77.579h-24.382v-27.707h-33.248v27.707z" fill="#5a5ab5"/></svg>