<svg fill="none" height="316" viewBox="0 0 800 316" width="800" xmlns="http://www.w3.org/2000/svg"><g fill="#1c1c3f"><path d="m781.046 313.84c-3.182 0-6.131-.796-8.845-2.387-2.715-1.591-4.914-3.744-6.599-6.458-1.591-2.715-2.387-5.71-2.387-8.986v-34.82h-8.565v-19.657h9.829l8.424-18.954h13.057v18.954h13.058v14.041l-5.055 5.616h-8.003v27.8c0 1.123.281 1.965.843 2.527.561.561 1.357.842 2.386.842h10.811v21.482z"/><path d="m696.31 313.839v-19.657h26.676c1.03 0 1.779-.234 2.247-.702.561-.561.842-1.263.842-2.106v-.842c0-.843-.281-1.498-.842-1.966-.468-.468-1.311-.889-2.528-1.263l-12.496-3.791c-3.088-1.03-5.662-2.2-7.722-3.51-1.965-1.404-3.51-3.136-4.633-5.195-1.03-2.153-1.544-4.68-1.544-7.582v-7.863c0-3.276.795-6.271 2.386-8.985 1.685-2.715 3.885-4.868 6.599-6.459 2.715-1.591 5.663-2.387 8.846-2.387h32.714v14.041l-5.055 5.616h-19.235c-1.03 0-1.825.234-2.387.702-.468.374-.702.982-.702 1.825v.702c0 .749.281 1.404.842 1.966.562.561 1.404.982 2.528 1.263l12.636 3.931c3.089.936 5.616 2.106 7.582 3.511 2.059 1.31 3.603 2.995 4.633 5.054s1.544 4.54 1.544 7.441v8.425c0 3.276-.795 6.271-2.386 8.985-1.592 2.715-3.745 4.868-6.459 6.459s-5.71 2.387-8.986 2.387z"/><path d="m646.156 313.844c-3.276 0-6.271-.795-8.985-2.387-2.715-1.591-4.868-3.744-6.459-6.458-1.591-2.715-2.387-5.71-2.387-8.986v-38.049c0-3.276.796-6.271 2.387-8.986 1.591-2.714 3.744-4.867 6.459-6.458 2.714-1.592 5.709-2.387 8.985-2.387h22.184c3.182 0 6.131.795 8.845 2.387 2.715 1.591 4.868 3.744 6.459 6.458 1.685 2.715 2.527 5.71 2.527 8.986v27.8h-35.101v6.037c0 1.123.281 1.966.843 2.527.561.562 1.357.843 2.387.843h28.501v18.673zm4.353-43.244h13.338v-8.705c0-1.123-.281-1.919-.842-2.387-.468-.561-1.264-.842-2.387-.842h-6.74c-1.123 0-1.965.281-2.527.842-.561.468-.842 1.264-.842 2.387z"/><path d="m581.74 232.691c0-3.277.796-6.272 2.387-8.986 1.591-2.715 3.744-4.868 6.459-6.459 2.714-1.591 5.709-2.387 8.985-2.387h25.975v19.657h-17.831c-1.03 0-1.826.281-2.387.842-.562.468-.843 1.264-.843 2.387v10.811h15.445v13.76l-2.668 5.896h-12.777v45.631h-22.745z"/><path d="m529.348 313.844v-72.307h14.321l3.229 7.722h.702c1.123-2.34 2.902-4.446 5.335-6.318 2.434-1.872 5.242-2.808 8.424-2.808h11.233v22.885h-16.568c-.936 0-1.685.188-2.246.562-.562.281-.983.702-1.264 1.264-.281.561-.421 1.31-.421 2.246v46.754z"/><path d="m477.509 313.844c-3.276 0-6.271-.795-8.986-2.387-2.714-1.591-4.867-3.744-6.458-6.458-1.592-2.715-2.387-5.71-2.387-8.986v-38.049c0-3.276.795-6.271 2.387-8.986 1.591-2.714 3.744-4.867 6.458-6.458 2.715-1.592 5.71-2.387 8.986-2.387h22.184c3.182 0 6.13.795 8.845 2.387 2.714 1.591 4.867 3.744 6.458 6.458 1.685 2.715 2.528 5.71 2.528 8.986v27.8h-35.101v6.037c0 1.123.281 1.966.842 2.527.562.562 1.358.843 2.387.843h28.502v18.673zm4.352-43.244h13.339v-8.705c0-1.123-.281-1.919-.843-2.387-.468-.561-1.263-.842-2.387-.842h-6.739c-1.123 0-1.966.281-2.527.842-.562.468-.843 1.264-.843 2.387z"/><path d="m389.92 313.853v-97.58h22.745v32.714h.702c1.03-2.246 2.715-4.259 5.055-6.037 2.433-1.872 5.241-2.808 8.424-2.808h4.212c3.276 0 6.224.749 8.845 2.246 2.621 1.498 4.68 3.604 6.178 6.318 1.591 2.621 2.387 5.523 2.387 8.705v38.611c0 3.276-.843 6.272-2.527 8.986-1.592 2.714-3.744 4.867-6.459 6.458-2.714 1.592-5.663 2.387-8.845 2.387zm32.995-21.06c1.123 0 1.918-.281 2.386-.842.562-.562.843-1.358.843-2.387v-25.132c0-1.124-.281-1.919-.843-2.387-.468-.562-1.263-.843-2.386-.843h-5.336c-1.31 0-2.34.188-3.089.562-.748.374-1.357.983-1.825 1.825-.374.749-.561 1.732-.561 2.949v26.255z"/><path d="m336.558 315.248c-3.276 0-6.272-.795-8.986-2.387-2.715-1.591-4.867-3.744-6.459-6.458-1.591-2.715-2.386-5.71-2.386-8.986v-39.453c0-3.276.795-6.271 2.386-8.986 1.592-2.714 3.744-4.867 6.459-6.458 2.714-1.592 5.71-2.387 8.986-2.387h22.885c3.183 0 6.131.795 8.846 2.387 2.714 1.591 4.867 3.744 6.458 6.458 1.685 2.715 2.528 5.71 2.528 8.986v39.453c0 3.276-.843 6.271-2.528 8.986-1.591 2.714-3.744 4.867-6.458 6.458-2.715 1.592-5.663 2.387-8.846 2.387zm15.163-21.06c1.123 0 1.919-.281 2.387-.843.562-.561.842-1.357.842-2.386v-26.537c0-1.123-.28-1.918-.842-2.386-.468-.562-1.264-.843-2.387-.843h-7.441c-1.123 0-1.966.281-2.527.843-.562.468-.843 1.263-.843 2.386v26.537c0 1.029.281 1.825.843 2.386.561.562 1.404.843 2.527.843z"/><path d="m291.281 313.84c-3.182 0-6.13-.796-8.845-2.387-2.714-1.591-4.914-3.744-6.599-6.458-1.591-2.715-2.387-5.71-2.387-8.986v-34.82h-8.564v-19.657h9.828l8.424-18.954h13.058v18.954h13.057v14.041l-5.055 5.616h-8.002v27.8c0 1.123.28 1.965.842 2.527.562.561 1.357.842 2.387.842h10.811v21.482z"/><path d="m200.98 313.853v-97.58h22.746v50.967h5.335l9.547-25.694h20.64v10.53l-10.952 24.851 11.934 26.396v10.53h-21.341l-9.828-25.974h-5.335v25.974z"/><path d="m158.448 313.839c-3.276 0-6.271-.796-8.985-2.387-2.715-1.591-4.868-3.744-6.459-6.459-1.591-2.714-2.387-5.709-2.387-8.985v-36.646c0-3.276.796-6.271 2.387-8.985 1.591-2.715 3.744-4.868 6.459-6.459 2.714-1.591 5.709-2.387 8.985-2.387h31.31v16.427l-4.633 5.055h-18.533c-1.03 0-1.826.281-2.387.842-.562.562-.843 1.404-.843 2.528v22.604c0 1.124.281 1.966.843 2.528.561.561 1.357.842 2.387.842h23.166v21.482z"/><path d="m88.7468 315.243c-3.276 0-6.2245-.749-8.8453-2.247-2.6209-1.497-4.7269-3.557-6.3181-6.177-1.4977-2.715-2.2465-5.663-2.2465-8.846v-11.092c0-3.182.7488-6.084 2.2465-8.705 1.5912-2.714 3.6972-4.82 6.3181-6.318 2.6208-1.497 5.5693-2.246 8.8453-2.246h17.2692v-6.318c0-1.124-.28-1.919-.842-2.387-.468-.562-1.264-.843-2.387-.843h-25.132v-18.533h33.697c3.276 0 6.224.749 8.845 2.247 2.621 1.497 4.68 3.603 6.178 6.318 1.591 2.621 2.387 5.522 2.387 8.705v55.038h-14.321l-3.23-7.722h-.702c-1.123 2.34-2.948 4.446-5.475 6.318-2.434 1.872-5.2421 2.808-8.4246 2.808zm12.3552-18.253c1.124 0 2.06-.187 2.808-.561.843-.468 1.451-1.077 1.826-1.826.468-.842.702-1.825.702-2.948v-6.88h-9.969c-1.1232 0-1.9656.281-2.5272.843-.5617.561-.8425 1.404-.8425 2.527v5.616c0 1.03.2808 1.825.8425 2.387.5616.562 1.404.842 2.5272.842z"/><path d="m0 313.844v-98.282h23.4473v37.909h12.3554v-37.909h23.4473v98.282h-23.4473v-38.61h-12.3554v38.61z"/></g><path d="m405.886 152.266h10.8221v10.8221h-10.8221z" fill="#a0a0ff"/><path d="m416.709 152.266h10.8221v10.8221h-10.8221z" fill="#a0a0ff"/><path d="m416.709 141.438h10.8221v10.8221h-10.8221z" fill="#5a5ab5"/><path d="m427.53 130.617h10.8221v10.8221h-10.8221z" fill="#a0a0ff"/><path d="m427.53 119.789h10.8221v10.8221h-10.8221z" fill="#5a5ab5"/><path d="m0 0h10.8221v10.8221h-10.8221z" fill="#a0a0ff" transform="matrix(1 0 0 -1 405.886 11.5781)"/><path d="m0 0h10.8221v10.8221h-10.8221z" fill="#a0a0ff" transform="matrix(1 0 0 -1 416.709 11.5781)"/><path d="m0 0h10.8221v10.8221h-10.8221z" fill="#5a5ab5" transform="matrix(1 0 0 -1 416.709 22.3906)"/><path d="m0 0h10.8221v10.8221h-10.8221z" fill="#a0a0ff" transform="matrix(1 0 0 -1 427.53 33.2188)"/><path d="m0 0h10.8221v10.8221h-10.8221z" fill="#5a5ab5" transform="matrix(1 0 0 -1 427.53 44.0391)"/><path d="m0 0h10.8221v10.8221h-10.8221z" fill="#a0a0ff" transform="matrix(-1 0 0 1 395.064 152.266)"/><path d="m0 0h10.8221v10.8221h-10.8221z" fill="#a0a0ff" transform="matrix(-1 0 0 1 384.241 152.266)"/><path d="m0 0h10.8221v10.8221h-10.8221z" fill="#5a5ab5" transform="matrix(-1 0 0 1 384.241 141.438)"/><path d="m0 0h10.8221v10.8221h-10.8221z" fill="#a0a0ff" transform="matrix(-1 0 0 1 373.42 130.617)"/><path d="m0 0h10.8221v10.8221h-10.8221z" fill="#5a5ab5" transform="matrix(-1 0 0 1 373.42 119.789)"/><path d="m395.064 11.5781h10.8221v10.8221h-10.8221z" fill="#a0a0ff" transform="matrix(-1 0 -0 -1 790.128 23.1562)"/><path d="m384.241 11.5781h10.8221v10.8221h-10.8221z" fill="#a0a0ff" transform="matrix(-1 0 -0 -1 768.482 23.1562)"/><path d="m384.241 22.3906h10.8221v10.8221h-10.8221z" fill="#5a5ab5" transform="matrix(-1 0 -0 -1 768.482 44.7812)"/><path d="m373.42 33.2188h10.8221v10.8221h-10.8221z" fill="#a0a0ff" transform="matrix(-1 0 -0 -1 746.84 66.4376)"/><path d="m373.42 44.0391h10.8221v10.8221h-10.8221z" fill="#5a5ab5" transform="matrix(-1 0 -0 -1 746.84 88.0782)"/><path d="m427.53.75h10.8221v10.8221h-10.8221z" fill="#5a5ab5"/><path d="m438.352 11.5781h10.8221v10.8221h-10.8221z" fill="#a0a0ff"/><path d="m449.175 11.5781h10.8221v10.8221h-10.8221z" fill="#5a5ab5"/><path d="m459.996 22.3906h10.8221v10.8221h-10.8221z" fill="#5a5ab5"/><path d="m470.819 33.2188h10.8221v10.8221h-10.8221z" fill="#5a5ab5"/><path d="m481.641 44.0391h10.8221v10.8221h-10.8221z" fill="#5a5ab5"/><path d="m481.641 54.8594h10.8221v10.8221h-10.8221z" fill="#5a5ab5"/><path d="m492.462 65.6797h10.8221v10.8221h-10.8221z" fill="#5a5ab5"/><path d="m0 0h10.8221v10.8221h-10.8221z" fill="#5a5ab5" transform="matrix(1 0 0 -1 427.53 163.078)"/><path d="m0 0h10.8221v10.8221h-10.8221z" fill="#a0a0ff" transform="matrix(1 0 0 -1 438.352 152.266)"/><path d="m0 0h10.8221v10.8221h-10.8221z" fill="#5a5ab5" transform="matrix(1 0 0 -1 449.175 152.266)"/><path d="m0 0h10.8221v10.8221h-10.8221z" fill="#5a5ab5" transform="matrix(1 0 0 -1 459.996 141.438)"/><path d="m0 0h10.8221v10.8221h-10.8221z" fill="#5a5ab5" transform="matrix(1 0 0 -1 470.819 130.617)"/><path d="m0 0h10.8221v10.8221h-10.8221z" fill="#5a5ab5" transform="matrix(1 0 0 -1 481.641 119.789)"/><path d="m0 0h10.8221v10.8221h-10.8221z" fill="#5a5ab5" transform="matrix(1 0 0 -1 481.641 108.969)"/><path d="m0 0h10.8221v10.8221h-10.8221z" fill="#5a5ab5" transform="matrix(1 0 0 -1 492.462 98.1484)"/><path d="m0 0h10.8221v10.8221h-10.8221z" fill="#5a5ab5" transform="matrix(-1 0 0 1 373.42 .75)"/><path d="m0 0h10.8221v10.8221h-10.8221z" fill="#a0a0ff" transform="matrix(-1 0 0 1 362.598 11.5781)"/><path d="m0 0h10.8221v10.8221h-10.8221z" fill="#5a5ab5" transform="matrix(-1 0 0 1 351.775 11.5781)"/><path d="m0 0h10.8221v10.8221h-10.8221z" fill="#5a5ab5" transform="matrix(-1 0 0 1 340.954 22.3906)"/><path d="m0 0h10.8221v10.8221h-10.8221z" fill="#5a5ab5" transform="matrix(-1 0 0 1 330.131 33.2188)"/><path d="m0 0h10.8221v10.8221h-10.8221z" fill="#5a5ab5" transform="matrix(-1 0 0 1 319.31 44.0391)"/><path d="m0 0h10.8221v10.8221h-10.8221z" fill="#5a5ab5" transform="matrix(-1 0 0 1 319.31 54.8594)"/><path d="m0 0h10.8221v10.8221h-10.8221z" fill="#5a5ab5" transform="matrix(-1 0 0 1 308.487 65.6797)"/><path d="m373.42 163.078h10.8221v10.8221h-10.8221z" fill="#5a5ab5" transform="matrix(-1 0 -0 -1 746.84 326.156)"/><path d="m362.598 152.266h10.8221v10.8221h-10.8221z" fill="#a0a0ff" transform="matrix(-1 0 -0 -1 725.196 304.532)"/><path d="m351.775 152.266h10.8221v10.8221h-10.8221z" fill="#5a5ab5" transform="matrix(-1 0 -0 -1 703.55 304.532)"/><path d="m340.954 141.438h10.8221v10.8221h-10.8221z" fill="#5a5ab5" transform="matrix(-1 0 -0 -1 681.908 282.876)"/><path d="m330.131 130.617h10.8221v10.8221h-10.8221z" fill="#5a5ab5" transform="matrix(-1 0 -0 -1 660.262 261.234)"/><path d="m319.31 119.789h10.8221v10.8221h-10.8221z" fill="#5a5ab5" transform="matrix(-1 0 -0 -1 638.62 239.578)"/><path d="m319.31 108.969h10.8221v10.8221h-10.8221z" fill="#5a5ab5" transform="matrix(-1 0 -0 -1 638.62 217.938)"/><path d="m308.487 98.1484h10.8221v10.8221h-10.8221z" fill="#5a5ab5" transform="matrix(-1 0 -0 -1 616.974 196.2968)"/><path d="m449.175.75h10.8221v10.8221h-10.8221z" fill="#a0a0ff"/><path d="m459.996 11.5781h10.8221v10.8221h-10.8221z" fill="#a0a0ff"/><path d="m459.996.75h10.8221v10.8221h-10.8221z" fill="#5a5ab5"/><path d="m470.819 11.5781h10.8221v10.8221h-10.8221z" fill="#5a5ab5"/><path d="m481.641 22.3906h10.8221v10.8221h-10.8221z" fill="#5a5ab5"/><path d="m481.641 11.5781h10.8221v10.8221h-10.8221z" fill="#a0a0ff"/><path d="m492.462 22.3906h10.8221v10.8221h-10.8221z" fill="#a0a0ff"/><path d="m503.285 33.2188h10.8221v10.8221h-10.8221z" fill="#5a5ab5"/><path d="m514.106 44.0391h10.8221v10.8221h-10.8221z" fill="#5a5ab5"/><path d="m524.928 54.8594h10.8221v10.8221h-10.8221z" fill="#5a5ab5"/><path d="m524.928 65.6797h10.8221v10.8221h-10.8221z" fill="#a0a0ff"/><path d="m438.352.75h10.8221v10.8221h-10.8221z" fill="#a0a0ff"/><path d="m0 0h10.8221v10.8221h-10.8221z" fill="#a0a0ff" transform="matrix(1 0 0 -1 449.175 163.078)"/><path d="m0 0h10.8221v10.8221h-10.8221z" fill="#a0a0ff" transform="matrix(1 0 0 -1 438.352 163.078)"/><path d="m0 0h10.8221v10.8221h-10.8221z" fill="#a0a0ff" transform="matrix(1 0 0 -1 459.996 152.266)"/><path d="m0 0h10.8221v10.8221h-10.8221z" fill="#5a5ab5" transform="matrix(1 0 0 -1 459.996 163.078)"/><path d="m0 0h10.8221v10.8221h-10.8221z" fill="#5a5ab5" transform="matrix(1 0 0 -1 470.819 152.266)"/><path d="m0 0h10.8221v10.8221h-10.8221z" fill="#5a5ab5" transform="matrix(1 0 0 -1 481.641 141.438)"/><path d="m0 0h10.8221v10.8221h-10.8221z" fill="#a0a0ff" transform="matrix(1 0 0 -1 481.641 152.266)"/><path d="m0 0h10.8221v10.8221h-10.8221z" fill="#a0a0ff" transform="matrix(1 0 0 -1 492.462 141.438)"/><path d="m0 0h10.8221v10.8221h-10.8221z" fill="#5a5ab5" transform="matrix(1 0 0 -1 503.285 130.617)"/><path d="m0 0h10.8221v10.8221h-10.8221z" fill="#5a5ab5" transform="matrix(1 0 0 -1 514.106 119.789)"/><path d="m0 0h10.8221v10.8221h-10.8221z" fill="#5a5ab5" transform="matrix(1 0 0 -1 524.928 108.969)"/><path d="m0 0h10.8221v10.8221h-10.8221z" fill="#a0a0ff" transform="matrix(1 0 0 -1 524.928 98.1484)"/><path d="m0 0h10.8221v10.8221h-10.8221z" fill="#a0a0ff" transform="matrix(-1 0 0 1 351.775 .75)"/><path d="m0 0h10.8221v10.8221h-10.8221z" fill="#a0a0ff" transform="matrix(-1 0 0 1 340.954 11.5781)"/><path d="m0 0h10.8221v10.8221h-10.8221z" fill="#5a5ab5" transform="matrix(-1 0 0 1 340.954 .75)"/><path d="m0 0h10.8221v10.8221h-10.8221z" fill="#5a5ab5" transform="matrix(-1 0 0 1 330.131 11.5781)"/><path d="m0 0h10.8221v10.8221h-10.8221z" fill="#5a5ab5" transform="matrix(-1 0 0 1 319.31 22.3906)"/><path d="m0 0h10.8221v10.8221h-10.8221z" fill="#a0a0ff" transform="matrix(-1 0 0 1 319.31 11.5781)"/><path d="m0 0h10.8221v10.8221h-10.8221z" fill="#a0a0ff" transform="matrix(-1 0 0 1 308.487 22.3906)"/><path d="m0 0h10.8221v10.8221h-10.8221z" fill="#5a5ab5" transform="matrix(-1 0 0 1 297.665 33.2188)"/><path d="m0 0h10.8221v10.8221h-10.8221z" fill="#5a5ab5" transform="matrix(-1 0 0 1 286.844 44.0391)"/><path d="m0 0h10.8221v10.8221h-10.8221z" fill="#5a5ab5" transform="matrix(-1 0 0 1 276.021 54.8594)"/><path d="m0 0h10.8221v10.8221h-10.8221z" fill="#a0a0ff" transform="matrix(-1 0 0 1 276.021 65.6797)"/><path d="m0 0h10.8221v10.8221h-10.8221z" fill="#a0a0ff" transform="matrix(-1 0 0 1 362.598 .75)"/><path d="m351.775 163.078h10.8221v10.8221h-10.8221z" fill="#a0a0ff" transform="matrix(-1 0 -0 -1 703.55 326.156)"/><path d="m362.598 163.078h10.8221v10.8221h-10.8221z" fill="#a0a0ff" transform="matrix(-1 0 -0 -1 725.196 326.156)"/><path d="m340.954 152.266h10.8221v10.8221h-10.8221z" fill="#a0a0ff" transform="matrix(-1 0 -0 -1 681.908 304.532)"/><path d="m340.954 163.078h10.8221v10.8221h-10.8221z" fill="#5a5ab5" transform="matrix(-1 0 -0 -1 681.908 326.156)"/><path d="m330.131 152.266h10.8221v10.8221h-10.8221z" fill="#5a5ab5" transform="matrix(-1 0 -0 -1 660.262 304.532)"/><path d="m319.31 141.438h10.8221v10.8221h-10.8221z" fill="#5a5ab5" transform="matrix(-1 0 -0 -1 638.62 282.876)"/><path d="m319.31 152.266h10.8221v10.8221h-10.8221z" fill="#a0a0ff" transform="matrix(-1 0 -0 -1 638.62 304.532)"/><path d="m308.487 141.438h10.8221v10.8221h-10.8221z" fill="#a0a0ff" transform="matrix(-1 0 -0 -1 616.974 282.876)"/><path d="m297.665 130.617h10.8221v10.8221h-10.8221z" fill="#5a5ab5" transform="matrix(-1 0 -0 -1 595.33 261.234)"/><path d="m286.844 119.789h10.8221v10.8221h-10.8221z" fill="#5a5ab5" transform="matrix(-1 0 -0 -1 573.688 239.578)"/><path d="m276.021 108.969h10.8221v10.8221h-10.8221z" fill="#5a5ab5" transform="matrix(-1 0 -0 -1 552.042 217.938)"/><path d="m276.021 98.1484h10.8221v10.8221h-10.8221z" fill="#a0a0ff" transform="matrix(-1 0 -0 -1 552.042 196.2968)"/><path d="m492.462 11.5781h10.8221v10.8221h-10.8221z" fill="#5a5ab5"/><path d="m503.285 11.5781h10.8221v10.8221h-10.8221z" fill="#5a5ab5"/><path d="m503.285 22.3906h10.8221v10.8221h-10.8221z" fill="#a0a0ff"/><path d="m514.106 22.3906h10.8221v10.8221h-10.8221z" fill="#5a5ab5"/><path d="m524.928 22.3906h10.8221v10.8221h-10.8221z" fill="#5a5ab5"/><path d="m524.928 33.2188h10.8221v10.8221h-10.8221z" fill="#a0a0ff"/><path d="m535.751 33.2188h10.8221v10.8221h-10.8221z" fill="#5a5ab5"/><path d="m535.751 44.0391h10.8221v10.8221h-10.8221z" fill="#a0a0ff"/><path d="m546.572 44.0391h10.8221v10.8221h-10.8221z" fill="#5a5ab5"/><path d="m557.396 54.8594h10.8221v10.8221h-10.8221z" fill="#5a5ab5"/><path d="m557.396 65.6797h10.8221v10.8221h-10.8221z" fill="#5a5ab5"/><path d="m0 0h10.8221v10.8221h-10.8221z" fill="#5a5ab5" transform="matrix(1 0 0 -1 492.462 152.266)"/><path d="m0 0h10.8221v10.8221h-10.8221z" fill="#5a5ab5" transform="matrix(1 0 0 -1 503.285 152.266)"/><path d="m0 0h10.8221v10.8221h-10.8221z" fill="#a0a0ff" transform="matrix(1 0 0 -1 503.285 141.438)"/><path d="m0 0h10.8221v10.8221h-10.8221z" fill="#5a5ab5" transform="matrix(1 0 0 -1 514.106 141.438)"/><path d="m0 0h10.8221v10.8221h-10.8221z" fill="#5a5ab5" transform="matrix(1 0 0 -1 524.928 141.438)"/><path d="m0 0h10.8221v10.8221h-10.8221z" fill="#a0a0ff" transform="matrix(1 0 0 -1 524.928 130.617)"/><path d="m0 0h10.8221v10.8221h-10.8221z" fill="#5a5ab5" transform="matrix(1 0 0 -1 535.751 130.617)"/><path d="m0 0h10.8221v10.8221h-10.8221z" fill="#a0a0ff" transform="matrix(1 0 0 -1 535.751 119.789)"/><path d="m0 0h10.8221v10.8221h-10.8221z" fill="#5a5ab5" transform="matrix(1 0 0 -1 546.572 119.789)"/><path d="m0 0h10.8221v10.8221h-10.8221z" fill="#5a5ab5" transform="matrix(1 0 0 -1 557.396 108.969)"/><path d="m0 0h10.8221v10.8221h-10.8221z" fill="#5a5ab5" transform="matrix(1 0 0 -1 557.396 98.1484)"/><path d="m0 0h10.8221v10.8221h-10.8221z" fill="#5a5ab5" transform="matrix(-1 0 0 1 308.487 11.5781)"/><path d="m0 0h10.8221v10.8221h-10.8221z" fill="#5a5ab5" transform="matrix(-1 0 0 1 297.665 11.5781)"/><path d="m0 0h10.8221v10.8221h-10.8221z" fill="#a0a0ff" transform="matrix(-1 0 0 1 297.665 22.3906)"/><path d="m0 0h10.8221v10.8221h-10.8221z" fill="#5a5ab5" transform="matrix(-1 0 0 1 286.844 22.3906)"/><path d="m0 0h10.8221v10.8221h-10.8221z" fill="#5a5ab5" transform="matrix(-1 0 0 1 276.021 22.3906)"/><path d="m0 0h10.8221v10.8221h-10.8221z" fill="#a0a0ff" transform="matrix(-1 0 0 1 276.021 33.2188)"/><path d="m0 0h10.8221v10.8221h-10.8221z" fill="#5a5ab5" transform="matrix(-1 0 0 1 265.199 33.2188)"/><path d="m0 0h10.8221v10.8221h-10.8221z" fill="#a0a0ff" transform="matrix(-1 0 0 1 265.199 44.0391)"/><path d="m0 0h10.8221v10.8221h-10.8221z" fill="#5a5ab5" transform="matrix(-1 0 0 1 254.377 44.0391)"/><path d="m0 0h10.8221v10.8221h-10.8221z" fill="#5a5ab5" transform="matrix(-1 0 0 1 243.555 54.8594)"/><path d="m0 0h10.8221v10.8221h-10.8221z" fill="#5a5ab5" transform="matrix(-1 0 0 1 243.555 65.6797)"/><path d="m308.487 152.266h10.8221v10.8221h-10.8221z" fill="#5a5ab5" transform="matrix(-1 0 -0 -1 616.974 304.532)"/><path d="m297.665 152.266h10.8221v10.8221h-10.8221z" fill="#5a5ab5" transform="matrix(-1 0 -0 -1 595.33 304.532)"/><path d="m297.665 141.438h10.8221v10.8221h-10.8221z" fill="#a0a0ff" transform="matrix(-1 0 -0 -1 595.33 282.876)"/><path d="m286.844 141.438h10.8221v10.8221h-10.8221z" fill="#5a5ab5" transform="matrix(-1 0 -0 -1 573.688 282.876)"/><path d="m276.021 141.438h10.8221v10.8221h-10.8221z" fill="#5a5ab5" transform="matrix(-1 0 -0 -1 552.042 282.876)"/><path d="m276.021 130.617h10.8221v10.8221h-10.8221z" fill="#a0a0ff" transform="matrix(-1 0 -0 -1 552.042 261.234)"/><path d="m265.199 130.617h10.8221v10.8221h-10.8221z" fill="#5a5ab5" transform="matrix(-1 0 -0 -1 530.398 261.234)"/><path d="m265.199 119.789h10.8221v10.8221h-10.8221z" fill="#a0a0ff" transform="matrix(-1 0 -0 -1 530.398 239.578)"/><path d="m254.377 119.789h10.8221v10.8221h-10.8221z" fill="#5a5ab5" transform="matrix(-1 0 -0 -1 508.754 239.578)"/><path d="m243.555 108.969h10.8221v10.8221h-10.8221z" fill="#5a5ab5" transform="matrix(-1 0 -0 -1 487.11 217.938)"/><path d="m243.555 98.1484h10.8221v10.8221h-10.8221z" fill="#5a5ab5" transform="matrix(-1 0 -0 -1 487.11 196.2968)"/><path d="m395.064 141.438h10.8221v10.8221h-10.8221z" fill="#a0a0ff"/><path d="m395.064 119.789h10.8221v10.8221h-10.8221z" fill="#a0a0ff"/><path d="m395.064 22.3906h10.8221v10.8221h-10.8221z" fill="#5a5ab5"/><path d="m395.064.75h10.8221v10.8221h-10.8221z" fill="#5a5ab5"/><path d="m395.064 152.266h10.8221v10.8221h-10.8221z" fill="#5a5ab5"/><path d="m395.064 130.617h10.8221v10.8221h-10.8221z" fill="#5a5ab5"/><path d="m395.064 33.2188h10.8221v10.8221h-10.8221z" fill="#a0a0ff"/><path d="m395.064 11.5781h10.8221v10.8221h-10.8221z" fill="#a0a0ff"/><path d="m297.665 76.5078h10.8221v10.8221h-10.8221z" fill="#5a5ab5" transform="matrix(0 1 -1 0 374.1728 -221.1572)"/><path d="m276.021 76.5078h10.8221v10.8221h-10.8221z" fill="#5a5ab5" transform="matrix(0 1 -1 0 352.5288 -199.5132)"/><path d="m503.285 76.5078h10.8221v10.8221h-10.8221z" fill="#a0a0ff" transform="matrix(0 1 -1 0 579.7928 -426.7772)"/><path d="m319.31 76.5078h10.8221v10.8221h-10.8221z" fill="#5a5ab5" transform="matrix(0 1 -1 0 395.8178 -242.8022)"/><path d="m524.928 76.5078h10.8221v10.8221h-10.8221z" fill="#a0a0ff" transform="matrix(0 1 -1 0 601.4358 -448.4202)"/><path d="m481.641 76.5078h10.8221v10.8221h-10.8221z" fill="#a0a0ff" transform="matrix(0 1 -1 0 558.1488 -405.1332)"/><path d="m546.572 76.5078h10.8221v10.8221h-10.8221z" fill="#a0a0ff" transform="matrix(0 1 -1 0 623.0798 -470.0642)"/><path d="m557.396 76.5078h10.8221v10.8221h-10.8221z" fill="#5a5ab5" transform="matrix(0 1 -1 0 633.9038 -480.8882)"/><path d="m568.217 76.5078h10.8221v10.8221h-10.8221z" fill="#5a5ab5" transform="matrix(0 1 -1 0 644.7248 -491.7092)"/><path d="m340.954 76.5078h10.8221v10.8221h-10.8221z" fill="#5a5ab5" transform="matrix(0 1 -1 0 417.4618 -264.4462)"/><path d="m286.844 76.5078h10.8221v10.8221h-10.8221z" fill="#a0a0ff" transform="matrix(0 1 -1 0 363.3518 -210.3362)"/><path d="m265.199 76.5078h10.8221v10.8221h-10.8221z" fill="#a0a0ff" transform="matrix(0 1 -1 0 341.7068 -188.6912)"/><path d="m254.377 76.5078h10.8221v10.8221h-10.8221z" fill="#5a5ab5" transform="matrix(0 1 -1 0 330.8848 -177.8692)"/><path d="m243.555 76.5078h10.8221v10.8221h-10.8221z" fill="#5a5ab5" transform="matrix(0 1 -1 0 320.0628 -167.0472)"/><path d="m330.131 76.5078h10.8221v10.8221h-10.8221z" fill="#a0a0ff" transform="matrix(0 1 -1 0 406.6388 -253.6232)"/><path d="m492.462 76.5078h10.8221v10.8221h-10.8221z" fill="#5a5ab5" transform="matrix(0 1 -1 0 568.9698 -415.9542)"/><path d="m308.487 76.5078h10.8221v10.8221h-10.8221z" fill="#a0a0ff" transform="matrix(0 1 -1 0 384.9948 -231.9792)"/><path d="m514.106 76.5078h10.8221v10.8221h-10.8221z" fill="#5a5ab5" transform="matrix(0 1 -1 0 590.6138 -437.5982)"/><path d="m470.819 76.5078h10.8221v10.8221h-10.8221z" fill="#5a5ab5" transform="matrix(0 1 -1 0 547.3268 -394.3112)"/><path d="m535.751 76.5078h10.8221v10.8221h-10.8221z" fill="#5a5ab5" transform="matrix(0 1 -1 0 612.2588 -459.2432)"/><path d="m340.954 130.617h10.8221v10.8221h-10.8221z" fill="#a0a0ff"/><path d="m449.175 130.617h10.8221v10.8221h-10.8221z" fill="#a0a0ff"/><path d="m0 0h10.8221v10.8221h-10.8221z" fill="#a0a0ff" transform="matrix(1 0 0 -1 340.954 33.2188)"/><path d="m0 0h10.8221v10.8221h-10.8221z" fill="#a0a0ff" transform="matrix(1 0 0 -1 449.175 33.2188)"/><path d="m408.633 102.908v-41.9783h37.78v7.796l-4.198 4.1978h-20.389v5.3972h17.391v11.9938h-17.391v12.5935z" fill="#5a5ab5"/><path d="m358.866 102.908v-41.9783h13.193v14.9922h17.991v-14.9922h13.193v41.9783h-13.193v-14.9923h-17.991v14.9923z" fill="#5a5ab5"/></svg>