<svg fill="none" height="316" viewBox="0 0 800 316" width="800" xmlns="http://www.w3.org/2000/svg"><g fill="#f2f4f7"><path d="m781.046 313.762c-3.182 0-6.131-.796-8.845-2.387-2.715-1.591-4.914-3.744-6.599-6.459-1.591-2.714-2.387-5.709-2.387-8.985v-34.82h-8.565v-19.657h9.829l8.424-18.954h13.057v18.954h13.058v14.041l-5.055 5.616h-8.003v27.799c0 1.124.281 1.966.843 2.528.561.561 1.357.842 2.386.842h10.811v21.482z"/><path d="m696.31 313.76v-19.656h26.676c1.03 0 1.779-.234 2.247-.702.561-.562.842-1.264.842-2.106v-.842c0-.843-.281-1.498-.842-1.966-.468-.468-1.311-.889-2.528-1.264l-12.496-3.79c-3.088-1.03-5.662-2.2-7.722-3.511-1.965-1.404-3.51-3.135-4.633-5.194-1.03-2.153-1.544-4.681-1.544-7.582v-7.863c0-3.276.795-6.271 2.386-8.986 1.685-2.714 3.885-4.867 6.599-6.458 2.715-1.591 5.663-2.387 8.846-2.387h32.714v14.04l-5.055 5.616h-19.235c-1.03 0-1.825.235-2.387.703-.468.374-.702.982-.702 1.825v.702c0 .749.281 1.404.842 1.965.562.562 1.404.983 2.528 1.264l12.636 3.931c3.089.936 5.616 2.106 7.582 3.51 2.059 1.311 3.603 2.996 4.633 5.055s1.544 4.54 1.544 7.441v8.424c0 3.276-.795 6.272-2.386 8.986-1.592 2.715-3.745 4.867-6.459 6.459-2.714 1.591-5.71 2.386-8.986 2.386z"/><path d="m646.157 313.766c-3.276 0-6.271-.796-8.985-2.387-2.715-1.591-4.868-3.744-6.459-6.458-1.591-2.715-2.387-5.71-2.387-8.986v-38.049c0-3.276.796-6.271 2.387-8.986 1.591-2.714 3.744-4.867 6.459-6.458 2.714-1.592 5.709-2.387 8.985-2.387h22.184c3.182 0 6.131.795 8.845 2.387 2.715 1.591 4.868 3.744 6.459 6.458 1.685 2.715 2.527 5.71 2.527 8.986v27.8h-35.101v6.037c0 1.123.281 1.965.843 2.527.561.562 1.357.843 2.387.843h28.501v18.673zm4.353-43.244h13.338v-8.705c0-1.123-.281-1.919-.842-2.387-.468-.561-1.264-.842-2.387-.842h-6.74c-1.123 0-1.965.281-2.527.842-.561.468-.842 1.264-.842 2.387z"/><path d="m581.741 232.612c0-3.276.796-6.271 2.387-8.985 1.591-2.715 3.744-4.868 6.459-6.459 2.714-1.591 5.709-2.387 8.985-2.387h25.975v19.657h-17.831c-1.03 0-1.826.28-2.387.842-.562.468-.843 1.264-.843 2.387v10.811h15.445v13.759l-2.668 5.897h-12.777v45.631h-22.745z"/><path d="m529.348 313.766v-72.307h14.321l3.229 7.722h.702c1.123-2.34 2.902-4.446 5.335-6.318 2.434-1.872 5.242-2.808 8.424-2.808h11.233v22.885h-16.568c-.936 0-1.685.188-2.246.562-.562.281-.983.702-1.264 1.264-.281.561-.421 1.31-.421 2.246v46.754z"/><path d="m477.51 313.766c-3.276 0-6.271-.796-8.986-2.387-2.714-1.591-4.867-3.744-6.458-6.458-1.592-2.715-2.387-5.71-2.387-8.986v-38.049c0-3.276.795-6.271 2.387-8.986 1.591-2.714 3.744-4.867 6.458-6.458 2.715-1.592 5.71-2.387 8.986-2.387h22.183c3.183 0 6.131.795 8.846 2.387 2.714 1.591 4.867 3.744 6.458 6.458 1.685 2.715 2.528 5.71 2.528 8.986v27.8h-35.101v6.037c0 1.123.281 1.965.842 2.527.562.562 1.358.843 2.387.843h28.502v18.673zm4.352-43.244h13.339v-8.705c0-1.123-.281-1.919-.843-2.387-.468-.561-1.263-.842-2.387-.842h-6.739c-1.123 0-1.966.281-2.527.842-.562.468-.843 1.264-.843 2.387z"/><path d="m389.92 313.76v-97.58h22.745v32.714h.702c1.03-2.247 2.715-4.259 5.055-6.038 2.433-1.872 5.241-2.808 8.424-2.808h4.212c3.276 0 6.224.749 8.845 2.247 2.621 1.497 4.68 3.603 6.178 6.318 1.591 2.621 2.387 5.522 2.387 8.705v38.61c0 3.276-.843 6.272-2.527 8.986-1.592 2.715-3.744 4.867-6.459 6.459-2.714 1.591-5.663 2.387-8.845 2.387zm32.995-21.061c1.123 0 1.918-.281 2.386-.842.562-.562.843-1.358.843-2.387v-25.132c0-1.123-.281-1.919-.843-2.387-.468-.562-1.263-.842-2.386-.842h-5.336c-1.31 0-2.34.187-3.089.561-.748.375-1.357.983-1.825 1.825-.374.749-.561 1.732-.561 2.949v26.255z"/><path d="m336.558 315.17c-3.276 0-6.272-.796-8.986-2.387-2.715-1.591-4.867-3.744-6.459-6.458-1.591-2.715-2.386-5.71-2.386-8.986v-39.453c0-3.276.795-6.271 2.386-8.986 1.592-2.714 3.744-4.867 6.459-6.458 2.714-1.592 5.71-2.387 8.986-2.387h22.885c3.183 0 6.131.795 8.846 2.387 2.714 1.591 4.867 3.744 6.458 6.458 1.685 2.715 2.527 5.71 2.527 8.986v39.453c0 3.276-.842 6.271-2.527 8.986-1.591 2.714-3.744 4.867-6.458 6.458-2.715 1.591-5.663 2.387-8.846 2.387zm15.163-21.06c1.123 0 1.919-.281 2.387-.843.562-.561.842-1.357.842-2.387v-26.536c0-1.123-.28-1.918-.842-2.386-.468-.562-1.264-.843-2.387-.843h-7.441c-1.123 0-1.966.281-2.527.843-.562.468-.843 1.263-.843 2.386v26.536c0 1.03.281 1.826.843 2.387.561.562 1.404.843 2.527.843z"/><path d="m291.282 313.762c-3.182 0-6.131-.796-8.845-2.387s-4.914-3.744-6.599-6.459c-1.591-2.714-2.387-5.709-2.387-8.985v-34.82h-8.564v-19.657h9.828l8.424-18.954h13.058v18.954h13.057v14.041l-5.055 5.616h-8.002v27.799c0 1.124.28 1.966.842 2.528.562.561 1.357.842 2.387.842h10.811v21.482z"/><path d="m200.981 313.76v-97.58h22.746v50.966h5.335l9.547-25.694h20.64v10.53l-10.952 24.852 11.934 26.395v10.531h-21.341l-9.828-25.975h-5.335v25.975z"/><path d="m158.449 313.76c-3.276 0-6.271-.795-8.985-2.386-2.715-1.592-4.868-3.744-6.459-6.459-1.591-2.714-2.387-5.71-2.387-8.986v-36.645c0-3.276.796-6.271 2.387-8.986 1.591-2.714 3.744-4.867 6.459-6.458 2.714-1.591 5.709-2.387 8.985-2.387h31.31v16.427l-4.633 5.055h-18.533c-1.03 0-1.826.281-2.387.842-.562.562-.843 1.404-.843 2.527v22.605c0 1.123.281 1.966.843 2.527.561.562 1.357.843 2.387.843h23.166v21.481z"/><path d="m88.7478 315.165c-3.276 0-6.2245-.749-8.8453-2.247-2.6209-1.498-4.7269-3.557-6.3182-6.178-1.4976-2.714-2.2464-5.663-2.2464-8.845v-11.092c0-3.182.7488-6.084 2.2464-8.705 1.5913-2.714 3.6973-4.82 6.3182-6.318 2.6208-1.498 5.5693-2.246 8.8453-2.246h17.2692v-6.318c0-1.124-.28-1.919-.842-2.387-.468-.562-1.264-.843-2.387-.843h-25.132v-18.533h33.697c3.276 0 6.224.749 8.845 2.247 2.621 1.497 4.68 3.603 6.178 6.318 1.591 2.621 2.387 5.522 2.387 8.705v55.037h-14.321l-3.23-7.722h-.702c-1.123 2.34-2.948 4.446-5.475 6.318-2.434 1.872-5.2422 2.809-8.4246 2.809zm12.3552-18.253c1.123 0 2.059-.187 2.808-.561.843-.468 1.451-1.077 1.826-1.826.468-.842.702-1.825.702-2.948v-6.88h-9.969c-1.1233 0-1.9657.281-2.5273.843-.5616.561-.8424 1.404-.8424 2.527v5.616c0 1.03.2808 1.825.8424 2.387.5616.561 1.404.842 2.5273.842z"/><path d="m.00097656 313.766v-98.282h23.44722344v37.909h12.3554v-37.909h23.4473v98.282h-23.4473v-38.61h-12.3554v38.61z"/></g><path d="m405.412 152.344h10.8221v10.8221h-10.8221z" fill="#5a5ab5"/><path d="m416.234 152.344h10.8221v10.8221h-10.8221z" fill="#5a5ab5"/><path d="m416.234 141.516h10.8221v10.8221h-10.8221z" fill="#a0a0ff"/><path d="m427.057 130.695h10.8221v10.8221h-10.8221z" fill="#5a5ab5"/><path d="m427.057 119.867h10.8221v10.8221h-10.8221z" fill="#a0a0ff"/><path d="m0 0h10.8221v10.8221h-10.8221z" fill="#5a5ab5" transform="matrix(1 0 0 -1 405.412 11.6562)"/><path d="m0 0h10.8221v10.8221h-10.8221z" fill="#5a5ab5" transform="matrix(1 0 0 -1 416.234 11.6562)"/><path d="m0 0h10.8221v10.8221h-10.8221z" fill="#a0a0ff" transform="matrix(1 0 0 -1 416.234 22.4688)"/><path d="m0 0h10.8221v10.8221h-10.8221z" fill="#5a5ab5" transform="matrix(1 0 0 -1 427.057 33.2969)"/><path d="m0 0h10.8221v10.8221h-10.8221z" fill="#a0a0ff" transform="matrix(1 0 0 -1 427.057 44.1172)"/><path d="m0 0h10.8221v10.8221h-10.8221z" fill="#5a5ab5" transform="matrix(-1 0 0 1 394.591 152.344)"/><path d="m0 0h10.8221v10.8221h-10.8221z" fill="#5a5ab5" transform="matrix(-1 0 0 1 383.768 152.344)"/><path d="m0 0h10.8221v10.8221h-10.8221z" fill="#a0a0ff" transform="matrix(-1 0 0 1 383.768 141.516)"/><path d="m0 0h10.8221v10.8221h-10.8221z" fill="#5a5ab5" transform="matrix(-1 0 0 1 372.946 130.695)"/><path d="m0 0h10.8221v10.8221h-10.8221z" fill="#a0a0ff" transform="matrix(-1 0 0 1 372.946 119.867)"/><path d="m394.591 11.6562h10.8221v10.8221h-10.8221z" fill="#5a5ab5" transform="matrix(-1 0 -0 -1 789.182 23.3124)"/><path d="m383.768 11.6562h10.8221v10.8221h-10.8221z" fill="#5a5ab5" transform="matrix(-1 0 -0 -1 767.536 23.3124)"/><path d="m383.768 22.4688h10.8221v10.8221h-10.8221z" fill="#a0a0ff" transform="matrix(-1 0 -0 -1 767.536 44.9376)"/><path d="m372.946 33.2969h10.8221v10.8221h-10.8221z" fill="#5a5ab5" transform="matrix(-1 0 -0 -1 745.892 66.5938)"/><path d="m372.946 44.1172h10.8221v10.8221h-10.8221z" fill="#a0a0ff" transform="matrix(-1 0 -0 -1 745.892 88.2344)"/><path d="m427.057.828125h10.8221v10.8221h-10.8221z" fill="#a0a0ff"/><path d="m437.878 11.6562h10.8221v10.8221h-10.8221z" fill="#5a5ab5"/><path d="m448.701 11.6562h10.8221v10.8221h-10.8221z" fill="#a0a0ff"/><path d="m459.522 22.4688h10.8221v10.8221h-10.8221z" fill="#a0a0ff"/><path d="m470.345 33.2969h10.8221v10.8221h-10.8221z" fill="#a0a0ff"/><path d="m481.167 44.1172h10.8221v10.8221h-10.8221z" fill="#a0a0ff"/><path d="m481.167 54.9375h10.8221v10.8221h-10.8221z" fill="#a0a0ff"/><path d="m491.988 65.7578h10.8221v10.8221h-10.8221z" fill="#a0a0ff"/><path d="m0 0h10.8221v10.8221h-10.8221z" fill="#a0a0ff" transform="matrix(1 0 0 -1 427.057 163.156)"/><path d="m0 0h10.8221v10.8221h-10.8221z" fill="#5a5ab5" transform="matrix(1 0 0 -1 437.878 152.344)"/><path d="m0 0h10.8221v10.8221h-10.8221z" fill="#a0a0ff" transform="matrix(1 0 0 -1 448.701 152.344)"/><path d="m0 0h10.8221v10.8221h-10.8221z" fill="#a0a0ff" transform="matrix(1 0 0 -1 459.522 141.516)"/><path d="m0 0h10.8221v10.8221h-10.8221z" fill="#a0a0ff" transform="matrix(1 0 0 -1 470.345 130.695)"/><path d="m0 0h10.8221v10.8221h-10.8221z" fill="#a0a0ff" transform="matrix(1 0 0 -1 481.167 119.867)"/><path d="m0 0h10.8221v10.8221h-10.8221z" fill="#a0a0ff" transform="matrix(1 0 0 -1 481.167 109.047)"/><path d="m0 0h10.8221v10.8221h-10.8221z" fill="#a0a0ff" transform="matrix(1 0 0 -1 491.988 98.2266)"/><path d="m0 0h10.8221v10.8221h-10.8221z" fill="#a0a0ff" transform="matrix(-1 0 0 1 372.946 .828125)"/><path d="m0 0h10.8221v10.8221h-10.8221z" fill="#5a5ab5" transform="matrix(-1 0 0 1 362.124 11.6562)"/><path d="m0 0h10.8221v10.8221h-10.8221z" fill="#a0a0ff" transform="matrix(-1 0 0 1 351.302 11.6562)"/><path d="m0 0h10.8221v10.8221h-10.8221z" fill="#a0a0ff" transform="matrix(-1 0 0 1 340.48 22.4688)"/><path d="m0 0h10.8221v10.8221h-10.8221z" fill="#a0a0ff" transform="matrix(-1 0 0 1 329.657 33.2969)"/><path d="m0 0h10.8221v10.8221h-10.8221z" fill="#a0a0ff" transform="matrix(-1 0 0 1 318.836 44.1172)"/><path d="m0 0h10.8221v10.8221h-10.8221z" fill="#a0a0ff" transform="matrix(-1 0 0 1 318.836 54.9375)"/><path d="m0 0h10.8221v10.8221h-10.8221z" fill="#a0a0ff" transform="matrix(-1 0 0 1 308.014 65.7578)"/><path d="m372.946 163.156h10.8221v10.8221h-10.8221z" fill="#a0a0ff" transform="matrix(-1 0 -0 -1 745.892 326.312)"/><path d="m362.124 152.344h10.8221v10.8221h-10.8221z" fill="#5a5ab5" transform="matrix(-1 0 -0 -1 724.248 304.688)"/><path d="m351.302 152.344h10.8221v10.8221h-10.8221z" fill="#a0a0ff" transform="matrix(-1 0 -0 -1 702.604 304.688)"/><path d="m340.48 141.516h10.8221v10.8221h-10.8221z" fill="#a0a0ff" transform="matrix(-1 0 -0 -1 680.96 283.032)"/><path d="m329.657 130.695h10.8221v10.8221h-10.8221z" fill="#a0a0ff" transform="matrix(-1 0 -0 -1 659.314 261.39)"/><path d="m318.836 119.867h10.8221v10.8221h-10.8221z" fill="#a0a0ff" transform="matrix(-1 0 -0 -1 637.672 239.734)"/><path d="m318.836 109.047h10.8221v10.8221h-10.8221z" fill="#a0a0ff" transform="matrix(-1 0 -0 -1 637.672 218.094)"/><path d="m308.014 98.2266h10.8221v10.8221h-10.8221z" fill="#a0a0ff" transform="matrix(-1 0 -0 -1 616.028 196.4532)"/><path d="m448.701.828125h10.8221v10.8221h-10.8221z" fill="#5a5ab5"/><path d="m459.522 11.6562h10.8221v10.8221h-10.8221z" fill="#5a5ab5"/><path d="m459.522.828125h10.8221v10.8221h-10.8221z" fill="#a0a0ff"/><path d="m470.345 11.6562h10.8221v10.8221h-10.8221z" fill="#a0a0ff"/><path d="m481.167 22.4688h10.8221v10.8221h-10.8221z" fill="#a0a0ff"/><path d="m481.167 11.6562h10.8221v10.8221h-10.8221z" fill="#5a5ab5"/><path d="m491.988 22.4688h10.8221v10.8221h-10.8221z" fill="#5a5ab5"/><path d="m502.812 33.2969h10.8221v10.8221h-10.8221z" fill="#a0a0ff"/><path d="m513.633 44.1172h10.8221v10.8221h-10.8221z" fill="#a0a0ff"/><path d="m524.454 54.9375h10.8221v10.8221h-10.8221z" fill="#a0a0ff"/><path d="m524.454 65.7578h10.8221v10.8221h-10.8221z" fill="#5a5ab5"/><path d="m437.878.828125h10.8221v10.8221h-10.8221z" fill="#5a5ab5"/><path d="m0 0h10.8221v10.8221h-10.8221z" fill="#5a5ab5" transform="matrix(1 0 0 -1 448.701 163.156)"/><path d="m0 0h10.8221v10.8221h-10.8221z" fill="#5a5ab5" transform="matrix(1 0 0 -1 437.878 163.156)"/><path d="m0 0h10.8221v10.8221h-10.8221z" fill="#5a5ab5" transform="matrix(1 0 0 -1 459.522 152.344)"/><path d="m0 0h10.8221v10.8221h-10.8221z" fill="#a0a0ff" transform="matrix(1 0 0 -1 459.522 163.156)"/><path d="m0 0h10.8221v10.8221h-10.8221z" fill="#a0a0ff" transform="matrix(1 0 0 -1 470.345 152.344)"/><path d="m0 0h10.8221v10.8221h-10.8221z" fill="#a0a0ff" transform="matrix(1 0 0 -1 481.167 141.516)"/><path d="m0 0h10.8221v10.8221h-10.8221z" fill="#5a5ab5" transform="matrix(1 0 0 -1 481.167 152.344)"/><path d="m0 0h10.8221v10.8221h-10.8221z" fill="#5a5ab5" transform="matrix(1 0 0 -1 491.988 141.516)"/><path d="m0 0h10.8221v10.8221h-10.8221z" fill="#a0a0ff" transform="matrix(1 0 0 -1 502.812 130.695)"/><path d="m0 0h10.8221v10.8221h-10.8221z" fill="#a0a0ff" transform="matrix(1 0 0 -1 513.633 119.867)"/><path d="m0 0h10.8221v10.8221h-10.8221z" fill="#a0a0ff" transform="matrix(1 0 0 -1 524.454 109.047)"/><path d="m0 0h10.8221v10.8221h-10.8221z" fill="#5a5ab5" transform="matrix(1 0 0 -1 524.454 98.2266)"/><path d="m0 0h10.8221v10.8221h-10.8221z" fill="#5a5ab5" transform="matrix(-1 0 0 1 351.302 .828125)"/><path d="m0 0h10.8221v10.8221h-10.8221z" fill="#5a5ab5" transform="matrix(-1 0 0 1 340.48 11.6562)"/><path d="m0 0h10.8221v10.8221h-10.8221z" fill="#a0a0ff" transform="matrix(-1 0 0 1 340.48 .828125)"/><path d="m0 0h10.8221v10.8221h-10.8221z" fill="#a0a0ff" transform="matrix(-1 0 0 1 329.657 11.6562)"/><path d="m0 0h10.8221v10.8221h-10.8221z" fill="#a0a0ff" transform="matrix(-1 0 0 1 318.836 22.4688)"/><path d="m0 0h10.8221v10.8221h-10.8221z" fill="#5a5ab5" transform="matrix(-1 0 0 1 318.836 11.6562)"/><path d="m0 0h10.8221v10.8221h-10.8221z" fill="#5a5ab5" transform="matrix(-1 0 0 1 308.014 22.4688)"/><path d="m0 0h10.8221v10.8221h-10.8221z" fill="#a0a0ff" transform="matrix(-1 0 0 1 297.191 33.2969)"/><path d="m0 0h10.8221v10.8221h-10.8221z" fill="#a0a0ff" transform="matrix(-1 0 0 1 286.37 44.1172)"/><path d="m0 0h10.8221v10.8221h-10.8221z" fill="#a0a0ff" transform="matrix(-1 0 0 1 275.548 54.9375)"/><path d="m0 0h10.8221v10.8221h-10.8221z" fill="#5a5ab5" transform="matrix(-1 0 0 1 275.548 65.7578)"/><path d="m0 0h10.8221v10.8221h-10.8221z" fill="#5a5ab5" transform="matrix(-1 0 0 1 362.124 .828125)"/><path d="m351.302 163.156h10.8221v10.8221h-10.8221z" fill="#5a5ab5" transform="matrix(-1 0 -0 -1 702.604 326.312)"/><path d="m362.124 163.156h10.8221v10.8221h-10.8221z" fill="#5a5ab5" transform="matrix(-1 0 -0 -1 724.248 326.312)"/><path d="m340.48 152.344h10.8221v10.8221h-10.8221z" fill="#5a5ab5" transform="matrix(-1 0 -0 -1 680.96 304.688)"/><path d="m340.48 163.156h10.8221v10.8221h-10.8221z" fill="#a0a0ff" transform="matrix(-1 0 -0 -1 680.96 326.312)"/><path d="m329.657 152.344h10.8221v10.8221h-10.8221z" fill="#a0a0ff" transform="matrix(-1 0 -0 -1 659.314 304.688)"/><path d="m318.836 141.516h10.8221v10.8221h-10.8221z" fill="#a0a0ff" transform="matrix(-1 0 -0 -1 637.672 283.032)"/><path d="m318.836 152.344h10.8221v10.8221h-10.8221z" fill="#5a5ab5" transform="matrix(-1 0 -0 -1 637.672 304.688)"/><path d="m308.014 141.516h10.8221v10.8221h-10.8221z" fill="#5a5ab5" transform="matrix(-1 0 -0 -1 616.028 283.032)"/><path d="m297.191 130.695h10.8221v10.8221h-10.8221z" fill="#a0a0ff" transform="matrix(-1 0 -0 -1 594.382 261.39)"/><path d="m286.37 119.867h10.8221v10.8221h-10.8221z" fill="#a0a0ff" transform="matrix(-1 0 -0 -1 572.74 239.734)"/><path d="m275.548 109.047h10.8221v10.8221h-10.8221z" fill="#a0a0ff" transform="matrix(-1 0 -0 -1 551.096 218.094)"/><path d="m275.548 98.2266h10.8221v10.8221h-10.8221z" fill="#5a5ab5" transform="matrix(-1 0 -0 -1 551.096 196.4532)"/><path d="m491.988 11.6562h10.8221v10.8221h-10.8221z" fill="#a0a0ff"/><path d="m502.812 11.6562h10.8221v10.8221h-10.8221z" fill="#a0a0ff"/><path d="m502.812 22.4688h10.8221v10.8221h-10.8221z" fill="#5a5ab5"/><path d="m513.633 22.4688h10.8221v10.8221h-10.8221z" fill="#a0a0ff"/><path d="m524.454 22.4688h10.8221v10.8221h-10.8221z" fill="#a0a0ff"/><path d="m524.454 33.2969h10.8221v10.8221h-10.8221z" fill="#5a5ab5"/><path d="m535.277 33.2969h10.8221v10.8221h-10.8221z" fill="#a0a0ff"/><path d="m535.277 44.1172h10.8221v10.8221h-10.8221z" fill="#5a5ab5"/><path d="m546.099 44.1172h10.8221v10.8221h-10.8221z" fill="#a0a0ff"/><path d="m556.922 54.9375h10.8221v10.8221h-10.8221z" fill="#a0a0ff"/><path d="m556.922 65.7578h10.8221v10.8221h-10.8221z" fill="#a0a0ff"/><path d="m0 0h10.8221v10.8221h-10.8221z" fill="#a0a0ff" transform="matrix(1 0 0 -1 491.988 152.344)"/><path d="m0 0h10.8221v10.8221h-10.8221z" fill="#a0a0ff" transform="matrix(1 0 0 -1 502.812 152.344)"/><path d="m0 0h10.8221v10.8221h-10.8221z" fill="#5a5ab5" transform="matrix(1 0 0 -1 502.812 141.516)"/><path d="m0 0h10.8221v10.8221h-10.8221z" fill="#a0a0ff" transform="matrix(1 0 0 -1 513.633 141.516)"/><path d="m0 0h10.8221v10.8221h-10.8221z" fill="#a0a0ff" transform="matrix(1 0 0 -1 524.454 141.516)"/><path d="m0 0h10.8221v10.8221h-10.8221z" fill="#5a5ab5" transform="matrix(1 0 0 -1 524.454 130.695)"/><path d="m0 0h10.8221v10.8221h-10.8221z" fill="#a0a0ff" transform="matrix(1 0 0 -1 535.277 130.695)"/><path d="m0 0h10.8221v10.8221h-10.8221z" fill="#5a5ab5" transform="matrix(1 0 0 -1 535.277 119.867)"/><path d="m0 0h10.8221v10.8221h-10.8221z" fill="#a0a0ff" transform="matrix(1 0 0 -1 546.099 119.867)"/><path d="m0 0h10.8221v10.8221h-10.8221z" fill="#a0a0ff" transform="matrix(1 0 0 -1 556.922 109.047)"/><path d="m0 0h10.8221v10.8221h-10.8221z" fill="#a0a0ff" transform="matrix(1 0 0 -1 556.922 98.2266)"/><path d="m0 0h10.8221v10.8221h-10.8221z" fill="#a0a0ff" transform="matrix(-1 0 0 1 308.014 11.6562)"/><path d="m0 0h10.8221v10.8221h-10.8221z" fill="#a0a0ff" transform="matrix(-1 0 0 1 297.191 11.6562)"/><path d="m0 0h10.8221v10.8221h-10.8221z" fill="#5a5ab5" transform="matrix(-1 0 0 1 297.191 22.4688)"/><path d="m0 0h10.8221v10.8221h-10.8221z" fill="#a0a0ff" transform="matrix(-1 0 0 1 286.37 22.4688)"/><path d="m0 0h10.8221v10.8221h-10.8221z" fill="#a0a0ff" transform="matrix(-1 0 0 1 275.548 22.4688)"/><path d="m0 0h10.8221v10.8221h-10.8221z" fill="#5a5ab5" transform="matrix(-1 0 0 1 275.548 33.2969)"/><path d="m0 0h10.8221v10.8221h-10.8221z" fill="#a0a0ff" transform="matrix(-1 0 0 1 264.726 33.2969)"/><path d="m0 0h10.8221v10.8221h-10.8221z" fill="#5a5ab5" transform="matrix(-1 0 0 1 264.726 44.1172)"/><path d="m0 0h10.8221v10.8221h-10.8221z" fill="#a0a0ff" transform="matrix(-1 0 0 1 253.903 44.1172)"/><path d="m0 0h10.8221v10.8221h-10.8221z" fill="#a0a0ff" transform="matrix(-1 0 0 1 243.081 54.9375)"/><path d="m0 0h10.8221v10.8221h-10.8221z" fill="#a0a0ff" transform="matrix(-1 0 0 1 243.081 65.7578)"/><path d="m308.014 152.344h10.8221v10.8221h-10.8221z" fill="#a0a0ff" transform="matrix(-1 0 -0 -1 616.028 304.688)"/><path d="m297.191 152.344h10.8221v10.8221h-10.8221z" fill="#a0a0ff" transform="matrix(-1 0 -0 -1 594.382 304.688)"/><path d="m297.191 141.516h10.8221v10.8221h-10.8221z" fill="#5a5ab5" transform="matrix(-1 0 -0 -1 594.382 283.032)"/><path d="m286.37 141.516h10.8221v10.8221h-10.8221z" fill="#a0a0ff" transform="matrix(-1 0 -0 -1 572.74 283.032)"/><path d="m275.548 141.516h10.8221v10.8221h-10.8221z" fill="#a0a0ff" transform="matrix(-1 0 -0 -1 551.096 283.032)"/><path d="m275.548 130.695h10.8221v10.8221h-10.8221z" fill="#5a5ab5" transform="matrix(-1 0 -0 -1 551.096 261.39)"/><path d="m264.726 130.695h10.8221v10.8221h-10.8221z" fill="#a0a0ff" transform="matrix(-1 0 -0 -1 529.452 261.39)"/><path d="m264.726 119.867h10.8221v10.8221h-10.8221z" fill="#5a5ab5" transform="matrix(-1 0 -0 -1 529.452 239.734)"/><path d="m253.903 119.867h10.8221v10.8221h-10.8221z" fill="#a0a0ff" transform="matrix(-1 0 -0 -1 507.806 239.734)"/><path d="m243.081 109.047h10.8221v10.8221h-10.8221z" fill="#a0a0ff" transform="matrix(-1 0 -0 -1 486.162 218.094)"/><path d="m243.081 98.2266h10.8221v10.8221h-10.8221z" fill="#a0a0ff" transform="matrix(-1 0 -0 -1 486.162 196.4532)"/><path d="m394.591 141.516h10.8221v10.8221h-10.8221z" fill="#5a5ab5"/><path d="m394.591 119.867h10.8221v10.8221h-10.8221z" fill="#5a5ab5"/><path d="m394.591 22.4688h10.8221v10.8221h-10.8221z" fill="#a0a0ff"/><path d="m394.591.828125h10.8221v10.8221h-10.8221z" fill="#a0a0ff"/><path d="m394.591 152.344h10.8221v10.8221h-10.8221z" fill="#a0a0ff"/><path d="m394.591 130.695h10.8221v10.8221h-10.8221z" fill="#a0a0ff"/><path d="m394.591 33.2969h10.8221v10.8221h-10.8221z" fill="#5a5ab5"/><path d="m394.591 11.6562h10.8221v10.8221h-10.8221z" fill="#5a5ab5"/><path d="m297.191 76.5859h10.8221v10.8221h-10.8221z" fill="#a0a0ff" transform="matrix(0 1 -1 0 373.7769 -220.6051)"/><path d="m275.548 76.5859h10.8221v10.8221h-10.8221z" fill="#a0a0ff" transform="matrix(0 1 -1 0 352.1339 -198.9621)"/><path d="m502.812 76.5859h10.8221v10.8221h-10.8221z" fill="#5a5ab5" transform="matrix(0 1 -1 0 579.3979 -426.2261)"/><path d="m318.836 76.5859h10.8221v10.8221h-10.8221z" fill="#a0a0ff" transform="matrix(0 1 -1 0 395.4219 -242.2501)"/><path d="m524.454 76.5859h10.8221v10.8221h-10.8221z" fill="#5a5ab5" transform="matrix(0 1 -1 0 601.0399 -447.8681)"/><path d="m481.167 76.5859h10.8221v10.8221h-10.8221z" fill="#5a5ab5" transform="matrix(0 1 -1 0 557.7529 -404.5811)"/><path d="m546.099 76.5859h10.8221v10.8221h-10.8221z" fill="#5a5ab5" transform="matrix(0 1 -1 0 622.6849 -469.5131)"/><path d="m556.922 76.5859h10.8221v10.8221h-10.8221z" fill="#a0a0ff" transform="matrix(0 1 -1 0 633.5079 -480.3361)"/><path d="m567.743 76.5859h10.8221v10.8221h-10.8221z" fill="#a0a0ff" transform="matrix(0 1 -1 0 644.3289 -491.1571)"/><path d="m340.48 76.5859h10.8221v10.8221h-10.8221z" fill="#a0a0ff" transform="matrix(0 1 -1 0 417.0659 -263.8941)"/><path d="m286.37 76.5859h10.8221v10.8221h-10.8221z" fill="#5a5ab5" transform="matrix(0 1 -1 0 362.9559 -209.7841)"/><path d="m264.726 76.5859h10.8221v10.8221h-10.8221z" fill="#5a5ab5" transform="matrix(0 1 -1 0 341.3119 -188.1401)"/><path d="m253.903 76.5859h10.8221v10.8221h-10.8221z" fill="#a0a0ff" transform="matrix(0 1 -1 0 330.4889 -177.3171)"/><path d="m243.081 76.5859h10.8221v10.8221h-10.8221z" fill="#a0a0ff" transform="matrix(0 1 -1 0 319.6669 -166.4951)"/><path d="m329.657 76.5859h10.8221v10.8221h-10.8221z" fill="#5a5ab5" transform="matrix(0 1 -1 0 406.2429 -253.0711)"/><path d="m491.988 76.5859h10.8221v10.8221h-10.8221z" fill="#a0a0ff" transform="matrix(0 1 -1 0 568.5739 -415.4021)"/><path d="m308.014 76.5859h10.8221v10.8221h-10.8221z" fill="#5a5ab5" transform="matrix(0 1 -1 0 384.5999 -231.4281)"/><path d="m513.633 76.5859h10.8221v10.8221h-10.8221z" fill="#a0a0ff" transform="matrix(0 1 -1 0 590.2189 -437.0471)"/><path d="m470.345 76.5859h10.8221v10.8221h-10.8221z" fill="#a0a0ff" transform="matrix(0 1 -1 0 546.9309 -393.7591)"/><path d="m535.277 76.5859h10.8221v10.8221h-10.8221z" fill="#a0a0ff" transform="matrix(0 1 -1 0 611.8629 -458.6911)"/><path d="m340.48 130.695h10.8221v10.8221h-10.8221z" fill="#5a5ab5"/><path d="m448.701 130.695h10.8221v10.8221h-10.8221z" fill="#5a5ab5"/><path d="m0 0h10.8221v10.8221h-10.8221z" fill="#5a5ab5" transform="matrix(1 0 0 -1 340.48 33.2969)"/><path d="m0 0h10.8221v10.8221h-10.8221z" fill="#5a5ab5" transform="matrix(1 0 0 -1 448.701 33.2969)"/><path d="m408.158 102.986v-41.9782h37.781v7.796l-4.198 4.1978h-20.39v5.3972h17.391v11.9938h-17.391v12.5934z" fill="#c2c2ff"/><path d="m358.392 102.986v-41.9782h13.193v14.9922h17.99v-14.9922h13.194v41.9782h-13.194v-14.9922h-17.99v14.9922z" fill="#c2c2ff"/></svg>