<svg fill="none" height="316" viewBox="0 0 800 316" width="800" xmlns="http://www.w3.org/2000/svg"><g fill="#1c1c3f"><path d="m781.046 313.752c-3.182 0-6.131-.795-8.845-2.386-2.715-1.592-4.914-3.744-6.599-6.459-1.591-2.714-2.387-5.709-2.387-8.985v-34.82h-8.565v-19.656h9.829l8.424-18.954h13.057v18.954h13.058v14.04l-5.055 5.616h-8.003v27.8c0 1.123.281 1.965.843 2.527.561.561 1.357.842 2.386.842h10.811v21.481z"/><path d="m696.31 313.759v-19.656h26.676c1.03 0 1.779-.234 2.247-.702.561-.561.842-1.263.842-2.106v-.842c0-.843-.281-1.498-.842-1.966-.468-.468-1.311-.889-2.528-1.263l-12.496-3.791c-3.088-1.03-5.662-2.2-7.722-3.51-1.965-1.404-3.51-3.136-4.633-5.195-1.03-2.153-1.544-4.68-1.544-7.582v-7.862c0-3.276.795-6.271 2.386-8.986 1.685-2.714 3.885-4.867 6.599-6.458 2.715-1.591 5.663-2.387 8.846-2.387h32.714v14.04l-5.055 5.616h-19.235c-1.03 0-1.825.234-2.387.702-.468.375-.702.983-.702 1.825v.702c0 .749.281 1.404.842 1.966.562.562 1.404.983 2.528 1.264l12.636 3.931c3.089.936 5.616 2.106 7.582 3.51 2.059 1.31 3.603 2.995 4.633 5.054s1.544 4.54 1.544 7.441v8.425c0 3.276-.795 6.271-2.386 8.985-1.592 2.715-3.745 4.867-6.459 6.459-2.714 1.591-5.71 2.386-8.986 2.386z"/><path d="m646.156 313.757c-3.276 0-6.271-.795-8.985-2.387-2.715-1.591-4.868-3.744-6.459-6.458-1.591-2.715-2.387-5.71-2.387-8.986v-38.048c0-3.276.796-6.271 2.387-8.986 1.591-2.714 3.744-4.867 6.459-6.458 2.714-1.592 5.709-2.387 8.985-2.387h22.184c3.182 0 6.131.795 8.845 2.387 2.715 1.591 4.868 3.744 6.459 6.458 1.685 2.715 2.527 5.71 2.527 8.986v27.799h-35.101v6.037c0 1.123.281 1.966.843 2.527.561.562 1.357.843 2.387.843h28.501v18.673zm4.353-43.243h13.338v-8.705c0-1.123-.281-1.919-.842-2.387-.468-.561-1.264-.842-2.387-.842h-6.74c-1.123 0-1.965.281-2.527.842-.561.468-.842 1.264-.842 2.387z"/><path d="m581.74 232.604c0-3.276.796-6.271 2.387-8.985 1.591-2.715 3.744-4.868 6.459-6.459 2.714-1.591 5.709-2.387 8.985-2.387h25.975v19.657h-17.831c-1.03 0-1.826.28-2.387.842-.562.468-.843 1.264-.843 2.387v10.811h15.445v13.759l-2.668 5.897h-12.777v45.63h-22.745z"/><path d="m529.348 313.757v-72.306h14.321l3.229 7.722h.702c1.123-2.34 2.902-4.446 5.335-6.318 2.434-1.872 5.242-2.808 8.424-2.808h11.233v22.885h-16.568c-.936 0-1.685.187-2.246.562-.562.281-.983.702-1.264 1.263-.281.562-.421 1.311-.421 2.247v46.753z"/><path d="m477.509 313.757c-3.276 0-6.271-.795-8.986-2.387-2.714-1.591-4.867-3.744-6.458-6.458-1.592-2.715-2.387-5.71-2.387-8.986v-38.048c0-3.276.795-6.271 2.387-8.986 1.591-2.714 3.744-4.867 6.458-6.458 2.715-1.592 5.71-2.387 8.986-2.387h22.184c3.182 0 6.13.795 8.845 2.387 2.714 1.591 4.867 3.744 6.458 6.458 1.685 2.715 2.528 5.71 2.528 8.986v27.799h-35.101v6.037c0 1.123.281 1.966.842 2.527.562.562 1.358.843 2.387.843h28.502v18.673zm4.352-43.243h13.339v-8.705c0-1.123-.281-1.919-.843-2.387-.468-.561-1.263-.842-2.387-.842h-6.739c-1.123 0-1.966.281-2.527.842-.562.468-.843 1.264-.843 2.387z"/><path d="m389.92 313.75v-97.578h22.745v32.713h.702c1.03-2.246 2.715-4.259 5.055-6.037 2.433-1.872 5.241-2.808 8.424-2.808h4.212c3.276 0 6.224.749 8.845 2.246 2.621 1.498 4.68 3.604 6.178 6.318 1.591 2.621 2.387 5.523 2.387 8.705v38.61c0 3.276-.843 6.272-2.527 8.986-1.592 2.714-3.744 4.867-6.459 6.458-2.714 1.592-5.663 2.387-8.845 2.387zm32.995-21.06c1.123 0 1.918-.281 2.386-.842.562-.562.843-1.357.843-2.387v-25.132c0-1.123-.281-1.919-.843-2.387-.468-.561-1.263-.842-2.386-.842h-5.336c-1.31 0-2.34.187-3.089.562-.748.374-1.357.982-1.825 1.825-.374.749-.561 1.731-.561 2.948v26.255z"/><path d="m336.558 315.161c-3.276 0-6.272-.795-8.986-2.387-2.715-1.591-4.867-3.744-6.459-6.458-1.591-2.715-2.386-5.71-2.386-8.986v-39.452c0-3.276.795-6.271 2.386-8.986 1.592-2.714 3.744-4.867 6.459-6.458 2.714-1.592 5.71-2.387 8.986-2.387h22.885c3.183 0 6.131.795 8.846 2.387 2.714 1.591 4.867 3.744 6.458 6.458 1.685 2.715 2.528 5.71 2.528 8.986v39.452c0 3.276-.843 6.271-2.528 8.986-1.591 2.714-3.744 4.867-6.458 6.458-2.715 1.592-5.663 2.387-8.846 2.387zm15.163-21.06c1.123 0 1.919-.281 2.387-.842.562-.562.842-1.358.842-2.387v-26.536c0-1.123-.28-1.919-.842-2.387-.468-.561-1.264-.842-2.387-.842h-7.441c-1.123 0-1.966.281-2.527.842-.562.468-.843 1.264-.843 2.387v26.536c0 1.029.281 1.825.843 2.387.561.561 1.404.842 2.527.842z"/><path d="m291.281 313.752c-3.182 0-6.13-.795-8.845-2.386-2.714-1.592-4.914-3.744-6.599-6.459-1.591-2.714-2.387-5.709-2.387-8.985v-34.82h-8.564v-19.656h9.828l8.424-18.954h13.058v18.954h13.057v14.04l-5.055 5.616h-8.002v27.8c0 1.123.28 1.965.842 2.527.562.561 1.357.842 2.387.842h10.811v21.481z"/><path d="m200.98 313.75v-97.578h22.746v50.965h5.335l9.547-25.693h20.64v10.53l-10.952 24.851 11.934 26.395v10.53h-21.341l-9.828-25.974h-5.335v25.974z"/><path d="m158.448 313.759c-3.276 0-6.271-.795-8.985-2.386-2.715-1.592-4.868-3.744-6.459-6.459-1.591-2.714-2.387-5.709-2.387-8.985v-36.645c0-3.276.796-6.271 2.387-8.986 1.591-2.714 3.744-4.867 6.459-6.458 2.714-1.591 5.709-2.387 8.985-2.387h31.31v16.427l-4.633 5.054h-18.533c-1.03 0-1.826.281-2.387.843-.562.561-.843 1.404-.843 2.527v22.604c0 1.124.281 1.966.843 2.528.561.561 1.357.842 2.387.842h23.166v21.481z"/><path d="m88.7468 315.163c-3.276 0-6.2245-.748-8.8453-2.246-2.6209-1.498-4.7269-3.557-6.3181-6.178-1.4977-2.714-2.2465-5.662-2.2465-8.845v-11.092c0-3.182.7488-6.084 2.2465-8.704 1.5912-2.715 3.6972-4.821 6.3181-6.318 2.6208-1.498 5.5693-2.247 8.8453-2.247h17.2692v-6.318c0-1.123-.28-1.919-.842-2.387-.468-.561-1.264-.842-2.387-.842h-25.132v-18.533h33.697c3.276 0 6.224.749 8.845 2.247 2.621 1.497 4.68 3.603 6.178 6.318 1.591 2.62 2.387 5.522 2.387 8.704v55.037h-14.321l-3.23-7.722h-.702c-1.123 2.34-2.948 4.446-5.475 6.318-2.434 1.872-5.2421 2.808-8.4246 2.808zm12.3552-18.252c1.124 0 2.06-.187 2.808-.561.843-.468 1.451-1.077 1.826-1.825.468-.843.702-1.826.702-2.949v-6.88h-9.969c-1.1232 0-1.9656.281-2.5272.843-.5617.561-.8425 1.404-.8425 2.527v5.616c0 1.03.2808 1.825.8425 2.387.5616.562 1.404.842 2.5272.842z"/><path d="m0 313.749v-98.28h23.4473v37.908h12.3554v-37.908h23.4473v98.28h-23.4473v-38.61h-12.3554v38.61z"/><path clip-rule="evenodd" d="m427.056.835938h10.822.001 10.821v10.821862h-10.821-.001-10.821v.0046 10.8163h-10.822v-10.8163-.0055-10.81641h10.821zm-10.822 10.826462h-10.821v10.8163.0056 10.8163h-10.823v-10.8163-.0056-10.8163h10.822v-.0046h-10.822v.0046h-10.822v-10.82191h10.822v-.004552h10.823v.004552h10.821zm10.822 108.2136h10.823v10.822h-10.823zm10.823 10.827h-10.823v10.816h-10.821v10.822h10.821v.005h-10.821v10.822h10.822v-.006h10.821.001 10.821v-10.816-.006-10.816h-10.821zm-.001 21.637v-10.815h-10.821v10.815zm-21.644.006h-10.821-.001-10.822-10.822v10.822h10.822 10.822.001 10.821zm10.822-129.8627v10.8164.0055 10.8163h10.823v-10.8163-.0055-10.8154h10.821v-10.8219h-10.822v10.8209zm-64.932 140.6787h10.822v.006h10.822v-10.822h-10.822v-.005h10.822v-10.822h-10.822v-10.816h-10.822v10.821h-10.822v10.816.006 10.816zm0-10.822h10.822v-10.815h-10.822zm10.822-32.464h-10.822v10.822h10.822zm10.822-119.03551v10.81641.0055 10.8163h-10.822v-10.8163-.0046h-10.822-10.822v-10.821862h10.822 10.822v.004552zm-10.822 21.64281v10.8164.0055 10.8163h-10.822v-10.8163-.0055-10.8154h-10.822v-10.8219h10.822v10.8209zm75.755-10.8209h10.821.001 10.822v10.8163.0056 10.8163h-10.822v.0046h-10.822v-10.8209-.001zm21.644 21.6428h10.822v10.8163h10.822v10.8219h-10.822v-10.8163h-10.822zm10.822 21.6428h10.822v10.8219h-10.822zm21.643 10.8264h-10.822v10.8164h-10.821-.001-10.821-10.822v10.8219h10.822 10.821.001 10.821v10.8209h10.822v-10.8209h.001 10.821.001 10.821v10.8209h10.822v-10.8209h.001 10.822v-10.8219h-10.822-.001v-10.8164h-10.822v10.8164h-10.821-.001-10.821-.001zm21.645 10.8219h-.001v10.8154h.001zm-32.467 10.8154h.001v-10.8154h-.001zm-43.287 54.1133v-.001-10.821h10.821v-.006h10.823v10.822h-10.822v.005h10.822v10.816.006 10.816h-10.822-.001-10.821v-10.816-.006zm32.466-10.822h-10.822v-10.822h10.822v10.816h10.821.001 10.821v10.822h-10.821-.001-10.821zm10.822-10.827h-10.822v-10.816-.005-10.8168h10.822v10.8168.005zm-140.687-108.2136h-10.822-10.822v10.8163.0056 10.8163h10.822v.0046h10.822v-10.8219zm-21.645 21.6428h-10.822v10.8163h-10.821v10.8219h10.822v-10.8163h10.821zm-10.821 21.6428h-10.822v10.8219h10.822zm-21.644 10.8264h10.822v10.8164h10.821.001 10.821v10.8219h-10.821-.001-10.821v10.8209h-10.822v-10.8209-.001-10.8154-.0055zm43.288 97.3876h-10.822v-10.816-.006-10.816h10.822v-.005h-10.822v-10.822h10.822v.006h10.822v10.822 10.815.006 10.816zm-21.644-32.459h10.821v-10.822h-10.822v10.816h-10.821-10.822v10.822h10.822 10.822zm-10.822-10.827h10.822v-10.816-.005-10.8168h-10.822v10.8168.005zm140.687-119.040062h10.822v10.821862h-10.822zm10.823 0h10.822v10.821862h-10.822zm21.643 10.826462h-10.822v10.8219h10.822v10.8163h10.821.001 10.821v-10.8163-.0056-10.8163h-10.821-.001zm32.466 21.6428h-10.822v10.8219h10.822v10.8163h10.822v-10.8163h10.821v-10.8219h-10.822v10.8163h-10.821zm21.643 21.6428h-10.822v10.8219h10.822zm-64.931 97.398h10.822 10.821.001 10.821v-10.822h-10.821-.001-10.821-10.822zm32.466-32.465v10.816.006 10.816h10.822 10.821.001 10.821v-10.816-.006-10.816h-10.822v10.816h-10.821v-10.816zm21.644-.005h-10.822v-10.821h10.821v-10.8168h10.822v10.8218h-10.821zm-173.153-119.040062h-10.822-10.822v10.821862h10.822 10.822zm-32.466 10.826462h10.821v10.8219h-10.821v10.8163h-10.822-10.822v-10.8163-.0056-10.8163h10.822 10.821zm-32.467 21.6428h10.822v10.8219h-10.821v10.8163h-10.822v-10.8163h-10.822v-10.8219h10.822v10.8163h10.821zm-21.643 21.6428h10.822v10.8219h-10.822zm10.822 10.8264h-10.822v10.8164.0055 10.8154.001 10.8209h10.822v-10.8209h10.821.001 10.821v-10.8219h-10.821-.001-10.821zm54.109 86.5716h-10.821-.001-10.821-10.822v-10.822h10.822 10.821.001 10.821zm-32.466-32.465v10.816.006 10.816h-10.821-.001-10.821-10.822v-10.816-.006-10.816h10.822v10.816h10.821v-10.816zm-21.643-.005h10.822v-10.821h-10.822v-10.8168h-10.822v10.8218h10.822zm238.085-108.2136h-10.822v10.8163.0056 10.8163h10.822 10.821.001 10.821v-10.8219h-10.821-.001-10.821zm21.644 21.6428h10.822v10.8163h10.822v10.8219h-10.822-10.822v-10.8163-.0056zm32.467 21.6428h-10.822v10.8219h10.822zm-10.822 10.8264h10.822v10.8219h-.001v10.8154h.001v10.8219h-10.822v-10.8209h-.001-10.821v-10.8219h10.821.001zm-54.111 86.5716h10.822v-10.822h-10.822zm43.288-21.643h-10.822v-10.822h10.822zm-10.822-10.827h10.822 10.822v-10.821h-10.822-10.822zm21.645-10.816h10.822v-10.8218h-10.822zm-270.553-97.3976h10.822v10.8163.0056 10.8163h-10.821-.001-10.821-10.822v-10.8219h10.822 10.821zm-21.644 21.6428h-10.822v10.8163h-10.821v10.8219h10.821.001 10.821v-10.8163-.0056zm-32.466 21.6428h10.822v10.8219h-10.822zm10.822 10.8264h-10.822v10.8164.0055 10.8154.001 10.8209h10.822v-10.8209-.001-10.8154-.0055zm54.11 86.5716h-10.822v-10.822h10.822zm-43.288-21.643h10.822v-10.822h-10.822zm10.822-10.827h-10.821-.001-10.821v-10.821h10.821.001 10.821zm-21.644-10.816h-10.822v-10.8218h10.822zm151.509 43.281v-10.816-.006-10.816h10.823v10.816.006 10.816zm10.823-32.465h-10.823v10.822h10.823zm-10.823-86.5708h10.823v10.8219h-10.823zm-54.11 54.1075v-10.8219h-10.822v10.8219zm-75.755 0v-10.8219h-10.821-.001-10.821v10.8219h10.821.001z" fill-rule="evenodd"/><path d="m408.157 102.993v-41.9774h37.781v7.7959l-4.198 4.1977h-20.39v5.3971h17.391v11.9936h-17.391v12.5931z"/><path d="m358.391 102.993v-41.9774h13.193v14.992h17.99v-14.992h13.194v41.9774h-13.194v-14.9918h-17.99v14.9918z"/></g></svg>