<svg fill="none" height="49" viewBox="0 0 56 49" width="56" xmlns="http://www.w3.org/2000/svg"><g fill="#fd366e"><path d="m55.55 36.7364v12.2455h-31.1147c-9.065 0-16.98003-4.9249-21.21474-12.2455-.61561-1.0642-1.15441-2.1808-1.60638-3.3396-.887244-2.271-1.44497-4.7079-1.61418-7.2505v-3.3107c.0367364-.5666.0946242-1.1288.170324-1.6843.154738-1.14.388515-2.2554.695765-3.3397 2.906631-10.27953 12.357911-17.8116 23.569211-17.8116s20.6615 7.53207 23.5681 17.8116h-13.3042c-2.1841-3.3508-5.9646-5.5661-10.2639-5.5661s-8.0798 2.2153-10.2639 5.5661c-.6657 1.0186-1.1823 2.1418-1.5207 3.3397-.3006 1.062-.4609 2.1819-.4609 3.3397 0 3.51 1.4762 6.6737 3.8429 8.9058 2.193 2.0717 5.1497 3.3396 8.4026 3.3396z"/><path d="m55.55 21.1513v12.2455h-22.712c2.3667-2.232 3.8428-5.3958 3.8428-8.9058 0-1.1578-.1603-2.2777-.4609-3.3397z"/></g></svg>