<svg fill="none" height="55" viewBox="0 0 300 55" width="300" xmlns="http://www.w3.org/2000/svg"><g fill="#ededf0"><path d="m87.6281 44.3074c4.9066 0 7.3869-2.5301 8.4653-4.2527h.4853c.2157 1.8303 1.5098 3.5529 4.0443 3.5529h4.799v-5.3832h-1.241c-.862 0-1.294-.4845-1.294-1.2381v-21.5865h-6.3622v3.4452h-.4853c-1.2401-1.7226-3.8283-4.145-8.5732-4.145-7.5488 0-13.1564 6.2445-13.1564 14.8037s5.7155 14.8037 13.3182 14.8037zm1.1323-6.1368c-4.4754 0-7.9801-3.2837-7.9801-8.6131 0-5.2216 3.3969-8.7745 7.9261-8.7745 4.3136 0 7.9262 3.176 7.9262 8.7745 0 4.7911-3.0734 8.6131-7.8722 8.6131z"/><path d="m109.178 54.5455h6.362v-14.4908h.486c1.186 1.7226 3.72 4.2527 8.735 4.2527 7.549 0 13.048-6.3521 13.048-14.8037 0-8.5054-5.877-14.8037-13.48-14.8037-4.852 0-7.225 2.6378-8.357 4.0912h-.485v-3.3914h-6.309zm14.235-16.2134c-4.368 0-7.98-3.2299-7.98-8.8284 0-4.791 3.073-8.8284 7.872-8.8284 4.475 0 7.98 3.4991 7.98 8.8284 0 5.2217-3.397 8.8284-7.872 8.8284z"/><path d="m141.092 54.5455h6.363v-14.4908h.485c1.186 1.7226 3.721 4.2527 8.735 4.2527 7.549 0 12.525-6.3521 12.525-14.8037 0-8.5054-5.354-14.8037-12.956-14.8037-4.853 0-7.225 2.6378-8.358 4.0912h-.485v-3.3914h-6.309zm14.235-16.2134c-4.367 0-7.98-3.2299-7.98-8.8284 0-4.791 3.074-8.8284 7.872-8.8284 4.476 0 7.98 3.4991 7.98 8.8284 0 5.2217-3.396 8.8284-7.872 8.8284z"/><path d="m177.61 44.2626h9.005l5.122-22.1248h.324l5.122 22.1248h8.951l7.167-28.2078h-6.413l-5.122 22.1787h-.485l-5.123-22.1787h-8.465l-5.176 22.1787h-.485l-5.069-22.1787h-6.794z"/><path d="m216.524 44.2626h6.363v-13.9424c0-5.3293 2.48-8.613 7.117-8.613h2.804v-6.3522h-2.103c-3.612 0-6.362 2.4763-7.441 4.8449h-.431v-4.1451h-6.309z"/><path d="m264.382 44.2626h4.961v-5.6523h-4.907c-1.941 0-2.75-.8613-2.75-2.8531v-14.1039h7.98v-5.5985h-7.98v-7.91321h-6.039v7.91321h-5.284v5.5985h4.907v14.1577c0 5.9754 3.612 8.4516 9.112 8.4516z"/><path d="m286.412 44.3074c5.877 0 11.054-2.9069 12.887-8.7746l-5.823-1.3996c-1.025 3.1223-3.99 4.7372-7.118 4.7372-4.637 0-7.71-3.0146-7.764-7.7517h21.406v-1.7765c0-8.3977-5.23-14.6422-13.857-14.6422-7.603 0-14.127 5.9753-14.127 14.8575 0 8.6131 5.769 14.7499 14.396 14.7499zm-7.764-17.8183c.377-3.3914 3.451-6.2444 7.495-6.2444 3.882 0 7.063 2.4224 7.387 6.2444z"/><path clip-rule="evenodd" d="m247.534 44.2626h-6.363v-22.6093h-4.96v-5.5985h11.323z" fill-rule="evenodd"/><path d="m243.88 12.1403c2.318 0 4.044-1.7226 4.044-3.98354 0-2.2071-1.726-3.92971-4.044-3.92971-2.319 0-4.044 1.72261-4.044 3.92971 0 2.26094 1.725 3.98354 4.044 3.98354z"/></g><path d="m55.552 37.3459v12.4486h-31.1158c-9.0653 0-16.98066-5.0066-21.21552-12.4486-.61564-1.0819-1.15446-2.217-1.60644-3.3951-.887277-2.3087-1.445024-4.7859-1.61424-7.3707v-3.3657c.0367378-.576.0946276-1.1475.17033-1.7122.154744-1.1589.388529-2.2928.695791-3.3951 2.906739-10.45007 12.358379-18.1071 23.570079-18.1071s20.6622 7.65703 23.5689 18.1071h-13.3046c-2.1842-3.4064-5.9649-5.6585-10.2643-5.6585s-8.0801 2.2521-10.2643 5.6585c-.6658 1.0355-1.1823 2.1774-1.5207 3.3951-.3006 1.0796-.4609 2.2181-.4609 3.395 0 3.5683 1.4762 6.7846 3.843 9.0536 2.1931 2.1061 5.1499 3.3951 8.4029 3.3951z" fill="#fd366e"/><path d="m55.552 21.5022v12.4486h-22.7128c2.3668-2.269 3.843-5.4853 3.843-9.0535 0-1.177-.1603-2.3155-.4609-3.3951z" fill="#fd366e"/></svg>