<svg fill="none" height="162" viewBox="0 0 1281 162" width="1281" xmlns="http://www.w3.org/2000/svg"><g fill="#f2f4f7"><path d="m1258.76 136.308c-3.57 0-6.88-.893-9.92-2.679-3.05-1.785-5.52-4.201-7.41-7.247-1.78-3.045-2.68-6.406-2.68-10.082v-39.0701h-9.61v-22.0557h11.03l9.45-21.268h14.65v21.268h14.66v15.754l-5.68 6.3017h-8.98v31.1931c0 1.26.32 2.205.95 2.836.63.63 1.52.945 2.68.945h12.13v24.104z"/><path d="m1163.68 136.305v-22.055h29.93c1.16 0 2-.263 2.52-.788.63-.63.95-1.418.95-2.363v-.946c0-.945-.32-1.68-.95-2.205-.52-.525-1.47-.998-2.83-1.418l-14.02-4.254c-3.47-1.155-6.36-2.4677-8.67-3.938-2.2-1.5755-3.94-3.5185-5.2-5.829-1.15-2.4157-1.73-5.2514-1.73-8.5072v-8.8223c0-3.6759.89-7.0368 2.68-10.0826 1.89-3.0458 4.36-5.4614 7.4-7.2468 3.05-1.7855 6.36-2.6782 9.93-2.6782h36.7v15.754l-5.67 6.3016h-21.58c-1.16 0-2.05.2626-2.68.7877-.52.4201-.79 1.1028-.79 2.0481v.7877c0 .8402.32 1.5754.95 2.2055.63.6302 1.57 1.1028 2.83 1.4179l14.18 4.4111c3.47 1.0503 6.31 2.3631 8.51 3.9385 2.31 1.4704 4.04 3.3609 5.2 5.6715 1.15 2.3105 1.73 5.0935 1.73 8.3495v9.453c0 3.676-.89 7.036-2.68 10.082-1.78 3.046-4.2 5.462-7.24 7.247-3.05 1.785-6.41 2.678-10.09 2.678z"/><path d="m1107.41 136.31c-3.68 0-7.04-.892-10.09-2.678-3.04-1.785-5.46-4.201-7.24-7.247-1.79-3.046-2.68-6.406-2.68-10.082v-42.6938c0-3.6759.89-7.0368 2.68-10.0826 1.78-3.0458 4.2-5.4614 7.24-7.2469 3.05-1.7854 6.41-2.6781 10.09-2.6781h24.89c3.57 0 6.88.8927 9.92 2.6781 3.05 1.7855 5.46 4.2011 7.25 7.2469 1.89 3.0458 2.84 6.4067 2.84 10.0826v31.1928h-39.39v6.774c0 1.261.32 2.206.95 2.836s1.52.945 2.67.945h31.98v20.953zm4.88-48.5222h14.97v-9.7675c0-1.2603-.32-2.153-.95-2.6782-.52-.6301-1.42-.9452-2.68-.9452h-7.56c-1.26 0-2.2.3151-2.83.9452-.64.5252-.95 1.4179-.95 2.6782z"/><path d="m1035.13 45.2498c0-3.6759.89-7.0368 2.67-10.0826 1.79-3.0457 4.21-5.4614 7.25-7.2468 3.05-1.7855 6.41-2.6782 10.08-2.6782h29.15v22.0557h-20.01c-1.15 0-2.05.315-2.68.9452-.63.5251-.94 1.4179-.94 2.6782v12.1306h17.33v15.439l-3 6.6167h-14.33v51.2004h-25.52z"/><path d="m976.34 136.31v-81.133h16.069l3.623 8.6647h.788c1.26-2.6257 3.26-4.9888 5.99-7.0893 2.73-2.1006 5.88-3.1508 9.45-3.1508h12.6v25.6791h-18.59c-1.05 0-1.89.21-2.52.6301-.63.3151-1.1.7877-1.42 1.4179-.31.6301-.47 1.4704-.47 2.5206v52.4607z"/><path d="m918.172 136.31c-3.676 0-7.037-.892-10.083-2.678-3.046-1.785-5.461-4.201-7.247-7.247-1.785-3.046-2.678-6.406-2.678-10.082v-42.6938c0-3.6759.893-7.0368 2.678-10.0826 1.786-3.0458 4.201-5.4614 7.247-7.2469 3.046-1.7854 6.407-2.6781 10.083-2.6781h24.891c3.571 0 6.879.8927 9.925 2.6781 3.046 1.7855 5.462 4.2011 7.247 7.2469 1.89 3.0458 2.836 6.4067 2.836 10.0826v31.1928h-39.385v6.774c0 1.261.315 2.206.945 2.836s1.523.945 2.678.945h31.981v20.953zm4.883-48.5222h14.967v-9.7675c0-1.2603-.315-2.153-.945-2.6782-.526-.6301-1.418-.9452-2.679-.9452h-7.562c-1.26 0-2.205.3151-2.835.9452-.631.5252-.946 1.4179-.946 2.6782z"/><path d="m819.895 136.303v-109.4905h25.521v36.7069h.788c1.155-2.5206 3.046-4.7787 5.671-6.7742 2.731-2.1006 5.882-3.1508 9.453-3.1508h4.726c3.676 0 6.984.8402 9.925 2.5206 2.941 1.6805 5.251 4.0436 6.932 7.0893 1.785 2.9408 2.678 6.1966 2.678 9.7675v43.3232c0 3.676-.945 7.037-2.836 10.083-1.785 3.046-4.201 5.461-7.247 7.247-3.045 1.785-6.354 2.678-9.925 2.678zm37.022-23.631c1.26 0 2.153-.315 2.678-.945.63-.63.945-1.523.945-2.678v-28.2001c0-1.2604-.315-2.1531-.945-2.6782-.525-.6302-1.418-.9453-2.678-.9453h-5.987c-1.47 0-2.626.2101-3.466.6302s-1.523 1.1028-2.048 2.048c-.42.8402-.63 1.943-.63 3.3084v29.46z"/><path d="m760.016 137.886c-3.676 0-7.036-.893-10.082-2.678-3.046-1.786-5.462-4.202-7.247-7.247-1.785-3.046-2.678-6.407-2.678-10.083v-44.2688c0-3.6759.893-7.0368 2.678-10.0826s4.201-5.4614 7.247-7.2469c3.046-1.7854 6.406-2.6781 10.082-2.6781h25.68c3.57 0 6.879.8927 9.925 2.6781 3.045 1.7855 5.461 4.2011 7.246 7.2469 1.891 3.0458 2.836 6.4067 2.836 10.0826v44.2688c0 3.676-.945 7.037-2.836 10.083-1.785 3.045-4.201 5.461-7.246 7.247-3.046 1.785-6.355 2.678-9.925 2.678zm17.015-23.631c1.26 0 2.153-.315 2.678-.946.63-.63.945-1.523.945-2.678v-29.7749c0-1.2604-.315-2.1531-.945-2.6782-.525-.6302-1.418-.9453-2.678-.9453h-8.35c-1.26 0-2.205.3151-2.836.9453-.63.5251-.945 1.4178-.945 2.6782v29.7749c0 1.155.315 2.048.945 2.678.631.631 1.576.946 2.836.946z"/><path d="m709.215 136.308c-3.571 0-6.879-.893-9.925-2.679-3.046-1.785-5.514-4.201-7.404-7.247-1.786-3.045-2.678-6.406-2.678-10.082v-39.0701h-9.61v-22.0557h11.027l9.453-21.268h14.651v21.268h14.651v15.754l-5.671 6.3017h-8.98v31.1931c0 1.26.315 2.205.945 2.836.631.63 1.523.945 2.679.945h12.13v24.104z"/><path d="m607.892 136.303v-109.4905h25.521v57.1872h5.987l10.712-28.8299h23.159v11.8155l-12.288 27.8847 13.391 29.618v11.815h-23.946l-11.028-29.145h-5.987v29.145z"/><path d="m560.169 136.305c-3.676 0-7.037-.893-10.083-2.678s-5.461-4.201-7.247-7.247c-1.785-3.046-2.678-6.406-2.678-10.082v-41.1185c0-3.6759.893-7.0368 2.678-10.0826 1.786-3.0458 4.201-5.4614 7.247-7.2468 3.046-1.7855 6.407-2.6782 10.083-2.6782h35.131v18.4322l-5.199 5.6715h-20.795c-1.155 0-2.048.315-2.678.9452s-.945 1.5754-.945 2.8357v25.3645c0 1.26.315 2.205.945 2.835s1.523.946 2.678.946h25.994v24.103z"/><path d="m481.956 137.881c-3.676 0-6.984-.841-9.925-2.521s-5.304-3.991-7.089-6.932c-1.681-3.046-2.521-6.354-2.521-9.925v-12.446c0-3.57.84-6.8263 2.521-9.7671 1.785-3.0458 4.148-5.4089 7.089-7.0893s6.249-2.5206 9.925-2.5206h19.377v-7.0894c0-1.2603-.315-2.153-.945-2.6781-.525-.6302-1.418-.9453-2.678-.9453h-28.2v-20.7953h37.81c3.676 0 6.984.8402 9.925 2.5206 2.941 1.6805 5.251 4.0436 6.932 7.0893 1.785 2.9408 2.678 6.1966 2.678 9.7676v61.7556h-16.069l-3.624-8.665h-.787c-1.261 2.626-3.309 4.989-6.144 7.09-2.731 2.1-5.882 3.151-9.453 3.151zm13.863-20.481c1.261 0 2.311-.21 3.151-.63.946-.525 1.628-1.208 2.048-2.048.525-.945.788-2.048.788-3.308v-7.72h-11.185c-1.261 0-2.206.315-2.836.946-.63.63-.945 1.575-.945 2.835v6.302c0 1.155.315 2.048.945 2.678s1.575.945 2.836.945z"/><path d="m382.379 136.31v-110.2788h26.309v42.536h13.864v-42.536h26.309v110.2788h-26.309v-43.3241h-13.864v43.3241z"/></g><path d="m171.059 150.484h10.6894v10.6894h-10.6894z" fill="#5a5ab5"/><path d="m181.749 150.484h10.6894v10.6894h-10.6894z" fill="#5a5ab5"/><path d="m181.749 139.789h10.6894v10.6894h-10.6894z" fill="#a0a0ff"/><path d="m192.438 129.102h10.6894v10.6894h-10.6894z" fill="#5a5ab5"/><path d="m192.438 118.414h10.6894v10.6894h-10.6894z" fill="#a0a0ff"/><path d="m0 0h10.6894v10.6894h-10.6894z" fill="#5a5ab5" transform="matrix(1 0 0 -1 171.059 11.5234)"/><path d="m0 0h10.6894v10.6894h-10.6894z" fill="#5a5ab5" transform="matrix(1 0 0 -1 181.749 11.5234)"/><path d="m0 0h10.6894v10.6894h-10.6894z" fill="#a0a0ff" transform="matrix(1 0 0 -1 181.749 22.2031)"/><path d="m0 0h10.6894v10.6894h-10.6894z" fill="#5a5ab5" transform="matrix(1 0 0 -1 192.438 32.8984)"/><path d="m0 0h10.6894v10.6894h-10.6894z" fill="#a0a0ff" transform="matrix(1 0 0 -1 192.438 43.5859)"/><path d="m0 0h10.6894v10.6894h-10.6894z" fill="#5a5ab5" transform="matrix(-1 0 0 1 160.37 150.484)"/><path d="m0 0h10.6894v10.6894h-10.6894z" fill="#5a5ab5" transform="matrix(-1 0 0 1 149.68 150.484)"/><path d="m0 0h10.6894v10.6894h-10.6894z" fill="#a0a0ff" transform="matrix(-1 0 0 1 149.68 139.789)"/><path d="m0 0h10.6894v10.6894h-10.6894z" fill="#5a5ab5" transform="matrix(-1 0 0 1 138.991 129.102)"/><path d="m0 0h10.6894v10.6894h-10.6894z" fill="#a0a0ff" transform="matrix(-1 0 0 1 138.991 118.414)"/><path d="m160.37 11.5234h10.6894v10.6894h-10.6894z" fill="#5a5ab5" transform="matrix(-1 0 -0 -1 320.74 23.0468)"/><path d="m149.68 11.5234h10.6894v10.6894h-10.6894z" fill="#5a5ab5" transform="matrix(-1 0 -0 -1 299.36 23.0468)"/><path d="m149.68 22.2031h10.6894v10.6894h-10.6894z" fill="#a0a0ff" transform="matrix(-1 0 -0 -1 299.36 44.4062)"/><path d="m138.991 32.8984h10.6894v10.6894h-10.6894z" fill="#5a5ab5" transform="matrix(-1 0 -0 -1 277.982 65.7968)"/><path d="m138.991 43.5859h10.6894v10.6894h-10.6894z" fill="#a0a0ff" transform="matrix(-1 0 -0 -1 277.982 87.1718)"/><path d="m192.438.828125h10.6894v10.6894h-10.6894z" fill="#a0a0ff"/><path d="m203.127 11.5234h10.6894v10.6894h-10.6894z" fill="#5a5ab5"/><path d="m213.816 11.5234h10.6894v10.6894h-10.6894z" fill="#a0a0ff"/><path d="m224.506 22.2031h10.6894v10.6894h-10.6894z" fill="#a0a0ff"/><path d="m235.196 32.8984h10.6894v10.6894h-10.6894z" fill="#a0a0ff"/><path d="m245.885 43.5859h10.6894v10.6894h-10.6894z" fill="#a0a0ff"/><path d="m245.885 54.2812h10.6894v10.6894h-10.6894z" fill="#a0a0ff"/><path d="m256.573 64.9609h10.6894v10.6894h-10.6894z" fill="#a0a0ff"/><path d="m0 0h10.6894v10.6894h-10.6894z" fill="#a0a0ff" transform="matrix(1 0 0 -1 192.438 161.164)"/><path d="m0 0h10.6894v10.6894h-10.6894z" fill="#5a5ab5" transform="matrix(1 0 0 -1 203.127 150.484)"/><path d="m0 0h10.6894v10.6894h-10.6894z" fill="#a0a0ff" transform="matrix(1 0 0 -1 213.816 150.484)"/><path d="m0 0h10.6894v10.6894h-10.6894z" fill="#a0a0ff" transform="matrix(1 0 0 -1 224.506 139.789)"/><path d="m0 0h10.6894v10.6894h-10.6894z" fill="#a0a0ff" transform="matrix(1 0 0 -1 235.196 129.102)"/><path d="m0 0h10.6894v10.6894h-10.6894z" fill="#a0a0ff" transform="matrix(1 0 0 -1 245.885 118.414)"/><path d="m0 0h10.6894v10.6894h-10.6894z" fill="#a0a0ff" transform="matrix(1 0 0 -1 245.885 107.719)"/><path d="m0 0h10.6894v10.6894h-10.6894z" fill="#a0a0ff" transform="matrix(1 0 0 -1 256.573 97.0312)"/><path d="m0 0h10.6894v10.6894h-10.6894z" fill="#a0a0ff" transform="matrix(-1 0 0 1 138.991 .828125)"/><path d="m0 0h10.6894v10.6894h-10.6894z" fill="#5a5ab5" transform="matrix(-1 0 0 1 128.302 11.5234)"/><path d="m0 0h10.6894v10.6894h-10.6894z" fill="#a0a0ff" transform="matrix(-1 0 0 1 117.611 11.5234)"/><path d="m0 0h10.6894v10.6894h-10.6894z" fill="#a0a0ff" transform="matrix(-1 0 0 1 106.923 22.2031)"/><path d="m0 0h10.6894v10.6894h-10.6894z" fill="#a0a0ff" transform="matrix(-1 0 0 1 96.2324 32.8984)"/><path d="m0 0h10.6894v10.6894h-10.6894z" fill="#a0a0ff" transform="matrix(-1 0 0 1 85.5439 43.5859)"/><path d="m0 0h10.6894v10.6894h-10.6894z" fill="#a0a0ff" transform="matrix(-1 0 0 1 85.5439 54.2812)"/><path d="m0 0h10.6894v10.6894h-10.6894z" fill="#a0a0ff" transform="matrix(-1 0 0 1 74.8545 64.9609)"/><path d="m138.991 161.164h10.6894v10.6894h-10.6894z" fill="#a0a0ff" transform="matrix(-1 0 -0 -1 277.982 322.328)"/><path d="m128.302 150.484h10.6894v10.6894h-10.6894z" fill="#5a5ab5" transform="matrix(-1 0 -0 -1 256.604 300.968)"/><path d="m117.611 150.484h10.6894v10.6894h-10.6894z" fill="#a0a0ff" transform="matrix(-1 0 -0 -1 235.222 300.968)"/><path d="m106.923 139.789h10.6894v10.6894h-10.6894z" fill="#a0a0ff" transform="matrix(-1 0 -0 -1 213.846 279.578)"/><path d="m96.2324 129.102h10.6894v10.6894h-10.6894z" fill="#a0a0ff" transform="matrix(-1 0 -0 -1 192.4648 258.204)"/><path d="m85.5439 118.414h10.6894v10.6894h-10.6894z" fill="#a0a0ff" transform="matrix(-1 0 -0 -1 171.0878 236.828)"/><path d="m85.5439 107.719h10.6894v10.6894h-10.6894z" fill="#a0a0ff" transform="matrix(-1 0 -0 -1 171.0878 215.438)"/><path d="m74.8545 97.0312h10.6894v10.6894h-10.6894z" fill="#a0a0ff" transform="matrix(-1 0 -0 -1 149.709 194.0624)"/><path d="m213.816.828125h10.6894v10.6894h-10.6894z" fill="#5a5ab5"/><path d="m224.506 11.5234h10.6894v10.6894h-10.6894z" fill="#5a5ab5"/><path d="m224.506.828125h10.6894v10.6894h-10.6894z" fill="#a0a0ff"/><path d="m235.196 11.5234h10.6894v10.6894h-10.6894z" fill="#a0a0ff"/><path d="m245.885 22.2031h10.6894v10.6894h-10.6894z" fill="#a0a0ff"/><path d="m245.885 11.5234h10.6894v10.6894h-10.6894z" fill="#5a5ab5"/><path d="m256.573 22.2031h10.6894v10.6894h-10.6894z" fill="#5a5ab5"/><path d="m267.264 32.8984h10.6894v10.6894h-10.6894z" fill="#a0a0ff"/><path d="m277.953 43.5859h10.6894v10.6894h-10.6894z" fill="#a0a0ff"/><path d="m288.642 54.2812h10.6894v10.6894h-10.6894z" fill="#a0a0ff"/><path d="m288.642 64.9609h10.6894v10.6894h-10.6894z" fill="#5a5ab5"/><path d="m203.127.828125h10.6894v10.6894h-10.6894z" fill="#5a5ab5"/><path d="m0 0h10.6894v10.6894h-10.6894z" fill="#5a5ab5" transform="matrix(1 0 0 -1 213.816 161.164)"/><path d="m0 0h10.6894v10.6894h-10.6894z" fill="#5a5ab5" transform="matrix(1 0 0 -1 203.127 161.164)"/><path d="m0 0h10.6894v10.6894h-10.6894z" fill="#5a5ab5" transform="matrix(1 0 0 -1 224.506 150.484)"/><path d="m0 0h10.6894v10.6894h-10.6894z" fill="#a0a0ff" transform="matrix(1 0 0 -1 224.506 161.164)"/><path d="m0 0h10.6894v10.6894h-10.6894z" fill="#a0a0ff" transform="matrix(1 0 0 -1 235.196 150.484)"/><path d="m0 0h10.6894v10.6894h-10.6894z" fill="#a0a0ff" transform="matrix(1 0 0 -1 245.885 139.789)"/><path d="m0 0h10.6894v10.6894h-10.6894z" fill="#5a5ab5" transform="matrix(1 0 0 -1 245.885 150.484)"/><path d="m0 0h10.6894v10.6894h-10.6894z" fill="#5a5ab5" transform="matrix(1 0 0 -1 256.573 139.789)"/><path d="m0 0h10.6894v10.6894h-10.6894z" fill="#a0a0ff" transform="matrix(1 0 0 -1 267.264 129.102)"/><path d="m0 0h10.6894v10.6894h-10.6894z" fill="#a0a0ff" transform="matrix(1 0 0 -1 277.953 118.414)"/><path d="m0 0h10.6894v10.6894h-10.6894z" fill="#a0a0ff" transform="matrix(1 0 0 -1 288.642 107.719)"/><path d="m0 0h10.6894v10.6894h-10.6894z" fill="#5a5ab5" transform="matrix(1 0 0 -1 288.642 97.0312)"/><path d="m0 0h10.6894v10.6894h-10.6894z" fill="#5a5ab5" transform="matrix(-1 0 0 1 117.611 .828125)"/><path d="m0 0h10.6894v10.6894h-10.6894z" fill="#5a5ab5" transform="matrix(-1 0 0 1 106.923 11.5234)"/><path d="m0 0h10.6894v10.6894h-10.6894z" fill="#a0a0ff" transform="matrix(-1 0 0 1 106.923 .828125)"/><path d="m0 0h10.6894v10.6894h-10.6894z" fill="#a0a0ff" transform="matrix(-1 0 0 1 96.2324 11.5234)"/><path d="m0 0h10.6894v10.6894h-10.6894z" fill="#a0a0ff" transform="matrix(-1 0 0 1 85.5439 22.2031)"/><path d="m0 0h10.6894v10.6894h-10.6894z" fill="#5a5ab5" transform="matrix(-1 0 0 1 85.5439 11.5234)"/><path d="m0 0h10.6894v10.6894h-10.6894z" fill="#5a5ab5" transform="matrix(-1 0 0 1 74.8545 22.2031)"/><path d="m0 0h10.6894v10.6894h-10.6894z" fill="#a0a0ff" transform="matrix(-1 0 0 1 64.165 32.8984)"/><path d="m0 0h10.6894v10.6894h-10.6894z" fill="#a0a0ff" transform="matrix(-1 0 0 1 53.4756 43.5859)"/><path d="m0 0h10.6894v10.6894h-10.6894z" fill="#a0a0ff" transform="matrix(-1 0 0 1 42.7871 54.2812)"/><path d="m0 0h10.6894v10.6894h-10.6894z" fill="#5a5ab5" transform="matrix(-1 0 0 1 42.7871 64.9609)"/><path d="m0 0h10.6894v10.6894h-10.6894z" fill="#5a5ab5" transform="matrix(-1 0 0 1 128.302 .828125)"/><path d="m117.611 161.164h10.6894v10.6894h-10.6894z" fill="#5a5ab5" transform="matrix(-1 0 -0 -1 235.222 322.328)"/><path d="m128.302 161.164h10.6894v10.6894h-10.6894z" fill="#5a5ab5" transform="matrix(-1 0 -0 -1 256.604 322.328)"/><path d="m106.923 150.484h10.6894v10.6894h-10.6894z" fill="#5a5ab5" transform="matrix(-1 0 -0 -1 213.846 300.968)"/><path d="m106.923 161.164h10.6894v10.6894h-10.6894z" fill="#a0a0ff" transform="matrix(-1 0 -0 -1 213.846 322.328)"/><path d="m96.2324 150.484h10.6894v10.6894h-10.6894z" fill="#a0a0ff" transform="matrix(-1 0 -0 -1 192.4648 300.968)"/><path d="m85.5439 139.789h10.6894v10.6894h-10.6894z" fill="#a0a0ff" transform="matrix(-1 0 -0 -1 171.0878 279.578)"/><path d="m85.5439 150.484h10.6894v10.6894h-10.6894z" fill="#5a5ab5" transform="matrix(-1 0 -0 -1 171.0878 300.968)"/><path d="m74.8545 139.789h10.6894v10.6894h-10.6894z" fill="#5a5ab5" transform="matrix(-1 0 -0 -1 149.709 279.578)"/><path d="m64.165 129.102h10.6894v10.6894h-10.6894z" fill="#a0a0ff" transform="matrix(-1 0 -0 -1 128.33 258.204)"/><path d="m53.4756 118.414h10.6894v10.6894h-10.6894z" fill="#a0a0ff" transform="matrix(-1 0 -0 -1 106.9512 236.828)"/><path d="m42.7871 107.719h10.6894v10.6894h-10.6894z" fill="#a0a0ff" transform="matrix(-1 0 -0 -1 85.5742 215.438)"/><path d="m42.7871 97.0312h10.6894v10.6894h-10.6894z" fill="#5a5ab5" transform="matrix(-1 0 -0 -1 85.5742 194.0624)"/><path d="m256.573 11.5234h10.6894v10.6894h-10.6894z" fill="#a0a0ff"/><path d="m267.264 11.5234h10.6894v10.6894h-10.6894z" fill="#a0a0ff"/><path d="m267.264 22.2031h10.6894v10.6894h-10.6894z" fill="#5a5ab5"/><path d="m277.953 22.2031h10.6894v10.6894h-10.6894z" fill="#a0a0ff"/><path d="m288.642 22.2031h10.6894v10.6894h-10.6894z" fill="#a0a0ff"/><path d="m288.642 32.8984h10.6894v10.6894h-10.6894z" fill="#5a5ab5"/><path d="m299.332 32.8984h10.6894v10.6894h-10.6894z" fill="#a0a0ff"/><path d="m299.332 43.5859h10.6894v10.6894h-10.6894z" fill="#5a5ab5"/><path d="m310.021 43.5859h10.6894v10.6894h-10.6894z" fill="#a0a0ff"/><path d="m320.711 54.2812h10.6894v10.6894h-10.6894z" fill="#a0a0ff"/><path d="m320.711 64.9609h10.6894v10.6894h-10.6894z" fill="#a0a0ff"/><path d="m0 0h10.6894v10.6894h-10.6894z" fill="#a0a0ff" transform="matrix(1 0 0 -1 256.573 150.484)"/><path d="m0 0h10.6894v10.6894h-10.6894z" fill="#a0a0ff" transform="matrix(1 0 0 -1 267.264 150.484)"/><path d="m0 0h10.6894v10.6894h-10.6894z" fill="#5a5ab5" transform="matrix(1 0 0 -1 267.264 139.789)"/><path d="m0 0h10.6894v10.6894h-10.6894z" fill="#a0a0ff" transform="matrix(1 0 0 -1 277.953 139.789)"/><path d="m0 0h10.6894v10.6894h-10.6894z" fill="#a0a0ff" transform="matrix(1 0 0 -1 288.642 139.789)"/><path d="m0 0h10.6894v10.6894h-10.6894z" fill="#5a5ab5" transform="matrix(1 0 0 -1 288.642 129.102)"/><path d="m0 0h10.6894v10.6894h-10.6894z" fill="#a0a0ff" transform="matrix(1 0 0 -1 299.332 129.102)"/><path d="m0 0h10.6894v10.6894h-10.6894z" fill="#5a5ab5" transform="matrix(1 0 0 -1 299.332 118.414)"/><path d="m0 0h10.6894v10.6894h-10.6894z" fill="#a0a0ff" transform="matrix(1 0 0 -1 310.021 118.414)"/><path d="m0 0h10.6894v10.6894h-10.6894z" fill="#a0a0ff" transform="matrix(1 0 0 -1 320.711 107.719)"/><path d="m0 0h10.6894v10.6894h-10.6894z" fill="#a0a0ff" transform="matrix(1 0 0 -1 320.711 97.0312)"/><path d="m0 0h10.6894v10.6894h-10.6894z" fill="#a0a0ff" transform="matrix(-1 0 0 1 74.8545 11.5234)"/><path d="m0 0h10.6894v10.6894h-10.6894z" fill="#a0a0ff" transform="matrix(-1 0 0 1 64.165 11.5234)"/><path d="m0 0h10.6894v10.6894h-10.6894z" fill="#5a5ab5" transform="matrix(-1 0 0 1 64.165 22.2031)"/><path d="m0 0h10.6894v10.6894h-10.6894z" fill="#a0a0ff" transform="matrix(-1 0 0 1 53.4756 22.2031)"/><path d="m0 0h10.6894v10.6894h-10.6894z" fill="#a0a0ff" transform="matrix(-1 0 0 1 42.7871 22.2031)"/><path d="m0 0h10.6894v10.6894h-10.6894z" fill="#5a5ab5" transform="matrix(-1 0 0 1 42.7871 32.8984)"/><path d="m0 0h10.6894v10.6894h-10.6894z" fill="#a0a0ff" transform="matrix(-1 0 0 1 32.0967 32.8984)"/><path d="m0 0h10.6894v10.6894h-10.6894z" fill="#5a5ab5" transform="matrix(-1 0 0 1 32.0967 43.5859)"/><path d="m0 0h10.6894v10.6894h-10.6894z" fill="#a0a0ff" transform="matrix(-1 0 0 1 21.4082 43.5859)"/><path d="m0 0h10.6894v10.6894h-10.6894z" fill="#a0a0ff" transform="matrix(-1 0 0 1 10.7178 54.2812)"/><path d="m0 0h10.6894v10.6894h-10.6894z" fill="#a0a0ff" transform="matrix(-1 0 0 1 10.7178 64.9609)"/><path d="m74.8545 150.484h10.6894v10.6894h-10.6894z" fill="#a0a0ff" transform="matrix(-1 0 -0 -1 149.709 300.968)"/><path d="m64.165 150.484h10.6894v10.6894h-10.6894z" fill="#a0a0ff" transform="matrix(-1 0 -0 -1 128.33 300.968)"/><path d="m64.165 139.789h10.6894v10.6894h-10.6894z" fill="#5a5ab5" transform="matrix(-1 0 -0 -1 128.33 279.578)"/><path d="m53.4756 139.789h10.6894v10.6894h-10.6894z" fill="#a0a0ff" transform="matrix(-1 0 -0 -1 106.9512 279.578)"/><path d="m42.7871 139.789h10.6894v10.6894h-10.6894z" fill="#a0a0ff" transform="matrix(-1 0 -0 -1 85.5742 279.578)"/><path d="m42.7871 129.102h10.6894v10.6894h-10.6894z" fill="#5a5ab5" transform="matrix(-1 0 -0 -1 85.5742 258.204)"/><path d="m32.0967 129.102h10.6894v10.6894h-10.6894z" fill="#a0a0ff" transform="matrix(-1 0 -0 -1 64.1934 258.204)"/><path d="m32.0967 118.414h10.6894v10.6894h-10.6894z" fill="#5a5ab5" transform="matrix(-1 0 -0 -1 64.1934 236.828)"/><path d="m21.4082 118.414h10.6894v10.6894h-10.6894z" fill="#a0a0ff" transform="matrix(-1 0 -0 -1 42.8164 236.828)"/><path d="m10.7178 107.719h10.6894v10.6894h-10.6894z" fill="#a0a0ff" transform="matrix(-1 0 -0 -1 21.4356 215.438)"/><path d="m10.7178 97.0312h10.6894v10.6894h-10.6894z" fill="#a0a0ff" transform="matrix(-1 0 -0 -1 21.4356 194.0624)"/><path d="m160.37 139.789h10.6894v10.6894h-10.6894z" fill="#5a5ab5"/><path d="m160.37 118.414h10.6894v10.6894h-10.6894z" fill="#5a5ab5"/><path d="m160.37 22.2031h10.6894v10.6894h-10.6894z" fill="#a0a0ff"/><path d="m160.37.828125h10.6894v10.6894h-10.6894z" fill="#a0a0ff"/><path d="m160.37 150.484h10.6894v10.6894h-10.6894z" fill="#a0a0ff"/><path d="m160.37 129.102h10.6894v10.6894h-10.6894z" fill="#a0a0ff"/><path d="m160.37 32.8984h10.6894v10.6894h-10.6894z" fill="#5a5ab5"/><path d="m160.37 11.5234h10.6894v10.6894h-10.6894z" fill="#5a5ab5"/><path d="m64.165 75.6562h10.6894v10.6894h-10.6894z" fill="#a0a0ff" transform="matrix(0 1 -1 0 139.8212 11.4912)"/><path d="m42.7871 75.6562h10.6894v10.6894h-10.6894z" fill="#a0a0ff" transform="matrix(0 1 -1 0 118.4433 32.8691)"/><path d="m267.264 75.6562h10.6894v10.6894h-10.6894z" fill="#5a5ab5" transform="matrix(0 1 -1 0 342.9202 -191.6078)"/><path d="m85.5439 75.6562h10.6894v10.6894h-10.6894z" fill="#a0a0ff" transform="matrix(0 1 -1 0 161.2001 -9.8877)"/><path d="m288.642 75.6562h10.6894v10.6894h-10.6894z" fill="#5a5ab5" transform="matrix(0 1 -1 0 364.2982 -212.9858)"/><path d="m245.885 75.6562h10.6894v10.6894h-10.6894z" fill="#5a5ab5" transform="matrix(0 1 -1 0 321.5412 -170.2288)"/><path d="m310.021 75.6562h10.6894v10.6894h-10.6894z" fill="#5a5ab5" transform="matrix(0 1 -1 0 385.6772 -234.3648)"/><path d="m320.711 75.6562h10.6894v10.6894h-10.6894z" fill="#a0a0ff" transform="matrix(0 1 -1 0 396.3672 -245.0548)"/><path d="m331.399 75.6562h10.6894v10.6894h-10.6894z" fill="#a0a0ff" transform="matrix(0 1 -1 0 407.0552 -255.7428)"/><path d="m106.923 75.6562h10.6894v10.6894h-10.6894z" fill="#a0a0ff" transform="matrix(0 1 -1 0 182.5792 -31.2668)"/><path d="m53.4756 75.6562h10.6894v10.6894h-10.6894z" fill="#5a5ab5" transform="matrix(0 1 -1 0 129.1318 22.1806)"/><path d="m32.0967 75.6562h10.6894v10.6894h-10.6894z" fill="#5a5ab5" transform="matrix(0 1 -1 0 107.7529 43.5595)"/><path d="m21.4082 75.6562h10.6894v10.6894h-10.6894z" fill="#a0a0ff" transform="matrix(0 1 -1 0 97.0644 54.248)"/><path d="m10.7178 75.6562h10.6894v10.6894h-10.6894z" fill="#a0a0ff" transform="matrix(0 1 -1 0 86.374 64.9384)"/><path d="m96.2324 75.6562h10.6894v10.6894h-10.6894z" fill="#5a5ab5" transform="matrix(0 1 -1 0 171.8886 -20.5762)"/><path d="m256.573 75.6562h10.6894v10.6894h-10.6894z" fill="#a0a0ff" transform="matrix(0 1 -1 0 332.2292 -180.9168)"/><path d="m74.8545 75.6562h10.6894v10.6894h-10.6894z" fill="#5a5ab5" transform="matrix(0 1 -1 0 150.5107 .8017)"/><path d="m277.953 75.6562h10.6894v10.6894h-10.6894z" fill="#a0a0ff" transform="matrix(0 1 -1 0 353.6092 -202.2968)"/><path d="m235.196 75.6562h10.6894v10.6894h-10.6894z" fill="#a0a0ff" transform="matrix(0 1 -1 0 310.8522 -159.5398)"/><path d="m299.332 75.6562h10.6894v10.6894h-10.6894z" fill="#a0a0ff" transform="matrix(0 1 -1 0 374.9882 -223.6758)"/><path d="m106.923 129.102h10.6894v10.6894h-10.6894z" fill="#5a5ab5"/><path d="m213.816 129.102h10.6894v10.6894h-10.6894z" fill="#5a5ab5"/><path d="m0 0h10.6894v10.6894h-10.6894z" fill="#5a5ab5" transform="matrix(1 0 0 -1 106.923 32.8984)"/><path d="m0 0h10.6894v10.6894h-10.6894z" fill="#5a5ab5" transform="matrix(1 0 0 -1 213.816 32.8984)"/><path d="m173.772 101.737v-41.4636h37.318v7.7004l-4.147 4.1464h-20.139v5.331h17.178v11.8468h-17.178v12.439z" fill="#c2c2ff"/><path d="m124.615 101.737v-41.4636h13.032v14.8085h17.77v-14.8085h13.031v41.4636h-13.031v-14.8084h-17.77v14.8084z" fill="#c2c2ff"/></svg>