<svg viewBox="0 0 754.53 300" xmlns="http://www.w3.org/2000/svg"><g fill="#c401c4"><path d="m332.46 100.75h10.48v22.71h17.94v-22.71h10.48v55.58h-10.48v-22.87h-17.94v22.87h-10.48z"/><path d="m409.16 144.42h-18.9l-2.7 11.91h-10.96l13.26-55.58h19.69l13.26 55.58h-10.96l-2.7-11.91zm-16.68-10h14.37l-6.43-28.42h-1.43z"/><path d="m447.66 147.92c2.01 0 3.66-.3 4.96-.91s2.3-1.43 3.02-2.46c.71-1.03 1.2-2.22 1.47-3.57.26-1.35.4-2.74.4-4.17v-1.43h10.48v1.43c0 6.62-1.73 11.71-5.2 15.28s-8.51 5.36-15.12 5.36-11.38-1.93-15.08-5.8c-3.71-3.86-5.56-9.5-5.56-16.91v-12.39c0-3.55.48-6.73 1.43-9.57.95-2.83 2.33-5.21 4.13-7.15 1.8-1.93 3.97-3.41 6.51-4.45 2.54-1.03 5.4-1.55 8.57-1.55s6.19.48 8.73 1.43 4.67 2.33 6.39 4.13 3.02 3.97 3.89 6.51 1.31 5.4 1.31 8.57v1.43h-10.48v-1.43c0-1.32-.16-2.65-.48-3.97s-.85-2.51-1.59-3.57-1.75-1.92-3.02-2.58-2.86-.99-4.76-.99c-1.75 0-3.26.33-4.53.99s-2.33 1.56-3.18 2.7-1.47 2.46-1.87 3.97-.6 3.08-.6 4.72v13.97c0 1.8.19 3.45.56 4.96s.95 2.82 1.75 3.93 1.84 1.97 3.14 2.58 2.87.91 4.72.91z"/><path d="m487.6 156.33h-10.48v-55.58h10.48v22.79h2.3l14.69-22.79h11.83v.48l-17.15 26.6v1.43l18.1 26.6v.48h-12.31l-15.16-22.79h-2.3v22.79z"/><path d="m523.09 100.75h40.02v10h-14.77v45.57h-10.48v-45.57h-14.77z"/><path d="m570.41 122.35c0-7.2 1.81-12.78 5.44-16.75 3.62-3.97 8.64-5.96 15.05-5.96s11.42 1.98 15.05 5.96c3.62 3.97 5.44 9.56 5.44 16.75v12.39c0 7.41-1.81 13.05-5.44 16.91s-8.64 5.8-15.05 5.8-11.42-1.93-15.05-5.8c-3.63-3.86-5.44-9.5-5.44-16.91zm20.49 25.57c1.91 0 3.49-.3 4.76-.91s2.3-1.47 3.1-2.58 1.35-2.43 1.67-3.97c.32-1.53.48-3.23.48-5.08v-13.66c0-1.75-.19-3.39-.56-4.92s-.95-2.86-1.75-3.97c-.79-1.11-1.83-2-3.1-2.66s-2.81-.99-4.6-.99-3.34.33-4.6.99c-1.27.66-2.3 1.55-3.1 2.66s-1.38 2.43-1.75 3.97-.56 3.18-.56 4.92v13.66c0 1.85.16 3.55.48 5.08.32 1.54.87 2.86 1.67 3.97.79 1.11 1.83 1.97 3.1 2.58s2.86.91 4.76.91z"/><path d="m618.05 146.33h5.24v-35.57h-5.24v-10h24.38c2.65 0 4.99.37 7.03 1.11s3.76 1.75 5.16 3.02 2.46 2.79 3.18 4.57c.72 1.77 1.07 3.69 1.07 5.76v.95c0 3.18-.89 5.72-2.66 7.62-1.77 1.91-4.01 3.23-6.71 3.97v1.43c2.7.74 4.93 2.08 6.71 4.01 1.77 1.93 2.66 4.49 2.66 7.66v.95c0 2.06-.36 3.98-1.07 5.76-.71 1.77-1.77 3.31-3.18 4.6-1.4 1.3-3.12 2.32-5.16 3.06s-4.38 1.11-7.03 1.11h-24.38v-10zm15.72-22.87h7.62c2.22 0 4.02-.46 5.4-1.39s2.06-2.5 2.06-4.72v-.48c0-2.22-.69-3.8-2.06-4.72-1.38-.93-3.18-1.39-5.4-1.39h-7.62zm0 22.87h7.62c2.22 0 4.02-.48 5.4-1.43s2.06-2.54 2.06-4.76v-.48c0-2.22-.69-3.81-2.06-4.76-1.38-.95-3.18-1.43-5.4-1.43h-7.62z"/><path d="m668.7 100.75h35.09v10h-24.61v12.7h23.66v10h-23.66v12.86h25.57v10h-36.05v-55.58z"/><path d="m753.1 156.33h-10.48v-16.67c0-1.27-.33-2.3-.99-3.1-.66-.79-1.76-1.19-3.3-1.19h-12.07v20.96h-10.48v-55.58h21.28c2.86 0 5.37.4 7.54 1.19s3.98 1.89 5.44 3.3c1.45 1.4 2.57 3.03 3.33 4.88.77 1.85 1.15 3.84 1.15 5.96v1.91c0 2.28-.61 4.41-1.83 6.39-1.22 1.99-3.1 3.51-5.64 4.57v1.43c1.85.21 3.32.93 4.41 2.14 1.08 1.22 1.63 2.75 1.63 4.6v19.21zm-26.83-30.96h10c2.54 0 4.47-.6 5.8-1.79 1.32-1.19 1.98-2.87 1.98-5.04v-.95c0-1.85-.66-3.45-1.98-4.8s-3.26-2.02-5.8-2.02h-10v14.61z"/><path d="m332.46 176.18h35.57v10h-25.09v12.7h24.61v10h-24.61v22.87h-10.48v-55.58z"/><path d="m379.78 176.18h35.09v10h-24.61v12.7h23.66v10h-23.66v12.86h25.57v10h-36.05v-55.58z"/><path d="m454.89 193.17c0-2.22-.86-4.15-2.58-5.8-1.72-1.64-4.14-2.46-7.26-2.46-2.65 0-4.74.54-6.27 1.63-1.54 1.09-2.3 2.55-2.3 4.41 0 .95.19 1.81.56 2.58s1.02 1.46 1.95 2.06c.93.61 2.14 1.15 3.65 1.63s3.43.93 5.76 1.35c5.82 1.06 10.27 2.83 13.34 5.32s4.6 6.17 4.6 11.04v.95c0 2.59-.46 4.94-1.39 7.03s-2.26 3.88-4.01 5.36-3.86 2.62-6.35 3.41-5.29 1.19-8.42 1.19c-3.65 0-6.87-.52-9.65-1.55s-5.09-2.46-6.95-4.29c-1.85-1.83-3.26-3.97-4.21-6.43s-1.43-5.15-1.43-8.06v-2.38h10.48v1.91c0 3.34.97 6 2.9 7.98s4.94 2.98 9.01 2.98c3.18 0 5.53-.69 7.07-2.06 1.53-1.38 2.3-3.02 2.3-4.92 0-.9-.16-1.76-.48-2.58s-.87-1.56-1.67-2.22c-.79-.66-1.88-1.26-3.26-1.79s-3.12-.98-5.24-1.35c-2.81-.48-5.37-1.1-7.7-1.87s-4.35-1.79-6.07-3.06-3.06-2.86-4.01-4.76c-.95-1.91-1.43-4.23-1.43-6.99v-.48c0-2.28.46-4.38 1.39-6.31s2.22-3.61 3.89-5.04 3.68-2.54 6.03-3.34c2.35-.79 4.99-1.19 7.9-1.19 3.28 0 6.19.46 8.73 1.39s4.67 2.18 6.39 3.77 3.02 3.41 3.89 5.48 1.31 4.24 1.31 6.51v2.86h-10.48v-1.91z"/><path d="m473.15 176.18h40.02v10h-14.77v45.57h-10.48v-45.57h-14.77z"/><path d="m134.53 199.52v-132.33h-33.08v33.09h-33.64v33.08h33.64v66.16h-33.64v33.08h99.25v-33.08z"/><path d="m233.11 199.58v-99.25h-33.08v33.09h-33.08v33.08h33.08v66.16h33.08 33.08v-33.08z"/><path d="m68.03 299.93-33.85-33.3v-231.97h231.97l33.85 33.3v-67.96h-300v300z"/></g></svg>