<svg viewBox="0 0 300 430" xmlns="http://www.w3.org/2000/svg"><g fill="#c401c4"><path d="m92.63 338.61c-1.22-1.28-2.74-2.26-4.55-2.93-1.8-.68-3.95-1.02-6.21-1.02s-4.3.36-6.1 1.1c-1.8.73-3.35 1.79-4.62 3.16-1.28 1.37-2.26 3.06-2.93 5.08-.68 2.01-1.02 4.29-1.02 6.8v8.8c0 5.27 1.32 9.28 3.95 12.02 2.63 2.75 6.02 4.12 10.72 4.12s8.29-1.27 10.75-3.81c2.47-2.54 3.7-6.16 3.7-10.86v-1.02h-7.45v1.02c0 1.02-.09 2.01-.28 2.96-.19.96-.53 1.8-1.04 2.54-.51.73-1.22 1.32-2.15 1.75-.92.43-2.1.65-3.53.65-1.32 0-2.43-.23-3.35-.66s-1.66-1.05-2.23-1.83c-.56-.78-.98-1.72-1.24-2.79s-.39-2.25-.39-3.53v-9.93c0-1.16.14-2.28.42-3.35s.72-2.01 1.32-2.82 1.36-1.45 2.26-1.92 1.98-.71 3.21-.71c1.36 0 2.48.23 3.39.71.91.47 1.62 1.08 2.15 1.83s.9 1.6 1.13 2.54.34 1.88.34 2.82v1.02h7.45v-1.02c0-2.26-.31-4.3-.93-6.1s-1.54-3.35-2.77-4.62z"/><path d="m0 428.57h7.45v-16.25h17.5v-7.11h-17.5v-9.03h17.84v-7.11h-25.29z"/><path d="m100.01 396.18h10.49v32.39h7.45v-32.39h10.49v-7.11h-28.43z"/><path d="m118.57 354.69 12.19-18.91v-.33h-8.41l-10.44 16.19h-1.64v-16.19h-7.44v39.5h7.44.01v-16.19h1.64l10.77 16.19h8.75v-.34l-12.87-18.9z"/><path d="m91.86 408.76c-2.19-1.76-5.35-3.03-9.48-3.78-1.65-.3-3.02-.62-4.09-.96-1.07-.35-1.94-.73-2.59-1.16-.66-.43-1.11-.92-1.38-1.47-.26-.55-.39-1.16-.39-1.84 0-1.32.55-2.37 1.64-3.14 1.09-.78 2.58-1.16 4.46-1.16 2.22 0 3.94.58 5.17 1.75 1.22 1.17 1.83 2.54 1.83 4.12v.02s0 1.36 0 1.36h7.45v-2.03c0-1.61-.31-3.16-.93-4.62s-1.54-2.77-2.77-3.9c-1.22-1.13-2.74-2.02-4.55-2.68-1.8-.66-3.87-.99-6.21-.99-2.07 0-3.94.28-5.61.85-1.68.56-3.1 1.35-4.29 2.37-1.18 1.01-2.11 2.21-2.77 3.58s-.99 2.87-.99 4.48v.34c0 1.96.34 3.61 1.02 4.97s1.63 2.48 2.85 3.39c1.22.9 2.66 1.63 4.32 2.17s3.48.99 5.47 1.32c1.5.26 2.74.58 3.72.96.97.38 1.75.8 2.31 1.27s.96 1 1.18 1.58c.23.58.34 1.19.34 1.83 0 1.35-.55 2.52-1.64 3.5-1.1.98-2.77 1.47-5.02 1.47-2.89 0-5.03-.71-6.4-2.12s-2.06-3.31-2.06-5.67v-1.36h-7.45v1.69c0 2.07.34 3.98 1.02 5.73s1.68 3.27 2.99 4.57c1.32 1.3 2.96 2.31 4.94 3.05 1.98.73 4.26 1.1 6.86 1.1 2.22 0 4.21-.28 5.98-.85 1.77-.56 3.28-1.38 4.51-2.43 1.25-1.05 2.19-2.32 2.85-3.81.66-1.48.99-3.15.99-4.99v-.67c0-3.46-1.1-6.07-3.28-7.85z"/><path d="m41.08 412.31h16.82v-7.11h-16.82v-9.03h17.49v-7.1h-24.94l-.01-.01v39.5h25.63v-7.11h-18.17z"/><path d="m20.2 351.58h-12.75v-16.13h-7.45v39.5h7.45v-16.26h12.75v16.26h7.44v-39.5h-7.44z"/><path d="m40.78 335.45-9.42 39.5h7.79l1.92-8.47h13.42l1.92 8.47h7.79l-9.42-39.5zm1.88 23.93 4.62-20.21h1.02l4.57 20.21z"/><path d="m135.5 342.56h10.5v32.39h7.45v-32.39h10.49v-7.11h-28.44z"/><path d="m296.82 338.64c-1.03-1-2.32-1.78-3.86-2.34s-3.33-.85-5.36-.85h-15.13v39.5h7.45v-14.9h8.58c1.09 0 1.87.28 2.34.85.47.56.71 1.3.71 2.2v11.85h7.45s0-13.65 0-13.65c0-1.32-.39-2.41-1.16-3.28-.78-.86-1.82-1.37-3.14-1.52v-1.02c1.8-.75 3.14-1.84 4.01-3.25s1.3-2.93 1.3-4.55v-1.36c0-1.51-.27-2.92-.82-4.23-.54-1.32-1.33-2.48-2.37-3.47zm-4.27 9.45c0 1.54-.47 2.74-1.41 3.58-.94.85-2.32 1.27-4.12 1.27h-7.11v-10.39h7.11c1.81 0 3.18.49 4.12 1.44.94.96 1.41 2.1 1.41 3.42v.67z"/><path d="m0 .64v300l68.04-.06-33.86-33.31v-231.97h231.97l33.85 33.3v-67.96z"/><path d="m246.44 358.69h16.82v-7.11h-16.82v-9.02h17.5v-7.11h-24.94l-.01-.01v39.5h25.62v-7.11h-18.17z"/><path d="m233.12 200.23v-99.25h-33.08v33.09h-33.08v33.08h33.08v66.16h33.08 33.08v-33.08z"/><path d="m183.68 334.66c-4.55 0-8.11 1.41-10.69 4.23s-3.86 6.79-3.86 11.91v8.8c0 5.27 1.29 9.28 3.86 12.02 2.57 2.75 6.15 4.12 10.69 4.12s8.11-1.38 10.69-4.12c2.57-2.75 3.86-6.76 3.86-12.02v-8.8c0-5.11-1.29-9.08-3.86-11.91-2.57-2.82-6.15-4.23-10.69-4.23zm7.12 25.39c0 1.32-.11 2.52-.34 3.61s-.62 2.03-1.18 2.82-1.3 1.4-2.2 1.83-2.03.65-3.39.65-2.48-.22-3.39-.65c-.9-.43-1.64-1.04-2.2-1.83s-.96-1.73-1.18-2.82c-.23-1.09-.34-2.3-.34-3.61v-9.7c0-1.24.12-2.41.39-3.49.26-1.09.67-2.03 1.24-2.82.56-.79 1.3-1.42 2.2-1.89.91-.47 1.99-.71 3.28-.71s2.38.23 3.28.71c.9.47 1.64 1.1 2.2 1.89s.97 1.73 1.24 2.82c.26 1.09.39 2.26.39 3.49z"/><path d="m228.97 338.39c-.99-.91-2.22-1.62-3.67-2.15-1.45-.52-3.11-.79-4.99-.79h-17.32v7.11h3.72v25.29h-3.72v7.12h17.32c1.88 0 3.54-.27 4.99-.79 1.45-.53 2.67-1.25 3.67-2.17.99-.92 1.75-2.01 2.26-3.28.51-1.26.76-2.63.76-4.09v-.67c0-2.26-.63-4.08-1.89-5.45-1.26-1.38-2.85-2.33-4.77-2.85v-1.02c1.91-.52 3.5-1.46 4.77-2.82 1.26-1.36 1.89-3.16 1.89-5.42v-.67c0-1.47-.25-2.83-.76-4.09s-1.26-2.34-2.26-3.24zm-4.08 25.05c0 1.58-.49 2.71-1.46 3.39-.98.68-2.26 1.02-3.84 1.02h-5.42v-9.15h5.42c1.58 0 2.86.35 3.84 1.02s1.46 1.8 1.46 3.39v.34zm0-16.2c0 1.58-.49 2.7-1.46 3.35-.98.66-2.26.99-3.84.99h-5.42v-9.02h5.42c1.58 0 2.86.33 3.84.99s1.46 1.77 1.46 3.36v.34z"/><path d="m134.54 200.17v-132.33h-33.09v32.33h-33.63v33.08h33.63v66.92h-33.63v33.09h99.25v-33.09z"/></g></svg>