<svg width="2784" height="2064" viewBox="0 0 2784 2064" fill="none" xmlns="http://www.w3.org/2000/svg">
<path d="M2454.63 927.81L2454 903.9L2381.95 903.44C2386.46 984.5 2386.46 1013.77 2386.46 1150.66C2413.46 1162.37 2443.19 1174.53 2454.9 1183.08L2511.2 1120.49C2495.43 1119.14 2468.86 1110.14 2454 1101.58C2454 1020.97 2454 995.76 2454.9 968.29L2454.63 927.81Z" fill="#91A88C"/>
<path d="M1451.58 1101.58L1384 1150.66C1411 1162.37 1438.49 1174.53 1450.19 1183.08L1506.48 1120.49C1490.76 1119.14 1466.44 1110.14 1451.58 1101.58Z" fill="#677662"/>
<path d="M933.23 955.68L978 894.45L977.35 893.99L858 947.13C862.5 1000.26 862.5 1045.74 862.5 1136.71C892.67 1145.71 941.3 1164.62 980.5 1183.08L1033.19 1120.49C1002.12 1115.99 953.03 1105.18 930.07 1091.67C930.07 1034.03 930.07 1002.06 933.21 955.67L933.23 955.68Z" fill="#91A88C"/>
<path d="M698 1121.08L689.58 1118.24C664.82 1111.94 640.5 1103.83 620.24 1091.67C620.24 1034.03 621.24 1001.95 624.39 955.57H624.56L668.92 895L667.54 894L548.2 947.13C552.7 1000.26 552.7 1045.74 552.7 1136.71C577.92 1143.01 613.49 1164.62 646.36 1183.08C646.36 1183.08 686.9 1134.9 696.8 1123.19L698 1121.08Z" fill="#91A88C"/>
<path d="M1783.47 1130L1708.27 1119.64C1680.8 1112.89 1652.43 1104.78 1630.37 1091.72C1630.37 1034.53 1630.37 1002.56 1633.52 957.08L1633.83 957.13L1686.66 894L1558.32 947.14C1562.82 1000.27 1562.82 1045.75 1562.82 1136.72C1588.04 1143.02 1636.23 1169.59 1655.14 1183.09L1783.47 1130Z" fill="#91A88C"/>
<path d="M2315.18 1031.3H2259.94H2205C2205.44 1005.63 2206.34 983.12 2208.14 955.65L2208.47 955.75L2252.34 894H2252.29L2133 947.13C2137.5 1000.26 2137.5 1045.74 2137.5 1136.71C2167.66 1145.71 2216.3 1164.62 2255.5 1183.08L2308.19 1120.49C2277.12 1115.99 2228.03 1105.18 2205.07 1091.67V1051.14L2262.25 1073.66C2281.45 1057.15 2291.36 1048.15 2315.2 1031.33" fill="#91A88C"/>
<path d="M337 903.9L448.23 917.4L463.54 840.85L328.81 827.38L337 904.31C337 904.17 337 904 337 903.9Z" fill="#677662"/>
<path d="M478.38 1212.81C473.88 1131.75 473.88 1073.66 473.88 982.701C448.65 976.401 395.97 949.831 377.06 936.311L334.52 983.661V1003C358.31 1010.18 382.52 1018.72 401.83 1031.74C401.83 1103.74 401.83 1140.74 397.32 1221.74L478.38 1212.81Z" fill="#677662"/>
<path d="M2386.26 1151.12C2413.13 1162.76 2443.26 1174.59 2454.94 1183.12L2511.23 1120.53C2496.34 1119.25 2469.95 1109.62 2454.76 1101.53L2386.26 1151.12Z" fill="#677662"/>
<path d="M1539.38 1553L1524.28 1483.69L1446.08 1497.02C1430.97 1457.92 1424.31 1435.7 1414.53 1396.6C1436.75 1382.83 1484.74 1352.17 1505.17 1335.29C1541.17 1344.17 1577.6 1354.84 1606.92 1354.84L1588.26 1427.26C1559.83 1421.04 1518.95 1405.49 1492.26 1393.94L1517.58 1468.58L1585.58 1447.7C1597.58 1483.7 1605.58 1517.01 1613.58 1559.7C1585.14 1578.81 1558.93 1605.46 1542.93 1619.7C1495.83 1610.82 1470.06 1605.93 1420.74 1605.93C1427.85 1574.38 1440.74 1549.06 1452.74 1529.93L1539.38 1553Z" fill="#677662"/>
<path d="M1751.32 1344.15H1790.42L1784.2 1388.15H1750C1749.11 1425.48 1749.11 1466.79 1749.11 1539.22C1763.78 1547.66 1787.77 1556.55 1803.32 1557.88L1747.78 1619.64C1736.23 1611.2 1709.13 1599.2 1682.47 1587.64C1682.47 1505 1682.47 1442.35 1681.58 1388.14H1660.25C1668.25 1368.59 1672.25 1363.7 1680.25 1344.14C1679.81 1325.93 1678.92 1308.14 1678.04 1290.82L1753.57 1299.71C1752.65 1316.16 1751.76 1330.38 1751.32 1344.15Z" fill="#677662"/>
<path d="M1682.45 1587.64C1682.45 1505 1682.45 1442.35 1681.56 1388.14H1660.23C1668.23 1368.59 1672.23 1363.7 1680.23 1344.14C1679.79 1325.93 1678.9 1308.14 1678.02 1290.82L1753.55 1299.71C1752.66 1316.15 1751.77 1330.37 1751.33 1344.14H1790.43L1784.21 1388.14H1750C1749.11 1425.47 1749.11 1466.78 1749.11 1539.21" fill="#91A88C"/>
<path d="M1456.18 1495.28L1526 1466L1517.59 1468.58L1492.27 1393.94L1502.49 1337.42C1480.83 1354.64 1435.83 1383.42 1414.49 1396.6C1424.27 1435.7 1430.93 1457.92 1446.04 1497.02L1456.18 1495.28Z" fill="#91A88C"/>
<path d="M1539.39 1553L1452.75 1529.9C1440.75 1549.01 1427.86 1574.33 1420.75 1605.9C1470.07 1605.9 1495.84 1610.79 1542.94 1619.67C1558.72 1605.67 1584.46 1579.51 1612.46 1560.47L1539.39 1553Z" fill="#91A88C"/>
<path d="M1364.66 1365.75L1363.75 1470.67C1339.44 1487.79 1329.54 1496.8 1310.17 1513.46L1253 1490.94V1531.47C1276 1544.98 1325 1555.79 1356.12 1560.29L1303.43 1622.88C1264.25 1604.42 1215.61 1585.51 1185.43 1576.5C1185.43 1485.5 1185.43 1440.05 1180.93 1386.92L1300.26 1333.79C1319.18 1347.29 1336.74 1352.7 1364.66 1365.75ZM1307.92 1471.12V1416.19C1291.71 1408.09 1276.85 1402.19 1256.13 1395.48C1254.33 1422.94 1253.43 1445.48 1252.99 1471.12H1307.92Z" fill="#91A88C"/>
<path d="M1259 1395.48L1258.93 1396.42C1278.15 1402.78 1292.43 1408.42 1307.93 1416.19V1471.12H1363.13L1363.76 1470.67L1364.67 1365.75C1338.03 1353.3 1320.82 1347.75 1302.87 1335.58L1259 1395.48Z" fill="#677662"/>
<path d="M1089.65 1639.32L1090.29 1638.94C1089.4 1535.5 1090.29 1499.37 1092.95 1388.83H1116.98L1136.11 1338.12H1094.29L1099.5 1294.98C1126.64 1286.36 1148.05 1272.02 1168.5 1268.98C1167.62 1268.47 1113.54 1235.68 1102 1220.98C1090.43 1230.61 1050.7 1243.29 1024.01 1256.5C1025.34 1282.36 1026.68 1309.74 1027.57 1338.13H1027.13L1008 1388.85H1029.35C1029.61 1397.7 1029.85 1406.19 1030.08 1414.42H1021.13C1022.03 1477.12 1022.03 1601 1022.03 1696.58C1049.06 1709.94 1045.95 1704.21 1057.67 1713.98L1121.74 1654.64C1105.96 1653.08 1104.52 1650.33 1089.65 1640.58V1639.32Z" fill="#677662"/>
<path d="M1099 1302.48L1123.5 1288.98L1167.06 1317.29L1197.54 1270.75C1197.52 1270.48 1197.42 1269.48 1197.38 1269.26L1109.77 1212.42C1084.87 1228.08 1037.98 1249.5 1018 1257.98L1099 1302.48Z" fill="#677662"/>
<path d="M1094.41 1338.23L1099 1301.98L1109 1212.98C1100.8 1219.83 1065.29 1235.66 1047.15 1244.94V1244.6L1017.53 1257.84C1018.42 1277.9 1019.34 1298.48 1019.79 1319.52C1019.5 1319.84 1019.49 1327.44 1019.61 1338.19H985.547L968 1388.95H1020.5C1020.82 1403.51 1021.1 1414.55 1021.1 1414.55C1022 1477.31 1022 1601.31 1022 1696.98L1089.72 1640.93V1639.68L1090.37 1639.3C1089.47 1535.76 1090.37 1499.6 1093.03 1388.95H1136.26L1156 1338.23H1094.41Z" fill="#91A88C"/>
<path d="M337 904.31L328.85 827.38H328.46C307.75 844.5 282.54 864.3 260.02 878.26C264.52 959.32 262.72 1089.01 258.22 1174.12H338.82C336.68 1133.47 335.13 1086.62 334.56 1039.81V957.93L337 904.31Z" fill="#91A88C"/>
<path d="M1175.28 951.29C1177.11 899.29 1177.28 859.76 1179.12 827.34L1102.57 836.34C1107.08 917.34 1106.18 1037.17 1106.18 1174.07H1174.62V1052.5L1175.28 951.29Z" fill="#91A88C"/>
<path d="M1303 1043.49C1287.69 1036.73 1270.57 1028.63 1256.62 1021.43L1293.54 1007.43V926.86C1259.32 915.6 1247.61 908.86 1222.84 893.99C1222.84 893.99 1191.47 928.57 1175.67 946.35L1175.56 958.35C1197.18 962.35 1206.63 964.21 1226 969.6V993.5C1226 997.99 1195.1 1022.63 1174.84 1040.63L1174.74 1051.31L1175.74 1052.1C1201.74 1061.54 1221.54 1069.62 1235.46 1075.91C1235.46 1098.43 1235.01 1156.51 1235.01 1175.43L1303.01 1183.53C1300.71 1148.87 1300.71 1083.12 1303 1043.49Z" fill="#677662"/>
<path d="M933.23 955.68C961.61 965.13 979.62 972.341 1003.94 987.201L1041.76 926C1014.16 913.09 996.691 907.65 978.031 894.48L933.23 955.68Z" fill="#677662"/>
<path d="M760.3 1101.58C759.56 1021.06 759.84 1002.06 759.84 940.37C735.19 934.2 688.68 908.71 668.93 894.95L624.51 955.68L624.58 955.9C652.25 960.9 669.65 968.43 692.3 978.2C692.3 1019.2 691.19 1055.64 689.59 1118.2L698.01 1121.04L697.01 1123.39C714.55 1152.1 738.76 1174.96 750.01 1183.04L806.3 1120.45C790.92 1118.24 775.16 1110.14 760.3 1101.58Z" fill="#677662"/>
<path d="M1384 1150.66C1384 1066.91 1384 1003.41 1383.1 948.47H1361.48C1369.59 928.66 1373.64 923.71 1381.75 903.9C1381.3 885.43 1380.39 867.42 1379.49 849.9L1456.05 858.9C1455.15 875.56 1454.24 889.97 1453.79 903.9H1493.42L1487.12 948.47H1452.44C1451.54 986.3 1451.54 1028.18 1451.54 1101.58L1384 1150.66Z" fill="#91A88C"/>
<path d="M1633.62 957.34L1638.02 957.87C1664.02 962.75 1690.56 969.25 1711.42 978.2C1711.42 1020.52 1711.42 1053.84 1708.27 1119.59L1783.47 1129.95C1778.97 1048.89 1778.97 1002.06 1778.97 940.37C1753.76 934.06 1705.57 907.49 1686.66 893.99L1633.62 957.34Z" fill="#677662"/>
<path d="M1921.69 948C1924.31 890.11 1923.4 843.22 1924.44 813.85L1853.3 836.37C1854.64 917.37 1853.75 1075.03 1853.75 1136.73C1878.96 1143.03 1927.15 1169.6 1946.06 1183.1L2065.39 1130V1129.86L1989.94 1121.57V1121.4C1961.71 1116.45 1944.19 1108.8 1921.29 1098.92C1921.29 1076.92 1921.29 1018.77 1921.74 958.43L1921.69 948Z" fill="#91A88C"/>
<path d="M2065.38 1129.81C2060.89 1076.74 2060.89 1031.25 2060.89 940.37C2035.67 934.06 2000.09 912.45 1967.22 893.99C1967.22 893.99 1936.43 930.45 1921.91 947.82V958.42C1947.52 964.72 1972.25 973.26 1993.37 985.42C1993.37 1042.53 1992.37 1075.56 1989.96 1121.54L2065.38 1129.81Z" fill="#677662"/>
<path d="M2208.26 956.1L2211.14 957.01C2230.37 963.37 2244.07 968.25 2259.52 976.01V1030.95L2315.14 1031.37C2315.36 1031.21 2316.14 1030.58 2316.32 1030.43L2316.68 926C2290.04 913.54 2270.48 906 2252.53 893.79L2208.26 956.1Z" fill="#677662"/>
<path d="M2481.51 894.89L2455.39 927.31L2454.76 928.02V967.93L2457.96 969.58C2471.87 975.445 2485.45 982.079 2498.62 989.45L2552.62 927.76C2531.49 917.4 2503.58 905.69 2481.51 894.89Z" fill="#677662"/>
<path d="M2014.9 541.81C2013.6 541.19 2012.3 540.59 2011.02 540.01H2100.62C2102.89 540.01 2105.06 539.11 2106.66 537.509C2108.26 535.907 2109.16 533.735 2109.16 531.47C2109.16 529.205 2108.26 527.033 2106.66 525.431C2105.06 523.83 2102.89 522.93 2100.62 522.93H2012.15C2013.06 522.51 2013.98 522.09 2014.9 521.65C2050.1 504.87 2096.66 468.85 2118.53 392.54C2119.08 390.386 2118.76 388.105 2117.66 386.179C2116.55 384.253 2114.73 382.833 2112.6 382.221C2110.46 381.609 2108.17 381.852 2106.21 382.899C2104.25 383.946 2102.78 385.714 2102.1 387.83C2086.03 443.9 2054.45 483.62 2008.22 505.9C1973.53 522.62 1943.04 522.79 1942.61 522.79H1930.37C1929.92 522.801 1929.47 522.848 1929.02 522.93H1875.45C1876.4 520.071 1878.34 517.641 1880.91 516.07C1888.55 511.74 1896.91 510.81 1905.33 510.17C1930.41 508.27 1951.12 498.17 1966.65 478.04C1973.8 468.77 1977.57 458.22 1978.88 446.7C1979.38 442.29 1979.88 437.87 1980.12 433.45C1980.05 431.764 1979.82 430.089 1979.42 428.45C1963.48 434.21 1947.31 436.66 1931.42 440.45C1925.26 441.94 1919 443.62 1913.31 446.33C1889.46 457.69 1874.21 476.21 1868.44 502.2C1867.93 504.49 1867.98 506.9 1867.38 509.2C1866.75 513.778 1866.86 518.43 1867.73 522.97H1799.48C1807.45 516.721 1814.41 509.276 1820.1 500.9C1826.92 491.16 1833.1 480.56 1839.1 470.3C1848.28 454.63 1856.95 439.83 1867.58 427.82C1884.7 408.47 1906.96 397.65 1928.51 398.1H1979.77C1981.63 405.027 1985.93 411.053 1991.87 415.075C1997.81 419.097 2005 420.847 2012.12 420.005C2019.24 419.163 2025.83 415.786 2030.67 410.49C2035.51 405.194 2038.28 398.334 2038.47 391.163C2038.67 383.992 2036.28 376.99 2031.74 371.436C2027.2 365.882 2020.81 362.148 2013.75 360.916C2006.68 359.684 1999.4 361.036 1993.25 364.725C1987.1 368.415 1982.48 374.195 1980.24 381.01H1928.79C1902.17 380.44 1875.21 393.41 1854.79 416.49C1843.06 429.75 1833.55 445.98 1824.36 461.67C1818.53 471.67 1812.49 481.92 1806.07 491.1C1792.66 510.27 1777.31 519.73 1753.92 522.97H1725.75C1723.4 516.217 1718.71 510.531 1712.53 506.942C1706.35 503.354 1699.08 502.102 1692.06 503.413C1685.03 504.725 1678.7 508.513 1674.23 514.091C1669.76 519.668 1667.44 526.664 1667.68 533.808C1667.93 540.953 1670.73 547.772 1675.58 553.027C1680.43 558.282 1687 561.624 1694.1 562.448C1701.2 563.271 1708.36 561.52 1714.28 557.513C1720.2 553.506 1724.49 547.508 1726.36 540.61H1750.14L1750.55 540.56C1750.94 540.56 1751.3 540.47 1751.69 540.43C1776.33 543.37 1792.24 552.8 1806.07 572.56C1812.49 581.74 1818.53 592.04 1824.36 602C1833.55 617.69 1843.06 633.91 1854.79 647.17C1874.79 669.8 1901.12 682.67 1927.2 682.67H1928.79H1980.25C1982.49 689.493 1987.11 695.281 1993.27 698.976C1999.43 702.671 2006.71 704.026 2013.79 702.794C2020.86 701.561 2027.26 697.823 2031.8 692.264C2036.35 686.704 2038.74 679.694 2038.55 672.515C2038.35 665.336 2035.57 658.468 2030.73 653.167C2025.88 647.866 2019.29 644.485 2012.16 643.643C2005.03 642.802 1997.83 644.555 1991.89 648.583C1985.94 652.611 1981.64 658.644 1979.78 665.58H1928.52C1906.89 666.01 1884.71 655.21 1867.59 635.87C1856.96 623.87 1848.29 609.05 1839.11 593.38C1833.11 583.13 1826.89 572.53 1820.11 562.78C1814.24 554.087 1807.01 546.395 1798.7 540H1867.49C1866.9 544.06 1866.88 548.183 1867.42 552.25C1868.02 554.52 1867.97 556.93 1868.48 559.25C1874.25 585.25 1889.48 603.75 1913.35 615.12C1919.17 617.697 1925.24 619.664 1931.46 620.99C1947.31 624.81 1963.46 627.25 1979.46 632.99C1979.86 631.351 1980.09 629.676 1980.16 627.99C1979.88 623.56 1979.42 619.15 1978.92 614.74C1977.61 603.22 1973.84 592.67 1966.69 583.4C1951.16 563.29 1930.45 553.17 1905.37 551.27C1896.94 550.63 1888.59 549.7 1880.95 545.37C1878.85 544.116 1877.18 542.254 1876.16 540.03H1927.16C1928.2 540.464 1929.31 540.688 1930.43 540.69H1942.7C1943.1 540.69 1973.59 540.86 2008.28 557.58C2054.51 579.85 2086.09 619.58 2102.16 675.64C2102.67 677.422 2103.75 678.989 2105.23 680.105C2106.71 681.221 2108.52 681.827 2110.37 681.83C2111.17 681.833 2111.96 681.722 2112.73 681.5C2113.81 681.191 2114.82 680.673 2115.7 679.975C2116.58 679.276 2117.31 678.411 2117.85 677.43C2118.4 676.448 2118.74 675.369 2118.87 674.253C2118.99 673.138 2118.9 672.009 2118.59 670.93C2096.66 594.61 2050.1 558.59 2014.9 541.81ZM2008.68 377.52C2011.21 377.518 2013.69 378.267 2015.79 379.672C2017.9 381.078 2019.54 383.076 2020.51 385.415C2021.48 387.753 2021.74 390.327 2021.25 392.811C2020.75 395.295 2019.53 397.576 2017.75 399.367C2015.96 401.158 2013.67 402.379 2011.19 402.873C2008.71 403.368 2006.13 403.115 2003.79 402.147C2001.45 401.178 1999.46 399.537 1998.05 397.432C1996.64 395.327 1995.89 392.852 1995.89 390.32C1995.89 386.928 1997.24 383.675 1999.64 381.275C2002.04 378.876 2005.29 377.525 2008.68 377.52ZM2008.68 660.52C2011.21 660.518 2013.69 661.267 2015.79 662.672C2017.9 664.078 2019.54 666.076 2020.51 668.415C2021.48 670.753 2021.74 673.327 2021.25 675.811C2020.75 678.295 2019.53 680.576 2017.75 682.367C2015.96 684.158 2013.67 685.379 2011.19 685.873C2008.71 686.368 2006.13 686.115 2003.79 685.147C2001.45 684.178 1999.46 682.537 1998.05 680.432C1996.64 678.327 1995.89 675.852 1995.89 673.32C1995.89 671.636 1996.21 669.968 1996.85 668.41C1997.49 666.853 1998.43 665.437 1999.62 664.243C2000.81 663.05 2002.22 662.102 2003.78 661.455C2005.33 660.807 2007 660.473 2008.68 660.47V660.52ZM1697.62 545.52C1695.09 545.522 1692.61 544.773 1690.51 543.367C1688.4 541.961 1686.76 539.962 1685.79 537.623C1684.82 535.284 1684.56 532.709 1685.06 530.225C1685.55 527.741 1686.77 525.46 1688.56 523.669C1690.35 521.878 1692.63 520.659 1695.12 520.165C1697.6 519.672 1700.17 519.926 1702.51 520.896C1704.85 521.866 1706.85 523.508 1708.26 525.615C1709.66 527.721 1710.41 530.197 1710.41 532.73C1710.41 536.12 1709.06 539.371 1706.66 541.768C1704.26 544.165 1701.01 545.515 1697.62 545.52V545.52Z" fill="#677662"/>
<path d="M692.31 670.91C692 671.989 691.906 673.118 692.033 674.233C692.159 675.349 692.505 676.428 693.049 677.41C693.593 678.391 694.326 679.256 695.205 679.955C696.083 680.653 697.091 681.171 698.17 681.48C698.937 681.702 699.732 681.813 700.53 681.81C702.385 681.807 704.188 681.201 705.668 680.085C707.149 678.969 708.227 677.402 708.74 675.62C724.81 619.56 756.39 579.83 802.62 557.56C837.31 540.84 867.8 540.67 868.2 540.67H880.47C881.593 540.668 882.705 540.444 883.74 540.01H934.74C933.721 542.234 932.051 544.096 929.95 545.35C922.31 549.68 913.95 550.61 905.53 551.25C880.45 553.15 859.74 563.25 844.21 583.38C837 592.65 833.27 603.2 832 614.72C831.5 619.13 831 623.54 830.76 627.97C830.832 629.655 831.067 631.33 831.46 632.97C847.4 627.21 863.57 624.77 879.46 620.97C885.684 619.644 891.753 617.677 897.57 615.1C921.42 603.73 936.67 585.22 942.44 559.23C942.95 556.94 942.9 554.53 943.5 552.23C944.041 548.163 944.021 544.041 943.44 539.98H1012.22C1003.9 546.352 996.664 554.02 990.78 562.69C983.96 572.44 977.78 583.04 971.78 593.29C962.6 608.96 953.93 623.76 943.3 635.78C926.18 655.12 904.01 665.92 882.37 665.49H831C829.137 658.563 824.843 652.537 818.903 648.515C812.963 644.493 805.774 642.743 798.65 643.585C791.526 644.426 784.943 647.804 780.104 653.1C775.265 658.396 772.494 665.256 772.297 672.427C772.1 679.598 774.49 686.6 779.03 692.154C783.571 697.708 789.958 701.442 797.025 702.674C804.092 703.906 811.366 702.554 817.519 698.864C823.671 695.175 828.289 689.394 830.53 682.58H882H883.59C909.67 682.58 935.98 669.71 956 647.08C967.73 633.82 977.24 617.6 986.43 601.91C992.26 591.91 998.3 581.65 1004.72 572.47C1018.55 552.71 1034.46 543.28 1059.1 540.34C1059.49 540.34 1059.86 540.44 1060.24 540.47L1060.65 540.52H1084.44C1086.32 547.42 1090.61 553.418 1096.53 557.423C1102.46 561.429 1109.62 563.177 1116.73 562.35C1123.83 561.523 1130.4 558.175 1135.25 552.916C1140.09 547.656 1142.89 540.833 1143.13 533.686C1143.38 526.539 1141.05 519.542 1136.57 513.965C1132.09 508.388 1125.77 504.602 1118.74 503.294C1111.7 501.986 1104.44 503.244 1098.26 506.837C1092.07 510.431 1087.38 516.123 1085.04 522.88H1056.87C1033.48 519.64 1018.13 510.18 1004.72 491.01C998.3 481.83 992.27 471.54 986.43 461.58C977.24 445.89 967.73 429.66 956 416.4C935.57 393.32 908.61 380.35 882 380.92H830.52C828.279 374.097 823.656 368.309 817.498 364.614C811.34 360.919 804.058 359.564 796.983 360.796C789.908 362.029 783.513 365.766 778.967 371.326C774.421 376.886 772.028 383.896 772.225 391.075C772.423 398.253 775.198 405.121 780.042 410.423C784.887 415.724 791.478 419.105 798.61 419.947C805.742 420.788 812.939 419.035 818.884 415.007C824.83 410.979 829.127 404.946 830.99 398.01H882.25C903.8 397.56 926.06 408.38 943.18 427.73C953.81 439.73 962.48 454.54 971.67 470.21C977.67 480.47 983.88 491.07 990.67 500.81C996.364 509.186 1003.32 516.631 1011.29 522.88H943.07C943.937 518.34 944.055 513.688 943.42 509.11C942.82 506.84 942.87 504.43 942.36 502.11C936.59 476.11 921.36 457.6 897.49 446.24C891.8 443.53 885.49 441.85 879.38 440.36C863.53 436.55 847.38 434.1 831.38 428.36C830.988 430 830.753 431.675 830.68 433.36C830.96 437.78 831.42 442.2 831.92 446.61C833.23 458.13 837 468.68 844.15 477.95C859.68 498.06 880.39 508.18 905.47 510.08C913.9 510.72 922.25 511.65 929.89 515.98C932.462 517.551 934.396 519.981 935.35 522.84H881.82C881.375 522.757 880.923 522.71 880.47 522.7H868.23C867.8 522.7 837.31 522.53 802.62 505.81C756.39 483.53 724.81 443.81 708.74 387.74C708.459 386.63 707.958 385.588 707.266 384.675C706.574 383.763 705.706 382.998 704.713 382.428C703.721 381.857 702.623 381.491 701.487 381.353C700.35 381.214 699.197 381.306 698.096 381.621C696.995 381.937 695.969 382.47 695.079 383.19C694.188 383.91 693.451 384.801 692.911 385.811C692.372 386.821 692.04 387.929 691.937 389.069C691.834 390.21 691.961 391.359 692.31 392.45C714.18 468.76 760.74 504.78 795.94 521.56C796.86 522 797.78 522.42 798.69 522.84H710.22C707.955 522.84 705.783 523.74 704.182 525.341C702.58 526.943 701.68 529.115 701.68 531.38C701.68 533.645 702.58 535.817 704.182 537.419C705.783 539.02 707.955 539.92 710.22 539.92H799.82C798.54 540.5 797.24 541.1 795.94 541.72C760.74 558.59 714.18 594.61 692.31 670.91ZM815 390.32C815 392.852 814.249 395.327 812.842 397.432C811.436 399.537 809.436 401.178 807.096 402.147C804.757 403.115 802.183 403.368 799.7 402.873C797.216 402.379 794.936 401.158 793.146 399.367C791.356 397.576 790.138 395.295 789.645 392.811C789.152 390.327 789.407 387.753 790.378 385.415C791.348 383.076 792.99 381.078 795.096 379.672C797.203 378.267 799.678 377.518 802.21 377.52C805.603 377.525 808.854 378.876 811.252 381.275C813.65 383.675 814.998 386.928 815 390.32ZM815 673.32C815 675.852 814.249 678.327 812.842 680.432C811.436 682.537 809.436 684.178 807.096 685.147C804.757 686.115 802.183 686.368 799.7 685.873C797.216 685.379 794.936 684.158 793.146 682.367C791.356 680.576 790.138 678.295 789.645 675.811C789.152 673.327 789.407 670.753 790.378 668.415C791.348 666.076 792.99 664.078 795.096 662.672C797.203 661.267 799.678 660.518 802.21 660.52C805.594 660.525 808.838 661.869 811.234 664.258C813.631 666.647 814.985 669.886 815 673.27V673.32ZM1100.48 532.78C1100.48 530.248 1101.23 527.771 1102.63 525.665C1104.04 523.558 1106.04 521.916 1108.38 520.946C1110.72 519.976 1113.29 519.722 1115.78 520.215C1118.26 520.709 1120.54 521.928 1122.33 523.719C1124.12 525.51 1125.34 527.791 1125.83 530.275C1126.33 532.759 1126.07 535.334 1125.1 537.673C1124.13 540.012 1122.49 542.011 1120.39 543.417C1118.28 544.823 1115.8 545.572 1113.27 545.57C1111.58 545.574 1109.91 545.244 1108.35 544.601C1106.79 543.957 1105.38 543.011 1104.18 541.818C1102.99 540.625 1102.04 539.208 1101.4 537.648C1100.76 536.089 1100.43 534.417 1100.43 532.73L1100.48 532.78Z" fill="#677662"/>
<path d="M2164.21 689.77C2161.9 688.437 2159.99 686.52 2158.65 684.212C2157.32 681.904 2156.62 679.286 2156.62 676.62C2156.62 673.956 2155.92 671.338 2154.59 669.03C2153.26 666.722 2151.34 664.805 2149.04 663.471C2146.73 662.137 2144.12 661.434 2141.45 661.432C2138.79 661.431 2136.17 662.13 2133.86 663.46V663.46C2131.55 664.79 2128.93 665.489 2126.26 665.489C2123.6 665.489 2120.98 664.79 2118.67 663.46V663.46C2116.36 662.126 2113.75 661.423 2111.08 661.421C2108.42 661.419 2105.8 662.118 2103.49 663.449C2101.18 664.78 2099.26 666.695 2097.93 669.002C2096.6 671.308 2095.89 673.926 2095.89 676.59C2095.89 679.256 2095.19 681.875 2093.86 684.183C2092.53 686.492 2090.61 688.409 2088.3 689.74C2085.99 691.071 2084.07 692.986 2082.74 695.294C2081.4 697.602 2080.7 700.22 2080.7 702.885C2080.7 705.551 2081.4 708.169 2082.74 710.477C2084.07 712.784 2085.99 714.7 2088.3 716.03C2090.61 717.364 2092.52 719.281 2093.86 721.589C2095.19 723.897 2095.89 726.515 2095.89 729.18V729.18C2095.89 731.845 2096.59 734.463 2097.92 736.771C2099.25 739.079 2101.16 740.996 2103.47 742.33C2105.78 743.663 2108.39 744.367 2111.06 744.368C2113.72 744.37 2116.34 743.671 2118.65 742.34C2120.96 741.011 2123.58 740.311 2126.24 740.311C2128.9 740.311 2131.52 741.011 2133.83 742.34C2136.14 743.675 2138.75 744.378 2141.42 744.38C2144.08 744.382 2146.7 743.682 2149.01 742.352C2151.32 741.021 2153.24 739.106 2154.57 736.799C2155.9 734.492 2156.61 731.875 2156.61 729.21C2156.61 726.545 2157.32 723.926 2158.65 721.618C2159.98 719.31 2161.9 717.393 2164.21 716.06C2166.52 714.728 2168.43 712.812 2169.76 710.504C2171.1 708.197 2171.8 705.58 2171.8 702.915C2171.8 700.251 2171.1 697.634 2169.76 695.327C2168.43 693.019 2166.52 691.103 2164.21 689.77V689.77ZM2145.65 709.63C2144.47 710.312 2143.49 711.291 2142.81 712.47C2142.12 713.65 2141.76 714.988 2141.76 716.35C2141.76 717.714 2141.4 719.054 2140.72 720.235C2140.04 721.416 2139.06 722.396 2137.88 723.078C2136.7 723.759 2135.36 724.117 2133.99 724.116C2132.63 724.115 2131.29 723.754 2130.11 723.07C2128.93 722.387 2127.59 722.028 2126.23 722.028C2124.87 722.028 2123.53 722.387 2122.35 723.07C2121.17 723.751 2119.83 724.109 2118.47 724.109C2117.1 724.108 2115.76 723.749 2114.58 723.067C2113.4 722.385 2112.42 721.404 2111.74 720.224C2111.06 719.043 2110.7 717.704 2110.7 716.34C2110.7 714.977 2110.34 713.637 2109.66 712.456C2108.98 711.274 2108 710.293 2106.82 709.61C2105.64 708.928 2104.66 707.947 2103.98 706.767C2103.3 705.587 2102.94 704.248 2102.94 702.885C2102.94 701.523 2103.3 700.184 2103.98 699.004C2104.66 697.824 2105.64 696.843 2106.82 696.16C2108 695.479 2108.98 694.499 2109.66 693.319C2110.34 692.14 2110.7 690.802 2110.7 689.44C2110.7 688.077 2111.06 686.737 2111.74 685.556C2112.43 684.376 2113.41 683.396 2114.59 682.715C2115.77 682.034 2117.11 681.676 2118.48 681.677C2119.84 681.678 2121.18 682.038 2122.36 682.72C2123.54 683.403 2124.88 683.763 2126.24 683.763C2127.6 683.763 2128.94 683.403 2130.12 682.72C2131.3 682.04 2132.64 681.682 2134 681.682C2135.37 681.683 2136.71 682.042 2137.89 682.724C2139.07 683.406 2140.05 684.387 2140.73 685.567C2141.41 686.748 2141.77 688.087 2141.77 689.45V689.45C2141.77 690.814 2142.13 692.154 2142.81 693.335C2143.49 694.516 2144.47 695.498 2145.65 696.18C2146.83 696.863 2147.81 697.844 2148.49 699.024C2149.17 700.204 2149.53 701.543 2149.53 702.905C2149.53 704.268 2149.17 705.607 2148.49 706.787C2147.81 707.967 2146.83 708.948 2145.65 709.63V709.63Z" fill="#F74700"/>
<path d="M2126.24 715.031C2132.94 715.031 2138.37 709.6 2138.37 702.901C2138.37 696.201 2132.94 690.771 2126.24 690.771C2119.54 690.771 2114.11 696.201 2114.11 702.901C2114.11 709.6 2119.54 715.031 2126.24 715.031Z" fill="#F74700"/>
<path d="M2267.74 505.21C2263 502.472 2259.07 498.536 2256.33 493.797C2253.6 489.058 2252.15 483.683 2252.15 478.21C2252.15 454.21 2226.15 439.14 2205.34 451.15C2200.59 453.89 2195.21 455.332 2189.73 455.332C2184.25 455.332 2178.87 453.89 2174.12 451.15V451.15C2169.38 448.406 2163.99 446.959 2158.52 446.955C2153.04 446.95 2147.65 448.389 2142.9 451.125C2138.16 453.862 2134.21 457.8 2131.47 462.544C2128.73 467.288 2127.28 472.671 2127.28 478.15V478.15C2127.27 483.625 2125.82 489.001 2123.08 493.74C2120.34 498.479 2116.4 502.414 2111.66 505.15V505.15C2106.91 507.889 2102.97 511.829 2100.23 516.575C2097.49 521.321 2096.04 526.705 2096.04 532.185C2096.04 537.666 2097.49 543.05 2100.23 547.796C2102.97 552.542 2106.91 556.482 2111.66 559.22V559.22C2116.4 561.959 2120.33 565.895 2123.07 570.634C2125.8 575.373 2127.25 580.748 2127.25 586.22C2127.25 591.693 2128.69 597.068 2131.42 601.809C2134.16 606.55 2138.09 610.489 2142.82 613.232C2147.56 615.975 2152.93 617.425 2158.4 617.437C2163.87 617.449 2169.25 616.022 2174 613.3C2178.75 610.559 2184.13 609.116 2189.61 609.116C2195.09 609.116 2200.47 610.559 2205.22 613.3C2209.96 616.041 2215.34 617.486 2220.82 617.489C2226.3 617.492 2231.68 616.053 2236.43 613.317C2241.18 610.581 2245.12 606.644 2247.86 601.902C2250.61 597.16 2252.05 591.779 2252.06 586.3C2252.07 580.826 2253.51 575.449 2256.26 570.71C2259 565.971 2262.94 562.036 2267.68 559.3V559.3C2272.44 556.569 2276.39 552.632 2279.14 547.887C2281.89 543.142 2283.34 537.757 2283.34 532.273C2283.35 526.789 2281.91 521.4 2279.17 516.649C2276.43 511.898 2272.49 507.953 2267.74 505.21V505.21ZM2238.05 549C2235.11 550.695 2232.66 553.136 2230.96 556.077C2229.26 559.017 2228.37 562.354 2228.37 565.75C2228.36 569.141 2227.46 572.469 2225.76 575.403C2224.06 578.337 2221.62 580.773 2218.69 582.468C2215.75 584.163 2212.42 585.057 2209.03 585.061C2205.64 585.065 2202.31 584.179 2199.37 582.49C2196.43 580.793 2193.09 579.9 2189.7 579.9C2186.3 579.9 2182.96 580.793 2180.02 582.49C2177.08 584.183 2173.74 585.072 2170.35 585.068C2166.95 585.065 2163.62 584.168 2160.68 582.469C2157.75 580.77 2155.31 578.328 2153.61 575.389C2151.91 572.449 2151.02 569.114 2151.02 565.72C2151.02 562.322 2150.13 558.983 2148.43 556.039C2146.74 553.095 2144.29 550.65 2141.35 548.95V548.95C2138.41 547.252 2135.97 544.809 2134.27 541.868C2132.57 538.927 2131.68 535.591 2131.68 532.195C2131.68 528.8 2132.57 525.464 2134.27 522.523C2135.97 519.582 2138.41 517.139 2141.35 515.44C2144.29 513.745 2146.74 511.304 2148.44 508.364C2150.14 505.423 2151.03 502.087 2151.03 498.69C2151.04 495.299 2151.93 491.969 2153.63 489.033C2155.33 486.097 2157.77 483.66 2160.71 481.964C2163.64 480.269 2166.97 479.375 2170.37 479.372C2173.76 479.37 2177.09 480.259 2180.03 481.95C2182.97 483.648 2186.31 484.541 2189.71 484.541C2193.1 484.541 2196.44 483.648 2199.38 481.95C2202.32 480.255 2205.66 479.363 2209.05 479.365C2212.45 479.367 2215.78 480.263 2218.72 481.963C2221.66 483.663 2224.1 486.106 2225.8 489.048C2227.49 491.989 2228.38 495.325 2228.38 498.72C2228.38 502.117 2229.27 505.454 2230.97 508.396C2232.67 511.338 2235.11 513.781 2238.05 515.48C2240.99 517.18 2243.43 519.624 2245.13 522.566C2246.83 525.508 2247.72 528.844 2247.72 532.24C2247.72 535.637 2246.83 538.973 2245.13 541.915C2243.43 544.857 2240.99 547.3 2238.05 549Z" fill="#F74700"/>
<path d="M2189.68 502.2C2183.75 502.2 2177.95 503.96 2173.01 507.256C2168.08 510.553 2164.23 515.238 2161.96 520.72C2159.69 526.201 2159.1 532.233 2160.26 538.053C2161.41 543.872 2164.27 549.218 2168.47 553.413C2172.66 557.609 2178.01 560.466 2183.83 561.624C2189.65 562.781 2195.68 562.187 2201.16 559.917C2206.64 557.646 2211.33 553.801 2214.62 548.867C2217.92 543.934 2219.68 538.134 2219.68 532.2C2219.68 524.244 2216.52 516.613 2210.89 510.987C2205.27 505.361 2197.64 502.2 2189.68 502.2V502.2ZM2189.68 544.05C2187.34 544.05 2185.05 543.355 2183.1 542.053C2181.15 540.751 2179.63 538.9 2178.73 536.735C2177.84 534.57 2177.6 532.187 2178.06 529.888C2178.52 527.59 2179.64 525.478 2181.3 523.821C2182.96 522.164 2185.07 521.035 2187.37 520.578C2189.67 520.121 2192.05 520.355 2194.22 521.252C2196.38 522.149 2198.23 523.668 2199.53 525.617C2200.84 527.565 2201.53 529.856 2201.53 532.2C2201.53 535.343 2200.28 538.357 2198.06 540.579C2195.84 542.802 2192.82 544.05 2189.68 544.05Z" fill="#F74700"/>
<path d="M2164.21 349.38C2161.9 348.047 2159.99 346.13 2158.65 343.822C2157.32 341.514 2156.62 338.895 2156.62 336.23C2156.62 333.565 2155.92 330.948 2154.59 328.639C2153.26 326.331 2151.35 324.414 2149.04 323.08C2146.73 321.747 2144.12 321.044 2141.45 321.042C2138.79 321.04 2136.17 321.739 2133.86 323.07V323.07C2131.55 324.404 2128.93 325.106 2126.27 325.106C2123.6 325.106 2120.98 324.404 2118.67 323.07V323.07C2116.36 321.735 2113.74 321.032 2111.08 321.03C2108.41 321.029 2105.79 321.729 2103.49 323.061C2101.18 324.393 2099.26 326.309 2097.93 328.617C2096.59 330.926 2095.89 333.544 2095.89 336.21C2095.89 338.874 2095.19 341.491 2093.86 343.798C2092.53 346.105 2090.61 348.02 2088.3 349.35V349.35C2085.99 350.682 2084.07 352.598 2082.74 354.907C2081.41 357.215 2080.7 359.834 2080.7 362.5C2080.7 365.166 2081.41 367.785 2082.74 370.093C2084.07 372.401 2085.99 374.318 2088.3 375.65C2090.61 376.982 2092.53 378.898 2093.86 381.207C2095.19 383.515 2095.89 386.134 2095.89 388.8V388.8C2095.88 391.465 2096.58 394.084 2097.91 396.395C2099.23 398.706 2101.15 400.627 2103.45 401.965C2105.75 403.303 2108.37 404.01 2111.04 404.016C2113.7 404.022 2116.32 403.327 2118.63 402C2120.94 400.666 2123.56 399.963 2126.22 399.963C2128.89 399.963 2131.5 400.666 2133.81 402C2136.12 403.334 2138.74 404.038 2141.4 404.039C2144.07 404.041 2146.69 403.34 2149 402.009C2151.3 400.677 2153.22 398.76 2154.56 396.452C2155.89 394.144 2156.59 391.525 2156.59 388.86C2156.59 386.196 2157.3 383.579 2158.63 381.273C2159.97 378.967 2161.88 377.052 2164.19 375.72C2166.51 374.39 2168.43 372.473 2169.77 370.162C2171.11 367.851 2171.82 365.227 2171.82 362.556C2171.82 359.884 2171.12 357.259 2169.78 354.946C2168.45 352.633 2166.53 350.713 2164.21 349.38V349.38ZM2145.65 369.24C2144.47 369.922 2143.49 370.903 2142.8 372.084C2142.12 373.265 2141.76 374.605 2141.76 375.97C2141.76 377.333 2141.4 378.673 2140.72 379.854C2140.04 381.035 2139.06 382.016 2137.88 382.697C2136.7 383.378 2135.36 383.736 2133.99 383.735C2132.63 383.734 2131.29 383.373 2130.11 382.69C2128.93 382.01 2127.59 381.652 2126.23 381.652C2124.87 381.652 2123.53 382.01 2122.35 382.69C2121.17 383.369 2119.84 383.727 2118.48 383.728C2117.12 383.729 2115.78 383.373 2114.6 382.696C2113.42 382.019 2112.44 381.044 2111.76 379.869C2111.07 378.694 2110.71 377.36 2110.7 376C2110.7 374.637 2110.34 373.298 2109.66 372.117C2108.98 370.936 2108 369.954 2106.82 369.27C2105.64 368.587 2104.66 367.607 2103.98 366.426C2103.3 365.246 2102.94 363.907 2102.94 362.545C2102.94 361.182 2103.3 359.844 2103.98 358.663C2104.66 357.483 2105.64 356.502 2106.82 355.82C2108 355.139 2108.98 354.159 2109.66 352.98C2110.34 351.8 2110.7 350.462 2110.7 349.1C2110.7 347.736 2111.06 346.396 2111.74 345.216C2112.43 344.035 2113.41 343.055 2114.59 342.374C2115.77 341.693 2117.11 341.335 2118.48 341.336C2119.84 341.337 2121.18 341.697 2122.36 342.38C2123.54 343.063 2124.88 343.423 2126.24 343.423C2127.6 343.423 2128.94 343.063 2130.12 342.38C2131.3 341.699 2132.64 341.341 2134.01 341.342C2135.37 341.343 2136.71 341.703 2137.89 342.386C2139.07 343.069 2140.05 344.051 2140.73 345.233C2141.41 346.415 2141.77 347.756 2141.77 349.12C2141.77 350.482 2142.13 351.82 2142.81 353C2143.49 354.179 2144.47 355.159 2145.65 355.84C2146.82 356.526 2147.79 357.505 2148.46 358.68C2149.13 359.855 2149.49 361.186 2149.49 362.54C2149.49 363.894 2149.13 365.225 2148.46 366.4C2147.79 367.575 2146.82 368.554 2145.65 369.24V369.24Z" fill="#F74700"/>
<path d="M2126.24 374.64C2132.94 374.64 2138.37 369.209 2138.37 362.51C2138.37 355.811 2132.94 350.38 2126.24 350.38C2119.54 350.38 2114.11 355.811 2114.11 362.51C2114.11 369.209 2119.54 374.64 2126.24 374.64Z" fill="#F74700"/>
<path d="M646.65 716.06C648.959 717.393 650.877 719.309 652.211 721.617C653.544 723.925 654.248 726.544 654.25 729.21C654.255 731.87 654.959 734.482 656.292 736.785C657.624 739.088 659.538 741 661.842 742.329C664.146 743.659 666.76 744.36 669.42 744.362C672.08 744.364 674.694 743.666 677 742.34C679.309 741.01 681.926 740.311 684.59 740.311C687.254 740.311 689.872 741.01 692.18 742.34C694.491 743.686 697.116 744.397 699.79 744.402C702.464 744.408 705.092 743.707 707.408 742.37C709.724 741.033 711.646 739.109 712.979 736.791C714.312 734.473 715.01 731.844 715 729.17V729.17C714.994 726.504 715.689 723.884 717.016 721.572C718.344 719.26 720.255 717.339 722.56 716C724.87 714.669 726.788 712.754 728.122 710.446C729.456 708.138 730.158 705.52 730.158 702.855C730.158 700.189 729.456 697.571 728.122 695.263C726.788 692.956 724.87 691.04 722.56 689.71V689.71C720.261 688.374 718.353 686.459 717.026 684.155C715.7 681.85 715.001 679.238 715 676.58C714.998 673.915 714.295 671.298 712.961 668.991C711.627 666.684 709.709 664.769 707.401 663.438C705.092 662.108 702.474 661.408 699.809 661.41C697.144 661.412 694.527 662.116 692.22 663.45V663.45C689.91 664.779 687.291 665.479 684.625 665.479C681.96 665.479 679.341 664.779 677.03 663.45V663.45C674.722 662.119 672.104 661.42 669.44 661.422C666.775 661.424 664.158 662.127 661.852 663.46C659.545 664.794 657.63 666.711 656.3 669.019C654.969 671.328 654.269 673.945 654.27 676.61C654.27 679.275 653.568 681.893 652.236 684.201C650.904 686.509 648.988 688.426 646.68 689.76C644.369 691.089 642.449 693.003 641.113 695.31C639.777 697.617 639.072 700.235 639.069 702.901C639.066 705.567 639.765 708.187 641.096 710.497C642.427 712.807 644.342 714.725 646.65 716.06V716.06ZM665.18 696.18C666.362 695.499 667.343 694.518 668.024 693.336C668.706 692.154 669.063 690.814 669.06 689.45V689.45C669.061 688.086 669.42 686.747 670.101 685.567C670.783 684.386 671.763 683.406 672.944 682.724C674.124 682.042 675.463 681.682 676.826 681.682C678.19 681.681 679.529 682.039 680.71 682.72C681.889 683.403 683.228 683.762 684.59 683.762C685.953 683.762 687.291 683.403 688.47 682.72C689.651 682.037 690.991 681.677 692.354 681.676C693.718 681.675 695.058 682.033 696.24 682.714C697.422 683.395 698.403 684.375 699.086 685.556C699.769 686.736 700.129 688.076 700.13 689.44C700.131 690.802 700.49 692.139 701.171 693.319C701.852 694.498 702.831 695.478 704.01 696.16C705.192 696.84 706.174 697.82 706.856 699.001C707.539 700.181 707.898 701.521 707.898 702.885C707.898 704.248 707.539 705.588 706.856 706.769C706.174 707.949 705.192 708.929 704.01 709.61C702.83 710.292 701.85 711.274 701.169 712.455C700.488 713.636 700.13 714.976 700.13 716.34C700.132 717.703 699.775 719.042 699.094 720.223C698.414 721.404 697.434 722.385 696.254 723.067C695.075 723.749 693.736 724.109 692.373 724.109C691.01 724.11 689.671 723.751 688.49 723.07C687.309 722.387 685.969 722.027 684.605 722.027C683.241 722.027 681.901 722.387 680.72 723.07C679.54 723.753 678.201 724.114 676.838 724.115C675.474 724.116 674.134 723.758 672.953 723.077C671.772 722.396 670.791 721.415 670.109 720.234C669.428 719.053 669.069 717.713 669.07 716.35C669.067 714.987 668.706 713.649 668.024 712.47C667.341 711.29 666.36 710.311 665.18 709.63C664.001 708.947 663.022 707.967 662.341 706.786C661.661 705.606 661.302 704.267 661.302 702.905C661.302 701.542 661.661 700.204 662.341 699.023C663.022 697.843 664.001 696.862 665.18 696.18V696.18Z" fill="#F74700"/>
<path d="M684.6 715.031C691.299 715.031 696.73 709.6 696.73 702.901C696.73 696.201 691.299 690.771 684.6 690.771C677.901 690.771 672.47 696.201 672.47 702.901C672.47 709.6 677.901 715.031 684.6 715.031Z" fill="#F74700"/>
<path d="M543.13 559.28C547.873 562.016 551.812 565.951 554.554 570.69C557.295 575.429 558.743 580.805 558.75 586.28C558.756 591.759 560.203 597.14 562.946 601.882C565.689 606.624 569.632 610.561 574.379 613.297C579.125 616.033 584.508 617.472 589.987 617.469C595.465 617.466 600.847 616.021 605.59 613.28V613.28C610.336 610.539 615.72 609.096 621.2 609.096C626.681 609.096 632.064 610.539 636.81 613.28C641.557 616.016 646.941 617.455 652.42 617.451C657.9 617.448 663.281 616.002 668.025 613.26C672.769 610.518 676.707 606.576 679.445 601.829C682.182 597.083 683.622 591.7 683.62 586.22V586.22C683.624 580.748 685.066 575.373 687.802 570.634C690.538 565.895 694.473 561.959 699.21 559.22V559.22C703.955 556.48 707.895 552.539 710.635 547.793C713.374 543.048 714.816 537.665 714.816 532.185C714.816 526.706 713.374 521.323 710.635 516.577C707.895 511.832 703.955 507.891 699.21 505.15V505.15C694.468 502.414 690.529 498.479 687.788 493.74C685.046 489.001 683.599 483.625 683.59 478.15C683.588 472.671 682.142 467.288 679.4 462.544C676.657 457.8 672.714 453.862 667.967 451.125C663.219 448.389 657.835 446.95 652.355 446.955C646.875 446.959 641.493 448.406 636.75 451.15C632.004 453.889 626.62 455.331 621.14 455.331C615.66 455.331 610.277 453.889 605.53 451.15V451.15C584.72 439.15 558.71 454.15 558.72 478.21C558.717 483.682 557.274 489.058 554.538 493.796C551.802 498.535 547.868 502.472 543.13 505.21V505.21C538.383 507.949 534.44 511.889 531.699 516.635C528.957 521.381 527.514 526.765 527.514 532.245C527.514 537.726 528.957 543.11 531.699 547.856C534.44 552.602 538.383 556.542 543.13 559.28V559.28ZM572.77 515.47C575.711 513.771 578.153 511.328 579.851 508.386C581.548 505.444 582.441 502.107 582.44 498.71V498.71C582.437 495.315 583.329 491.979 585.024 489.037C586.719 486.096 589.159 483.652 592.099 481.953C595.038 480.253 598.373 479.357 601.768 479.355C605.163 479.353 608.499 480.244 611.44 481.94C614.382 483.638 617.719 484.531 621.115 484.531C624.512 484.531 627.848 483.638 630.79 481.94C633.73 480.249 637.062 479.36 640.454 479.362C643.845 479.365 647.177 480.258 650.114 481.954C653.051 483.649 655.491 486.087 657.189 489.023C658.888 491.958 659.785 495.289 659.79 498.68C659.79 502.077 660.685 505.413 662.384 508.353C664.083 511.294 666.527 513.735 669.47 515.43C672.411 517.129 674.852 519.572 676.55 522.513C678.247 525.454 679.141 528.79 679.141 532.185C679.141 535.581 678.247 538.917 676.55 541.858C674.852 544.799 672.411 547.242 669.47 548.94V548.94C666.528 550.64 664.085 553.085 662.387 556.029C660.69 558.973 659.797 562.312 659.8 565.71C659.8 569.104 658.907 572.439 657.211 575.378C655.514 578.318 653.075 580.76 650.137 582.459C647.199 584.158 643.865 585.055 640.471 585.058C637.077 585.062 633.742 584.173 630.8 582.48C627.858 580.783 624.522 579.889 621.125 579.889C617.729 579.889 614.392 580.783 611.45 582.48C608.511 584.172 605.178 585.061 601.787 585.058C598.395 585.056 595.064 584.162 592.127 582.467C589.189 580.771 586.749 578.333 585.051 575.398C583.353 572.462 582.456 569.132 582.45 565.74V565.74C582.449 562.348 581.555 559.016 579.86 556.078C578.164 553.14 575.726 550.699 572.79 549C569.847 547.303 567.402 544.86 565.701 541.918C564.001 538.977 563.104 535.639 563.102 532.241C563.1 528.843 563.993 525.504 565.69 522.561C567.387 519.617 569.829 517.171 572.77 515.47V515.47Z" fill="#F74700"/>
<path d="M591.15 532.2C591.15 538.134 592.91 543.934 596.206 548.867C599.503 553.801 604.188 557.646 609.67 559.917C615.152 562.187 621.184 562.781 627.003 561.624C632.822 560.466 638.168 557.609 642.364 553.413C646.559 549.218 649.416 543.872 650.574 538.053C651.731 532.233 651.137 526.201 648.867 520.72C646.596 515.238 642.751 510.553 637.817 507.256C632.884 503.96 627.084 502.2 621.15 502.2C613.194 502.2 605.563 505.361 599.937 510.987C594.311 516.613 591.15 524.244 591.15 532.2ZM609.31 532.2C609.31 529.856 610.005 527.565 611.307 525.617C612.61 523.668 614.46 522.149 616.626 521.252C618.791 520.355 621.173 520.121 623.472 520.578C625.771 521.035 627.882 522.164 629.54 523.821C631.197 525.478 632.325 527.59 632.783 529.888C633.24 532.187 633.005 534.57 632.108 536.735C631.211 538.9 629.693 540.751 627.744 542.053C625.795 543.355 623.504 544.05 621.16 544.05C619.604 544.051 618.062 543.746 616.624 543.151C615.186 542.556 613.879 541.683 612.778 540.582C611.678 539.482 610.805 538.175 610.21 536.737C609.615 535.298 609.309 533.757 609.31 532.2V532.2Z" fill="#F74700"/>
<path d="M646.65 375.68C648.958 377.012 650.874 378.927 652.208 381.233C653.542 383.54 654.246 386.156 654.25 388.82C654.247 391.485 654.944 394.103 656.273 396.413C657.602 398.722 659.515 400.641 661.821 401.977C664.126 403.313 666.743 404.018 669.408 404.022C672.072 404.026 674.691 403.329 677 402C679.307 400.666 681.925 399.963 684.59 399.963C687.256 399.963 689.873 400.666 692.18 402C694.494 403.348 697.123 404.059 699.8 404.063C702.478 404.066 705.109 403.362 707.426 402.02C709.743 400.679 711.664 398.749 712.994 396.425C714.325 394.102 715.017 391.467 715 388.79V388.79C714.999 386.125 715.699 383.506 717.032 381.197C718.364 378.889 720.282 376.972 722.59 375.64C724.9 374.308 726.818 372.392 728.151 370.083C729.485 367.775 730.187 365.156 730.187 362.49C730.187 359.824 729.485 357.205 728.151 354.897C726.818 352.588 724.9 350.672 722.59 349.34V349.34C720.284 348.007 718.369 346.092 717.037 343.786C715.705 341.479 715.003 338.863 715 336.2C715 333.534 714.298 330.916 712.965 328.608C711.632 326.3 709.714 324.383 707.405 323.051C705.096 321.719 702.477 321.019 699.812 321.021C697.146 321.022 694.528 321.725 692.22 323.06V323.06C689.912 324.394 687.292 325.097 684.625 325.097C681.959 325.097 679.339 324.394 677.03 323.06V323.06C674.722 321.73 672.104 321.03 669.44 321.032C666.775 321.034 664.159 321.737 661.852 323.071C659.545 324.404 657.631 326.322 656.3 328.63C654.969 330.938 654.269 333.556 654.27 336.22C654.271 338.885 653.57 341.504 652.238 343.812C650.905 346.12 648.989 348.037 646.68 349.37C644.37 350.701 642.45 352.616 641.114 354.924C639.778 357.231 639.073 359.85 639.07 362.516C639.067 365.183 639.766 367.803 641.097 370.114C642.427 372.424 644.343 374.344 646.65 375.68ZM665.18 355.79C666.361 355.111 667.342 354.131 668.023 352.951C668.705 351.771 669.062 350.433 669.06 349.07V349.07C669.059 347.706 669.417 346.365 670.098 345.183C670.779 344.001 671.759 343.02 672.939 342.336C674.12 341.653 675.46 341.293 676.824 341.292C678.188 341.291 679.529 341.649 680.71 342.33C681.889 343.013 683.228 343.373 684.59 343.373C685.953 343.373 687.291 343.013 688.47 342.33C689.651 341.647 690.991 341.287 692.355 341.286C693.718 341.285 695.059 341.643 696.24 342.324C697.422 343.005 698.404 343.985 699.086 345.166C699.769 346.347 700.129 347.686 700.13 349.05C700.131 350.412 700.489 351.75 701.17 352.93C701.851 354.109 702.831 355.089 704.01 355.77C705.192 356.45 706.174 357.43 706.857 358.611C707.539 359.792 707.899 361.131 707.899 362.495C707.899 363.859 707.539 365.198 706.857 366.379C706.174 367.56 705.192 368.54 704.01 369.22C702.831 369.904 701.853 370.886 701.172 372.067C700.491 373.248 700.132 374.587 700.13 375.95C700.132 377.313 699.775 378.652 699.094 379.833C698.414 381.014 697.435 381.995 696.255 382.678C695.075 383.36 693.736 383.719 692.373 383.72C691.01 383.72 689.671 383.362 688.49 382.68C687.309 381.999 685.969 381.641 684.605 381.641C683.242 381.641 681.902 381.999 680.72 382.68C679.544 383.359 678.209 383.718 676.85 383.72C675.492 383.722 674.156 383.367 672.978 382.69C671.799 382.014 670.819 381.04 670.135 379.866C669.451 378.692 669.088 377.359 669.08 376C669.079 374.636 668.719 373.296 668.036 372.114C667.353 370.933 666.372 369.952 665.19 369.27C664.004 368.59 663.017 367.61 662.331 366.427C661.644 365.244 661.282 363.901 661.281 362.533C661.28 361.165 661.64 359.822 662.325 358.638C663.01 357.454 663.995 356.471 665.18 355.79V355.79Z" fill="#F74700"/>
<path d="M684.6 374.64C691.299 374.64 696.73 369.209 696.73 362.51C696.73 355.811 691.299 350.38 684.6 350.38C677.901 350.38 672.47 355.811 672.47 362.51C672.47 369.209 677.901 374.64 684.6 374.64Z" fill="#F74700"/>
<path d="M1263.55 571.42C1260.48 571.7 1257.39 571.84 1254.39 571.84H1234.16L1249.3 554.84C1254.5 549.07 1258.83 544.06 1262.17 539.96C1265.12 536.418 1267.79 532.658 1270.17 528.71C1271.98 525.712 1273.36 522.473 1274.26 519.09C1274.99 516.088 1275.35 513.009 1275.34 509.92C1275.47 505.246 1274.63 500.597 1272.88 496.26C1271.35 492.622 1268.95 489.417 1265.88 486.93C1262.87 484.542 1259.38 482.821 1255.65 481.88C1248.65 480.06 1240.65 479.88 1231.57 481.7C1227.42 482.469 1223.4 483.815 1219.62 485.7L1218.36 486.35L1214.41 502.74H1220.54L1221.31 502.23C1222.74 501.301 1224.25 500.514 1225.83 499.88C1227.69 499.113 1229.6 498.468 1231.54 497.95C1233.53 497.42 1235.56 497.023 1237.6 496.76C1239.44 496.506 1241.3 496.372 1243.16 496.36C1249.4 496.36 1253.94 497.67 1256.64 500.25C1257.97 501.524 1259.02 503.067 1259.71 504.775C1260.4 506.484 1260.71 508.319 1260.64 510.16C1260.62 512.022 1260.33 513.872 1259.78 515.65C1258.98 518.014 1257.87 520.265 1256.5 522.35C1254.36 525.648 1252.02 528.817 1249.5 531.84C1246.5 535.54 1242.67 540.02 1238.08 545.16L1211.63 575.27V578.27L1214.38 587.73H1273.77L1276.22 574.27V567.89L1272.08 569.4C1269.33 570.435 1266.47 571.114 1263.55 571.42Z" fill="#B53A25"/>
<path d="M1388.56 497.43C1385.88 492.491 1382.02 488.29 1377.33 485.2C1372.63 482.14 1366.84 480.59 1360.11 480.59C1353.38 480.59 1347.59 482.14 1342.89 485.2C1338.2 488.284 1334.36 492.496 1331.72 497.45C1328.86 502.848 1326.88 508.668 1325.86 514.69C1323.51 527.967 1323.51 541.553 1325.86 554.83C1326.88 560.852 1328.86 566.672 1331.72 572.07C1334.36 577.026 1338.2 581.238 1342.89 584.32C1347.58 587.38 1353.38 588.93 1360.11 588.93C1366.84 588.93 1372.64 587.38 1377.34 584.32C1382.03 581.226 1385.89 577.026 1388.57 572.09C1391.47 566.697 1393.48 560.867 1394.51 554.83C1396.84 541.552 1396.84 527.968 1394.51 514.69C1393.48 508.651 1391.47 502.821 1388.56 497.43V497.43ZM1381.43 534.76C1381.4 539.25 1381.06 543.734 1380.43 548.18C1379.88 552.511 1378.69 556.739 1376.92 560.73C1375.4 564.195 1373.11 567.272 1370.23 569.73C1367.6 571.92 1364.23 572.98 1360.07 572.98C1355.91 572.98 1352.43 571.92 1349.86 569.74C1347.02 567.279 1344.78 564.2 1343.31 560.74C1341.57 556.73 1340.41 552.495 1339.85 548.16C1338.57 539.259 1338.57 530.221 1339.85 521.32C1340.41 516.985 1341.57 512.75 1343.31 508.74C1344.78 505.279 1347.02 502.201 1349.86 499.74C1352.43 497.56 1355.77 496.5 1360.07 496.5C1364.37 496.5 1367.6 497.56 1370.22 499.75C1373.1 502.205 1375.4 505.282 1376.92 508.75C1378.69 512.741 1379.88 516.968 1380.43 521.3C1381.06 525.759 1381.4 530.256 1381.43 534.76V534.76Z" fill="#B53A25"/>
<path d="M1493.31 571.42C1490.23 571.7 1487.15 571.84 1484.14 571.84H1463.92L1479.05 554.84C1484.26 549.07 1488.59 544.06 1491.93 539.96C1494.88 536.418 1497.55 532.658 1499.93 528.71C1501.74 525.712 1503.12 522.473 1504.02 519.09C1504.74 516.087 1505.11 513.009 1505.1 509.92C1505.22 505.247 1504.38 500.598 1502.64 496.26C1501.1 492.625 1498.7 489.421 1495.64 486.93C1492.62 484.544 1489.14 482.823 1485.41 481.88C1478.41 480.06 1470.41 479.88 1461.33 481.7C1457.16 482.465 1453.12 483.812 1449.33 485.7L1448.07 486.35L1444.13 502.74H1450.26L1451.03 502.23C1452.45 501.301 1453.96 500.514 1455.54 499.88C1459.31 498.328 1463.27 497.278 1467.32 496.76C1469.16 496.506 1471.02 496.372 1472.88 496.36C1479.12 496.36 1483.65 497.67 1486.36 500.25C1487.69 501.524 1488.74 503.067 1489.43 504.775C1490.12 506.484 1490.43 508.319 1490.36 510.16C1490.34 512.022 1490.05 513.872 1489.5 515.65C1488.7 518.015 1487.6 520.267 1486.22 522.35C1484.08 525.651 1481.74 528.82 1479.22 531.84C1476.22 535.54 1472.39 540.02 1467.81 545.16L1441.35 575.27V578.27L1444.11 587.73H1503.49L1505.94 574.27V567.89L1501.8 569.4C1499.07 570.432 1496.21 571.111 1493.31 571.42V571.42Z" fill="#B53A25"/>
<path d="M1590.78 582.79C1590.05 578.441 1589.57 574.054 1589.33 569.65C1589.1 565.31 1588.98 560.83 1588.98 556.33V481.58H1581.22L1564.89 491.18L1561.12 506.91H1567.05L1574.44 502.31V555.91C1574.44 560.44 1574.32 564.99 1574.09 569.44C1573.84 573.916 1573.36 578.376 1572.63 582.8V587.8H1590.86V583.29L1590.78 582.79Z" fill="#B53A25"/>
</svg>
